<?xml version="1.0" encoding="utf-8"?>
<!-- Generator: Adobe Illustrator 16.0.0, SVG Export Plug-In . SVG Version: 6.00 Build 0)  -->
<!DOCTYPE svg PUBLIC "-//W3C//DTD SVG 1.1//EN" "http://www.w3.org/Graphics/SVG/1.1/DTD/svg11.dtd">
<svg version="1.1" id="레이어_1" xmlns="http://www.w3.org/2000/svg" xmlns:xlink="http://www.w3.org/1999/xlink" x="0px"
	 y="0px" width="108px" height="15px" viewBox="0 0 108 15" enable-background="new 0 0 108 15" xml:space="preserve">
<g>
	<linearGradient id="SVGID_1_" gradientUnits="userSpaceOnUse" x1="6.9209" y1="6.3809" x2="101.194" y2="6.3809">
		<stop  offset="0" style="stop-color:#E3007F"/>
		<stop  offset="0.2" style="stop-color:#E3007F"/>
		<stop  offset="1" style="stop-color:#5F1985"/>
	</linearGradient>
	<polygon fill="url(#SVGID_1_)" points="79.747,4.764 77.882,4.764 77.882,6.376 71.515,6.376 71.515,7.998 86.081,7.998 
		86.081,6.376 79.747,6.376 	"/>
	<linearGradient id="SVGID_2_" gradientUnits="userSpaceOnUse" x1="6.9253" y1="13.0898" x2="101.192" y2="13.0898">
		<stop  offset="0" style="stop-color:#E3007F"/>
		<stop  offset="0.2" style="stop-color:#E3007F"/>
		<stop  offset="1" style="stop-color:#5F1985"/>
	</linearGradient>
	<path fill="url(#SVGID_2_)" d="M76.523,13.382c-0.408-0.084-0.554-0.206-0.554-0.292c0-0.156,0.343-0.239,0.555-0.275
		c0.441-0.096,1.217-0.143,2.306-0.143c1.095,0,1.882,0.047,2.345,0.145c0.199,0.034,0.533,0.117,0.533,0.273
		c0,0.08-0.146,0.205-0.547,0.291c-0.502,0.084-1.307,0.127-2.331,0.127C77.784,13.508,76.985,13.465,76.523,13.382 M76.693,11.295
		l-0.01,0.002c-0.614,0.103-1.107,0.221-1.474,0.354c-0.462,0.192-0.732,0.374-0.902,0.607c-0.2,0.222-0.302,0.502-0.302,0.832
		c0,0.601,0.404,1.085,1.205,1.44C75.973,14.842,77.19,15,78.83,15c1.606,0,2.822-0.158,3.621-0.47c0.81-0.342,1.22-0.827,1.22-1.44
		c0-0.308-0.104-0.596-0.299-0.83c-0.222-0.281-0.556-0.457-0.883-0.607l-0.019-0.007c-0.414-0.138-0.897-0.252-1.477-0.349
		l-0.011-0.002c-0.706-0.076-1.431-0.115-2.153-0.115C78.089,11.18,77.39,11.218,76.693,11.295"/>
	<linearGradient id="SVGID_3_" gradientUnits="userSpaceOnUse" x1="6.9229" y1="5.4414" x2="101.193" y2="5.4414">
		<stop  offset="0" style="stop-color:#E3007F"/>
		<stop  offset="0.2" style="stop-color:#E3007F"/>
		<stop  offset="1" style="stop-color:#5F1985"/>
	</linearGradient>
	<polygon fill="url(#SVGID_3_)" points="32.486,0.006 32.486,10.877 34.336,10.877 34.336,5.421 36.485,5.421 36.485,3.8 
		34.336,3.8 34.336,0.006 	"/>
	<linearGradient id="SVGID_4_" gradientUnits="userSpaceOnUse" x1="6.9224" y1="11.9785" x2="101.193" y2="11.9785">
		<stop  offset="0" style="stop-color:#E3007F"/>
		<stop  offset="0.2" style="stop-color:#E3007F"/>
		<stop  offset="1" style="stop-color:#5F1985"/>
	</linearGradient>
	<polygon fill="url(#SVGID_4_)" points="24.41,9.467 24.41,13.447 25.29,14.491 34.662,14.491 34.662,12.869 26.275,12.869 
		26.275,9.467 	"/>
	<linearGradient id="SVGID_5_" gradientUnits="userSpaceOnUse" x1="6.9194" y1="6.4595" x2="101.1974" y2="6.4595">
		<stop  offset="0" style="stop-color:#E3007F"/>
		<stop  offset="0.2" style="stop-color:#E3007F"/>
		<stop  offset="1" style="stop-color:#5F1985"/>
	</linearGradient>
	<path fill="url(#SVGID_5_)" d="M40.245,9.25c-0.449-0.633-0.667-1.546-0.667-2.791c0-1.223,0.225-2.168,0.668-2.811
		c0.427-0.625,0.996-0.929,1.737-0.929c0.737,0,1.312,0.305,1.752,0.928c0.434,0.65,0.652,1.596,0.652,2.813
		c0,1.221-0.219,2.16-0.65,2.793c-0.44,0.637-1.014,0.947-1.754,0.947C41.239,10.199,40.671,9.891,40.245,9.25 M40.143,1.426
		c-0.565,0.283-1.004,0.648-1.332,1.109c-0.37,0.471-0.646,1.047-0.814,1.709c-0.178,0.645-0.268,1.389-0.268,2.214
		c0,0.842,0.088,1.561,0.267,2.193c0.168,0.674,0.442,1.256,0.811,1.723c0.347,0.487,0.797,0.863,1.337,1.117
		c0.498,0.265,1.101,0.395,1.841,0.395c0.72,0,1.327-0.13,1.857-0.395c0.504-0.252,0.951-0.625,1.337-1.115
		c0.346-0.484,0.612-1.063,0.794-1.723c0.177-0.689,0.267-1.428,0.267-2.195c0-0.761-0.09-1.504-0.268-2.215
		c-0.183-0.649-0.45-1.222-0.798-1.708c-0.363-0.461-0.797-0.824-1.328-1.107l-0.009-0.004c-0.554-0.261-1.178-0.392-1.853-0.392
		C41.285,1.032,40.665,1.165,40.143,1.426"/>
	<linearGradient id="SVGID_6_" gradientUnits="userSpaceOnUse" x1="6.9258" y1="7.2422" x2="101.1878" y2="7.2422">
		<stop  offset="0" style="stop-color:#E3007F"/>
		<stop  offset="0.2" style="stop-color:#E3007F"/>
		<stop  offset="1" style="stop-color:#5F1985"/>
	</linearGradient>
	<rect x="47.82" fill="url(#SVGID_6_)" width="1.85" height="14.484"/>
	<linearGradient id="SVGID_7_" gradientUnits="userSpaceOnUse" x1="6.9224" y1="3.7236" x2="101.1941" y2="3.7236">
		<stop  offset="0" style="stop-color:#E3007F"/>
		<stop  offset="0.2" style="stop-color:#E3007F"/>
		<stop  offset="1" style="stop-color:#5F1985"/>
	</linearGradient>
	<path fill="url(#SVGID_7_)" d="M10.759,3.907h6.504v1.928h-6.504V3.907z M17.263,0.006v2.279h-6.504V0.006H8.894v6.387L9.94,7.441
		h9.188V0.006H17.263z"/>
	<linearGradient id="SVGID_8_" gradientUnits="userSpaceOnUse" x1="6.9224" y1="11.6807" x2="101.1891" y2="11.6807">
		<stop  offset="0" style="stop-color:#E3007F"/>
		<stop  offset="0.2" style="stop-color:#E3007F"/>
		<stop  offset="1" style="stop-color:#5F1985"/>
	</linearGradient>
	<polygon fill="url(#SVGID_8_)" points="6.695,8.799 6.695,10.42 13.078,10.42 13.078,14.563 14.943,14.563 14.943,10.42 
		21.261,10.42 21.261,8.799 	"/>
	<linearGradient id="SVGID_9_" gradientUnits="userSpaceOnUse" x1="6.9204" y1="7.2422" x2="101.1953" y2="7.2422">
		<stop  offset="0" style="stop-color:#E3007F"/>
		<stop  offset="0.2" style="stop-color:#E3007F"/>
		<stop  offset="1" style="stop-color:#5F1985"/>
	</linearGradient>
	<polygon fill="url(#SVGID_9_)" points="62.723,0.006 62.723,10.023 55.047,10.023 55.047,6.94 60.534,6.94 60.534,1.102 
		53.181,1.102 53.181,2.739 58.652,2.739 58.652,5.302 53.181,5.302 53.181,10.508 54.336,11.662 62.723,11.662 62.723,14.479 
		64.572,14.479 64.572,7.347 66.722,7.347 66.722,5.709 64.572,5.709 64.572,0.006 	"/>
	<linearGradient id="SVGID_10_" gradientUnits="userSpaceOnUse" x1="6.9214" y1="4.4424" x2="101.1943" y2="4.4424">
		<stop  offset="0" style="stop-color:#E3007F"/>
		<stop  offset="0.2" style="stop-color:#E3007F"/>
		<stop  offset="1" style="stop-color:#5F1985"/>
	</linearGradient>
	<polygon fill="url(#SVGID_10_)" points="25.924,0.309 25.924,3.584 21.756,7.144 22.979,8.576 26.865,5.256 30.752,8.576 
		31.975,7.144 27.807,3.584 27.807,0.309 	"/>
	<linearGradient id="SVGID_11_" gradientUnits="userSpaceOnUse" x1="6.9185" y1="9.6328" x2="101.1943" y2="9.6328">
		<stop  offset="0" style="stop-color:#E3007F"/>
		<stop  offset="0.2" style="stop-color:#E3007F"/>
		<stop  offset="1" style="stop-color:#5F1985"/>
	</linearGradient>
	<polygon fill="url(#SVGID_11_)" points="77.882,8.382 77.882,9.313 73.077,9.313 73.077,10.885 84.6,10.885 84.6,9.313 
		79.748,9.313 79.748,8.382 	"/>
	<linearGradient id="SVGID_12_" gradientUnits="userSpaceOnUse" x1="6.9233" y1="3.1143" x2="101.1939" y2="3.1143">
		<stop  offset="0" style="stop-color:#E3007F"/>
		<stop  offset="0.2" style="stop-color:#E3007F"/>
		<stop  offset="1" style="stop-color:#5F1985"/>
	</linearGradient>
	<polygon fill="url(#SVGID_12_)" points="73.388,0.124 73.388,1.714 77.882,1.714 77.882,2.257 72.904,4.738 73.585,6.104 
		78.814,3.497 84.044,6.104 84.726,4.738 79.748,2.257 79.748,1.714 84.241,1.714 84.241,0.124 	"/>
	<linearGradient id="SVGID_13_" gradientUnits="userSpaceOnUse" x1="6.9253" y1="7.2422" x2="101.1933" y2="7.2422">
		<stop  offset="0" style="stop-color:#E3007F"/>
		<stop  offset="0.2" style="stop-color:#E3007F"/>
		<stop  offset="1" style="stop-color:#5F1985"/>
	</linearGradient>
	<polygon fill="url(#SVGID_13_)" points="97.306,0.006 97.306,9.809 89.631,9.809 89.631,2.984 95.459,2.984 95.459,1.346 
		87.765,1.346 87.765,10.293 88.92,11.447 97.306,11.447 97.306,14.479 99.155,14.479 99.155,7.347 101.305,7.347 101.305,5.709 
		99.155,5.709 99.155,0.006 	"/>
</g>
</svg>
