<?xml version="1.0" encoding="utf-8"?>
<!-- Generator: Adobe Illustrator 16.0.0, SVG Export Plug-In . SVG Version: 6.00 Build 0)  -->
<!DOCTYPE svg PUBLIC "-//W3C//DTD SVG 1.1//EN" "http://www.w3.org/Graphics/SVG/1.1/DTD/svg11.dtd">
<svg version="1.1" id="레이어_1" xmlns="http://www.w3.org/2000/svg" xmlns:xlink="http://www.w3.org/1999/xlink" x="0px"
	 y="0px" width="110px" height="17px" viewBox="0 0 110 17" enable-background="new 0 0 110 17" xml:space="preserve">
<g>
	<g>
		<g>
			<defs>
				<path id="SVGID_1_" d="M83.91,4.018l-1.697,1.713v5.107l1.697,1.714h4.729l1.715-1.714V5.731l-1.713-1.713H83.91z
					 M88.418,10.163L87.73,10.85h-2.896l-0.685-0.687v-3.75l0.685-0.686h2.896l0.688,0.686V10.163z"/>
			</defs>
			<use xlink:href="#SVGID_1_"  overflow="visible" fill="#FFFFFF"/>
			<clipPath id="SVGID_2_">
				<use xlink:href="#SVGID_1_"  overflow="visible"/>
			</clipPath>
			<rect x="82.213" y="4.018" clip-path="url(#SVGID_2_)" fill="#FFFFFF" width="8.141" height="8.535"/>
		</g>
	</g>
	<g>
		<g>
			<defs>
				<path id="SVGID_3_" d="M93.495,4.018l-1.697,1.713v5.107l1.697,1.714h4.729l1.715-1.714V5.731l-1.715-1.713H93.495z
					 M98.003,10.163l-0.687,0.687h-2.896l-0.685-0.687v-3.75l0.685-0.686h2.896l0.687,0.686V10.163z"/>
			</defs>
			<use xlink:href="#SVGID_3_"  overflow="visible" fill="#FFFFFF"/>
			<clipPath id="SVGID_4_">
				<use xlink:href="#SVGID_3_"  overflow="visible"/>
			</clipPath>
			<rect x="91.798" y="4.018" clip-path="url(#SVGID_4_)" fill="#FFFFFF" width="8.142" height="8.535"/>
		</g>
	</g>
	<g>
		<g>
			<defs>
				<polygon id="SVGID_5_" points="47.022,4.018 42.433,4.018 40.735,5.732 40.735,12.553 42.672,12.553 42.672,6.411 43.359,5.725 
					46.114,5.725 46.8,6.411 46.8,12.553 48.736,12.553 48.736,5.732 				"/>
			</defs>
			<use xlink:href="#SVGID_5_"  overflow="visible" fill="#FFFFFF"/>
			<clipPath id="SVGID_6_">
				<use xlink:href="#SVGID_5_"  overflow="visible"/>
			</clipPath>
			<rect x="40.735" y="4.018" clip-path="url(#SVGID_6_)" fill="#FFFFFF" width="8.001" height="8.535"/>
		</g>
	</g>
	<g>
		<g>
			<defs>
				<polygon id="SVGID_7_" points="17.867,12.553 19.563,10.839 19.563,4.018 17.626,4.018 17.626,10.156 16.941,10.843 
					14.186,10.843 13.5,10.156 13.5,4.018 11.563,4.018 11.563,10.839 13.276,12.553 				"/>
			</defs>
			<use xlink:href="#SVGID_7_"  overflow="visible" fill="#FFFFFF"/>
			<clipPath id="SVGID_8_">
				<use xlink:href="#SVGID_7_"  overflow="visible"/>
			</clipPath>
			<rect x="11.563" y="4.018" clip-path="url(#SVGID_8_)" fill="#FFFFFF" width="8.001" height="8.535"/>
		</g>
	</g>
	<g>
		<g>
			<defs>
				<polygon id="SVGID_9_" points="54.817,0.5 54.114,1.186 54.114,2.18 54.817,2.866 55.863,2.866 56.566,2.18 56.566,1.186 
					55.863,0.5 				"/>
			</defs>
			<use xlink:href="#SVGID_9_"  overflow="visible" fill="#FFFFFF"/>
			<clipPath id="SVGID_10_">
				<use xlink:href="#SVGID_9_"  overflow="visible"/>
			</clipPath>
			<rect x="54.114" y="0.5" clip-path="url(#SVGID_10_)" fill="#FFFFFF" width="2.452" height="2.366"/>
		</g>
	</g>
	<g>
		<g>
			<defs>
				<rect id="SVGID_11_" x="54.371" y="4.015" width="1.938" height="8.538"/>
			</defs>
			<use xlink:href="#SVGID_11_"  overflow="visible" fill="#FFFFFF"/>
			<clipPath id="SVGID_12_">
				<use xlink:href="#SVGID_11_"  overflow="visible"/>
			</clipPath>
			<rect x="54.371" y="4.015" clip-path="url(#SVGID_12_)" fill="#FFFFFF" width="1.938" height="8.538"/>
		</g>
	</g>
	<g>
		<g>
			<defs>
				<path id="SVGID_13_" d="M107.589,4.018h-4.508l-1.697,1.713v5.107l1.697,1.714h4.748l1.694-1.714V1.63h-1.936L107.589,4.018
					L107.589,4.018z M107.589,10.163l-0.687,0.687h-2.896l-0.686-0.687v-3.75l0.686-0.686h3.583V10.163z"/>
			</defs>
			<use xlink:href="#SVGID_13_"  overflow="visible" fill="#FFFFFF"/>
			<clipPath id="SVGID_14_">
				<use xlink:href="#SVGID_13_"  overflow="visible"/>
			</clipPath>
			<rect x="101.384" y="1.63" clip-path="url(#SVGID_14_)" fill="#FFFFFF" width="8.142" height="10.923"/>
		</g>
	</g>
	<g>
		<g>
			<defs>
				<path id="SVGID_15_" d="M9.328,5.588V2.28L7.646,0.6h-7.17v11.953h7.57l1.818-1.816v-3.12L8.583,6.333L9.328,5.588z
					 M2.433,2.298H6.66l0.693,0.693v2.026l-0.71,0.71h-4.21V2.298z M7.889,10.023l-0.832,0.83H2.433V7.356h4.625L7.889,8.17V10.023z
					"/>
			</defs>
			<use xlink:href="#SVGID_15_"  overflow="visible" fill="#FFFFFF"/>
			<clipPath id="SVGID_16_">
				<use xlink:href="#SVGID_15_"  overflow="visible"/>
			</clipPath>
			<rect x="0.476" y="0.6" clip-path="url(#SVGID_16_)" fill="#FFFFFF" width="9.389" height="11.953"/>
		</g>
	</g>
	<g>
		<g>
			<defs>
				<path id="SVGID_17_" d="M32.751,4.018l-1.749,1.766v0.993h1.902v-0.5l0.635-0.634h3.113l0.634,0.634v1.197H32.46l-1.526,1.508
					v2.045l1.526,1.524h5.205l1.526-1.524V5.784l-1.748-1.766H32.751z M37.287,10.416l-0.513,0.514h-3.423l-0.513-0.514V9.629
					L33.386,9.1h3.902L37.287,10.416L37.287,10.416z"/>
			</defs>
			<use xlink:href="#SVGID_17_"  overflow="visible" fill="#FFFFFF"/>
			<clipPath id="SVGID_18_">
				<use xlink:href="#SVGID_17_"  overflow="visible"/>
			</clipPath>
			<rect x="30.934" y="4.018" clip-path="url(#SVGID_18_)" fill="#FFFFFF" width="8.256" height="8.535"/>
		</g>
	</g>
	<g>
		<g>
			<defs>
				<polygon id="SVGID_19_" points="27.801,12.553 29.328,11.027 29.328,8.986 27.801,7.477 23.591,7.477 23.042,6.945 
					23.042,6.283 23.676,5.648 26.711,5.648 27.345,6.283 27.345,6.777 29.247,6.777 29.247,5.784 27.449,4.018 22.889,4.018 
					21.14,5.784 21.14,7.586 22.666,9.096 26.876,9.096 27.425,9.625 27.425,10.416 26.911,10.93 23.554,10.93 23.041,10.416 
					23.041,9.796 21.138,9.796 21.138,11.027 22.597,12.553 				"/>
			</defs>
			<use xlink:href="#SVGID_19_"  overflow="visible" fill="#FFFFFF"/>
			<clipPath id="SVGID_20_">
				<use xlink:href="#SVGID_19_"  overflow="visible"/>
			</clipPath>
			<rect x="21.138" y="4.018" clip-path="url(#SVGID_20_)" fill="#FFFFFF" width="8.189" height="8.535"/>
		</g>
	</g>
	<g>
		<g>
			<defs>
				<polygon id="SVGID_21_" points="65.311,12.553 66.836,11.027 66.836,8.986 65.311,7.477 61.1,7.477 60.551,6.945 60.551,6.283 
					61.186,5.648 64.221,5.648 64.854,6.283 64.854,6.777 66.756,6.777 66.756,5.784 64.957,4.018 60.396,4.018 58.648,5.784 
					58.648,7.586 60.174,9.096 64.384,9.096 64.934,9.625 64.934,10.416 64.419,10.93 61.063,10.93 60.549,10.416 60.549,9.796 
					58.646,9.796 58.646,11.027 60.105,12.553 				"/>
			</defs>
			<use xlink:href="#SVGID_21_"  overflow="visible" fill="#FFFFFF"/>
			<clipPath id="SVGID_22_">
				<use xlink:href="#SVGID_21_"  overflow="visible"/>
			</clipPath>
			<rect x="58.646" y="4.018" clip-path="url(#SVGID_22_)" fill="#FFFFFF" width="8.188" height="8.535"/>
		</g>
	</g>
	<g>
		<g>
			<defs>
				<path id="SVGID_23_" d="M73.723,4.018l-1.695,1.713v5.107l1.695,1.714h4.952v1.884l-0.668,0.687h-3.53l-0.514-0.515v-0.619
					l-1.936,0.004v1.232l1.459,1.524h5.359l1.766-1.748v-9.27l-1.696-1.713H73.723z M78.675,10.85h-4.026l-0.686-0.687v-3.75
					l0.686-0.686h3.343l0.685,0.686L78.675,10.85L78.675,10.85z"/>
			</defs>
			<use xlink:href="#SVGID_23_"  overflow="visible" fill="#FFFFFF"/>
			<clipPath id="SVGID_24_">
				<use xlink:href="#SVGID_23_"  overflow="visible"/>
			</clipPath>
			<rect x="72.027" y="4.018" clip-path="url(#SVGID_24_)" fill="#FFFFFF" width="8.584" height="12.732"/>
		</g>
	</g>
</g>
</svg>
