<?xml version="1.0" encoding="utf-8"?>
<!-- Generator: Adobe Illustrator 16.0.0, SVG Export Plug-In . SVG Version: 6.00 Build 0)  -->
<!DOCTYPE svg PUBLIC "-//W3C//DTD SVG 1.1//EN" "http://www.w3.org/Graphics/SVG/1.1/DTD/svg11.dtd">
<svg version="1.1" id="레이어_1" xmlns="http://www.w3.org/2000/svg" xmlns:xlink="http://www.w3.org/1999/xlink" x="0px"
	 y="0px" width="92px" height="16px" viewBox="0 0 92 16" enable-background="new 0 0 92 16" xml:space="preserve">
<g>
	<g>
		<g>
			<defs>
				<polygon id="SVGID_1_" points="9.373,8.665 9.373,14.867 10.505,16 17.358,16 17.358,14.246 11.391,14.246 11.391,8.665 				"/>
			</defs>
			<use xlink:href="#SVGID_1_"  overflow="visible" fill="#FFFFFF"/>
			<clipPath id="SVGID_2_">
				<use xlink:href="#SVGID_1_"  overflow="visible"/>
			</clipPath>
			<rect x="9.373" y="8.665" clip-path="url(#SVGID_2_)" fill="#FFFFFF" width="7.985" height="7.335"/>
		</g>
	</g>
	<g>
		<g>
			<defs>
				<polygon id="SVGID_3_" points="41.435,3.084 41.435,7.19 41.435,8.943 43.436,8.943 49.756,8.943 49.756,14.246 41.435,14.246 
					41.435,16 50.643,16 51.773,14.867 51.773,8.323 50.643,7.19 43.436,7.19 43.436,3.084 				"/>
			</defs>
			<use xlink:href="#SVGID_3_"  overflow="visible" fill="#FFFFFF"/>
			<clipPath id="SVGID_4_">
				<use xlink:href="#SVGID_3_"  overflow="visible"/>
			</clipPath>
			<rect x="41.435" y="3.084" clip-path="url(#SVGID_4_)" fill="#FFFFFF" width="10.338" height="12.916"/>
		</g>
	</g>
	<g>
		<g>
			<defs>
				<polygon id="SVGID_5_" points="23.823,0.331 23.823,2.426 21.22,2.426 21.22,4.18 23.823,4.18 23.823,16 25.824,16 25.824,4.18 
					31.318,4.18 31.318,13.936 28.813,13.936 28.813,15.689 32.203,15.689 33.336,14.559 33.336,3.558 32.203,2.426 25.824,2.426 
					25.824,0.331 				"/>
			</defs>
			<use xlink:href="#SVGID_5_"  overflow="visible" fill="#FFFFFF"/>
			<clipPath id="SVGID_6_">
				<use xlink:href="#SVGID_5_"  overflow="visible"/>
			</clipPath>
			<rect x="21.22" y="0.331" clip-path="url(#SVGID_6_)" fill="#FFFFFF" width="12.116" height="15.669"/>
		</g>
	</g>
	<g>
		<g>
			<defs>
				<polygon id="SVGID_7_" points="5.355,0.331 5.355,2.426 2.599,2.426 2.599,4.18 5.355,4.18 5.355,16 7.356,16 7.356,4.18 
					10.112,4.18 10.112,2.426 7.356,2.426 7.356,0.331 				"/>
			</defs>
			<use xlink:href="#SVGID_7_"  overflow="visible" fill="#FFFFFF"/>
			<clipPath id="SVGID_8_">
				<use xlink:href="#SVGID_7_"  overflow="visible"/>
			</clipPath>
			<rect x="2.599" y="0.331" clip-path="url(#SVGID_8_)" fill="#FFFFFF" width="7.513" height="15.669"/>
		</g>
	</g>
	<g>
		<g>
			<defs>
				<rect id="SVGID_9_" x="41.435" y="0.506" width="8.096" height="1.754"/>
			</defs>
			<use xlink:href="#SVGID_9_"  overflow="visible" fill="#FFFFFF"/>
			<clipPath id="SVGID_10_">
				<use xlink:href="#SVGID_9_"  overflow="visible"/>
			</clipPath>
			<rect x="41.435" y="0.506" clip-path="url(#SVGID_10_)" fill="#FFFFFF" width="8.096" height="1.754"/>
		</g>
	</g>
	<g>
		<g>
			<defs>
				<rect id="SVGID_11_" x="11.458" y="2.426" width="2.301" height="1.754"/>
			</defs>
			<use xlink:href="#SVGID_11_"  overflow="visible" fill="#FFFFFF"/>
			<clipPath id="SVGID_12_">
				<use xlink:href="#SVGID_11_"  overflow="visible"/>
			</clipPath>
			<rect x="11.458" y="2.426" clip-path="url(#SVGID_12_)" fill="#FFFFFF" width="2.301" height="1.754"/>
		</g>
	</g>
	<g>
		<g>
			<defs>
				<rect id="SVGID_13_" x="15.057" y="2.426" width="2.301" height="1.754"/>
			</defs>
			<use xlink:href="#SVGID_13_"  overflow="visible" fill="#FFFFFF"/>
			<clipPath id="SVGID_14_">
				<use xlink:href="#SVGID_13_"  overflow="visible"/>
			</clipPath>
			<rect x="15.057" y="2.426" clip-path="url(#SVGID_14_)" fill="#FFFFFF" width="2.301" height="1.754"/>
		</g>
	</g>
	<g>
		<g>
			<defs>
				<polygon id="SVGID_15_" points="81.723,0.331 81.723,14.246 78.051,14.246 78.051,3.82 76.047,3.82 76.047,14.867 77.178,16 
					87.4,16 88.25,16 89.4,16 89.4,3.821 87.4,3.821 87.4,14.246 83.723,14.246 83.723,0.331 				"/>
			</defs>
			<use xlink:href="#SVGID_15_"  overflow="visible" fill="#FFFFFF"/>
			<clipPath id="SVGID_16_">
				<use xlink:href="#SVGID_15_"  overflow="visible"/>
			</clipPath>
			<rect x="76.047" y="0.331" clip-path="url(#SVGID_16_)" fill="#FFFFFF" width="13.354" height="15.669"/>
		</g>
	</g>
	<g>
		<g>
			<defs>
				<rect id="SVGID_17_" x="9.373" y="6.083" width="7.985" height="1.754"/>
			</defs>
			<use xlink:href="#SVGID_17_"  overflow="visible" fill="#FFFFFF"/>
			<clipPath id="SVGID_18_">
				<use xlink:href="#SVGID_17_"  overflow="visible"/>
			</clipPath>
			<rect x="9.373" y="6.083" clip-path="url(#SVGID_18_)" fill="#FFFFFF" width="7.985" height="1.754"/>
		</g>
	</g>
	<g>
		<g>
			<defs>
				<polygon id="SVGID_19_" points="58.654,7.655 58.654,9.292 62.766,9.292 62.766,10.355 56.822,10.355 56.822,11.993 
					62.766,11.993 62.766,14.361 60.906,14.361 60.906,12.609 58.904,12.609 58.904,14.361 56.238,14.361 56.238,16 62.766,16 
					64.768,16 71.297,16 71.297,14.361 68.629,14.361 68.629,12.609 66.629,12.609 66.629,14.361 64.768,14.361 64.768,11.993 
					70.711,11.993 70.711,10.355 64.768,10.355 64.768,9.292 68.881,9.292 68.881,7.655 				"/>
			</defs>
			<use xlink:href="#SVGID_19_"  overflow="visible" fill="#FFFFFF"/>
			<clipPath id="SVGID_20_">
				<use xlink:href="#SVGID_19_"  overflow="visible"/>
			</clipPath>
			<rect x="56.238" y="7.655" clip-path="url(#SVGID_20_)" fill="#FFFFFF" width="15.059" height="8.345"/>
		</g>
	</g>
	<g>
		<g>
			<defs>
				<polygon id="SVGID_21_" points="64.328,0.501 64.328,2.11 65.775,2.11 63.768,3.195 61.758,2.11 63.207,2.11 63.207,0.501 
					60.271,0.501 57.129,2.169 57.883,3.59 59.453,2.758 62.008,4.145 59.557,5.468 56.268,5.468 56.268,7.101 60.082,7.101 
					63.768,5.1 67.451,7.101 71.268,7.101 71.268,5.468 67.977,5.468 65.527,4.145 68.082,2.757 69.652,3.59 70.404,2.169 
					67.264,0.501 				"/>
			</defs>
			<use xlink:href="#SVGID_21_"  overflow="visible" fill="#FFFFFF"/>
			<clipPath id="SVGID_22_">
				<use xlink:href="#SVGID_21_"  overflow="visible"/>
			</clipPath>
			<rect x="56.268" y="0.501" clip-path="url(#SVGID_22_)" fill="#FFFFFF" width="15" height="6.6"/>
		</g>
	</g>
	<g>
		<g>
			<defs>
				<polygon id="SVGID_23_" points="33.642,1.414 35.126,2.899 35.126,6.438 37.126,6.438 37.126,4.9 37.126,2.071 35.126,0.07 
					35.056,0 				"/>
			</defs>
			<use xlink:href="#SVGID_23_"  overflow="visible" fill="#FFFFFF"/>
			<clipPath id="SVGID_24_">
				<use xlink:href="#SVGID_23_"  overflow="visible"/>
			</clipPath>
			<rect x="33.642" clip-path="url(#SVGID_24_)" fill="#FFFFFF" width="3.485" height="6.438"/>
		</g>
	</g>
</g>
</svg>
