<?xml version="1.0" encoding="utf-8"?>
<!-- Generator: Adobe Illustrator 16.0.0, SVG Export Plug-In . SVG Version: 6.00 Build 0)  -->
<!DOCTYPE svg PUBLIC "-//W3C//DTD SVG 1.1//EN" "http://www.w3.org/Graphics/SVG/1.1/DTD/svg11.dtd">
<svg version="1.1" id="레이어_1" xmlns="http://www.w3.org/2000/svg" xmlns:xlink="http://www.w3.org/1999/xlink" x="0px"
	 y="0px" width="108px" height="15px" viewBox="0 0 108 15" enable-background="new 0 0 108 15" xml:space="preserve">
<g>
	<g>
		<g>
			<g>
				<polygon id="SVGID_1_" fill="#FFFFFF" points="79.753,4.76 77.891,4.76 77.891,6.373 71.52,6.373 71.52,7.995 86.094,7.995 
					86.094,6.373 79.753,6.373 				"/>
			</g>
			<g>
				<defs>
					<polygon id="SVGID_2_" points="79.753,4.76 77.891,4.76 77.891,6.373 71.52,6.373 71.52,7.995 86.094,7.995 86.094,6.373 
						79.753,6.373 					"/>
				</defs>
				<use xlink:href="#SVGID_2_"  overflow="visible" fill="#FFFFFF"/>
				<clipPath id="SVGID_4_">
					<use xlink:href="#SVGID_2_"  overflow="visible"/>
				</clipPath>
				<rect x="71.52" y="4.76" clip-path="url(#SVGID_4_)" fill="#FFFFFF" width="14.574" height="3.235"/>
			</g>
		</g>
	</g>
	<g>
		<g>
			<g>
				<path id="SVGID_3_" fill="#FFFFFF" d="M76.532,13.378c-0.411-0.083-0.556-0.203-0.556-0.291c0-0.157,0.344-0.239,0.556-0.272
					c0.438-0.098,1.216-0.144,2.306-0.144c1.096,0,1.881,0.046,2.348,0.144c0.199,0.033,0.531,0.115,0.531,0.272
					c0,0.083-0.146,0.208-0.545,0.291c-0.504,0.083-1.308,0.13-2.334,0.13C77.794,13.508,76.994,13.461,76.532,13.378
					 M76.699,11.294h-0.01c-0.615,0.103-1.104,0.222-1.477,0.356c-0.462,0.188-0.729,0.373-0.898,0.604
					c-0.199,0.223-0.301,0.504-0.301,0.832c0,0.602,0.4,1.086,1.204,1.441C75.979,14.838,77.197,15,78.838,15
					c1.607,0,2.824-0.162,3.623-0.471c0.809-0.344,1.221-0.828,1.221-1.442c0-0.306-0.105-0.597-0.301-0.827
					c-0.223-0.281-0.555-0.463-0.883-0.609l-0.02-0.006c-0.416-0.139-0.896-0.254-1.479-0.351H80.99
					c-0.707-0.079-1.436-0.116-2.154-0.116C78.1,11.178,77.396,11.215,76.699,11.294"/>
			</g>
			<g>
				<defs>
					<path id="SVGID_6_" d="M76.532,13.378c-0.411-0.083-0.556-0.203-0.556-0.291c0-0.157,0.344-0.239,0.556-0.272
						c0.438-0.098,1.216-0.144,2.306-0.144c1.096,0,1.881,0.046,2.348,0.144c0.199,0.033,0.531,0.115,0.531,0.272
						c0,0.083-0.146,0.208-0.545,0.291c-0.504,0.083-1.308,0.13-2.334,0.13C77.794,13.508,76.994,13.461,76.532,13.378
						 M76.699,11.294h-0.01c-0.615,0.103-1.104,0.222-1.477,0.356c-0.462,0.188-0.729,0.373-0.898,0.604
						c-0.199,0.223-0.301,0.504-0.301,0.832c0,0.602,0.4,1.086,1.204,1.441C75.979,14.838,77.197,15,78.838,15
						c1.607,0,2.824-0.162,3.623-0.471c0.809-0.344,1.221-0.828,1.221-1.442c0-0.306-0.105-0.597-0.301-0.827
						c-0.223-0.281-0.555-0.463-0.883-0.609l-0.02-0.006c-0.416-0.139-0.896-0.254-1.479-0.351H80.99
						c-0.707-0.079-1.436-0.116-2.154-0.116C78.1,11.178,77.396,11.215,76.699,11.294"/>
				</defs>
				<use xlink:href="#SVGID_6_"  overflow="visible" fill="#FFFFFF"/>
				<clipPath id="SVGID_8_">
					<use xlink:href="#SVGID_6_"  overflow="visible"/>
				</clipPath>
				<rect x="74.014" y="11.178" clip-path="url(#SVGID_8_)" fill="#FFFFFF" width="9.668" height="3.822"/>
			</g>
		</g>
	</g>
	<g>
		<g>
			<g>
				<polygon id="SVGID_5_" fill="#FFFFFF" points="32.479,0 32.479,10.873 34.328,10.873 34.328,5.416 36.481,5.416 36.481,3.794 
					34.328,3.794 34.328,0 				"/>
			</g>
			<g>
				<defs>
					<polygon id="SVGID_10_" points="32.479,0 32.479,10.873 34.328,10.873 34.328,5.416 36.481,5.416 36.481,3.794 34.328,3.794 
						34.328,0 					"/>
				</defs>
				<use xlink:href="#SVGID_10_"  overflow="visible" fill="#FFFFFF"/>
				<clipPath id="SVGID_12_">
					<use xlink:href="#SVGID_10_"  overflow="visible"/>
				</clipPath>
				<rect x="32.479" clip-path="url(#SVGID_12_)" fill="#FFFFFF" width="4.002" height="10.873"/>
			</g>
		</g>
	</g>
	<g>
		<g>
			<g>
				<polygon id="SVGID_7_" fill="#FFFFFF" points="24.402,9.464 24.402,13.443 25.28,14.492 34.656,14.492 34.656,12.865 
					26.269,12.865 26.269,9.464 				"/>
			</g>
			<g>
				<defs>
					<polygon id="SVGID_14_" points="24.402,9.464 24.402,13.443 25.28,14.492 34.656,14.492 34.656,12.865 26.269,12.865 
						26.269,9.464 					"/>
				</defs>
				<use xlink:href="#SVGID_14_"  overflow="visible" fill="#FFFFFF"/>
				<clipPath id="SVGID_16_">
					<use xlink:href="#SVGID_14_"  overflow="visible"/>
				</clipPath>
				<rect x="24.402" y="9.464" clip-path="url(#SVGID_16_)" fill="#FFFFFF" width="10.254" height="5.028"/>
			</g>
		</g>
	</g>
	<g>
		<g>
			<g>
				<path id="SVGID_9_" fill="#FFFFFF" d="M40.238,9.246c-0.448-0.633-0.666-1.547-0.666-2.791c0-1.225,0.227-2.172,0.67-2.814
					c0.425-0.624,0.993-0.929,1.737-0.929c0.735,0,1.313,0.305,1.751,0.929c0.435,0.651,0.651,1.599,0.651,2.814
					c0,1.22-0.217,2.163-0.651,2.791c-0.439,0.639-1.012,0.947-1.751,0.947C41.236,10.193,40.668,9.889,40.238,9.246 M40.137,1.418
					C39.573,1.7,39.134,2.07,38.806,2.527c-0.37,0.471-0.647,1.049-0.813,1.709c-0.18,0.647-0.268,1.391-0.268,2.218
					c0,0.841,0.088,1.562,0.263,2.194c0.171,0.676,0.444,1.259,0.813,1.726c0.347,0.483,0.795,0.858,1.335,1.112
					c0.499,0.269,1.104,0.396,1.844,0.396c0.721,0,1.326-0.129,1.858-0.396c0.503-0.25,0.952-0.623,1.335-1.112
					c0.347-0.485,0.614-1.063,0.795-1.726c0.175-0.688,0.268-1.427,0.268-2.194c0-0.762-0.092-1.506-0.268-2.218
					c-0.185-0.647-0.448-1.22-0.8-1.709c-0.36-0.458-0.795-0.823-1.326-1.104l-0.009-0.005c-0.554-0.259-1.178-0.393-1.853-0.393
					C41.283,1.026,40.659,1.16,40.137,1.418"/>
			</g>
			<g>
				<defs>
					<path id="SVGID_18_" d="M40.238,9.246c-0.448-0.633-0.666-1.547-0.666-2.791c0-1.225,0.227-2.172,0.67-2.814
						c0.425-0.624,0.993-0.929,1.737-0.929c0.735,0,1.313,0.305,1.751,0.929c0.435,0.651,0.651,1.599,0.651,2.814
						c0,1.22-0.217,2.163-0.651,2.791c-0.439,0.639-1.012,0.947-1.751,0.947C41.236,10.193,40.668,9.889,40.238,9.246 M40.137,1.418
						C39.573,1.7,39.134,2.07,38.806,2.527c-0.37,0.471-0.647,1.049-0.813,1.709c-0.18,0.647-0.268,1.391-0.268,2.218
						c0,0.841,0.088,1.562,0.263,2.194c0.171,0.676,0.444,1.259,0.813,1.726c0.347,0.483,0.795,0.858,1.335,1.112
						c0.499,0.269,1.104,0.396,1.844,0.396c0.721,0,1.326-0.129,1.858-0.396c0.503-0.25,0.952-0.623,1.335-1.112
						c0.347-0.485,0.614-1.063,0.795-1.726c0.175-0.688,0.268-1.427,0.268-2.194c0-0.762-0.092-1.506-0.268-2.218
						c-0.185-0.647-0.448-1.22-0.8-1.709c-0.36-0.458-0.795-0.823-1.326-1.104l-0.009-0.005c-0.554-0.259-1.178-0.393-1.853-0.393
						C41.283,1.026,40.659,1.16,40.137,1.418"/>
				</defs>
				<use xlink:href="#SVGID_18_"  overflow="visible" fill="#FFFFFF"/>
				<clipPath id="SVGID_20_">
					<use xlink:href="#SVGID_18_"  overflow="visible"/>
				</clipPath>
				<rect x="37.725" y="1.026" clip-path="url(#SVGID_20_)" fill="#FFFFFF" width="8.512" height="10.859"/>
			</g>
		</g>
	</g>
	<g>
		<g>
			<g>
				<rect id="SVGID_11_" x="48.408" fill="#FFFFFF" width="1.849" height="14.492"/>
			</g>
			<g>
				<defs>
					<rect id="SVGID_22_" x="48.408" width="1.849" height="14.492"/>
				</defs>
				<use xlink:href="#SVGID_22_"  overflow="visible" fill="#FFFFFF"/>
				<clipPath id="SVGID_24_">
					<use xlink:href="#SVGID_22_"  overflow="visible"/>
				</clipPath>
				<rect x="48.408" clip-path="url(#SVGID_24_)" fill="#FFFFFF" width="1.849" height="14.492"/>
			</g>
		</g>
	</g>
	<g>
		<g>
			<g>
				<path id="SVGID_13_" fill="#FFFFFF" d="M10.747,3.9h6.506v1.932h-6.506V3.9z M17.253,0v2.278h-6.506V0H8.88v6.391l1.044,1.044
					h9.191V0H17.253z"/>
			</g>
			<g>
				<defs>
					<path id="SVGID_26_" d="M10.747,3.9h6.506v1.932h-6.506V3.9z M17.253,0v2.278h-6.506V0H8.88v6.391l1.044,1.044h9.191V0H17.253z
						"/>
				</defs>
				<use xlink:href="#SVGID_26_"  overflow="visible" fill="#FFFFFF"/>
				<clipPath id="SVGID_27_">
					<use xlink:href="#SVGID_26_"  overflow="visible"/>
				</clipPath>
				<rect x="8.88" clip-path="url(#SVGID_27_)" fill="#FFFFFF" width="10.235" height="7.435"/>
			</g>
		</g>
	</g>
	<g>
		<g>
			<g>
				<polygon id="SVGID_15_" fill="#FFFFFF" points="6.68,8.794 6.68,10.416 13.066,10.416 13.066,14.561 14.934,14.561 
					14.934,10.416 21.25,10.416 21.25,8.794 				"/>
			</g>
			<g>
				<defs>
					<polygon id="SVGID_28_" points="6.68,8.794 6.68,10.416 13.066,10.416 13.066,14.561 14.934,14.561 14.934,10.416 
						21.25,10.416 21.25,8.794 					"/>
				</defs>
				<use xlink:href="#SVGID_28_"  overflow="visible" fill="#FFFFFF"/>
				<clipPath id="SVGID_29_">
					<use xlink:href="#SVGID_28_"  overflow="visible"/>
				</clipPath>
				<rect x="6.68" y="8.794" clip-path="url(#SVGID_29_)" fill="#FFFFFF" width="14.57" height="5.767"/>
			</g>
		</g>
	</g>
	<g>
		<g>
			<g>
				<polygon id="SVGID_17_" fill="#FFFFFF" points="62.725,0 62.725,10.023 55.049,10.023 55.049,6.936 60.534,6.936 60.534,1.095 
					53.182,1.095 53.182,2.736 58.652,2.736 58.652,5.296 53.182,5.296 53.182,10.504 54.337,11.659 62.725,11.659 62.725,14.479 
					64.578,14.479 64.578,7.343 66.727,7.343 66.727,5.703 64.578,5.703 64.578,0 				"/>
			</g>
			<g>
				<defs>
					<polygon id="SVGID_30_" points="62.725,0 62.725,10.023 55.049,10.023 55.049,6.936 60.534,6.936 60.534,1.095 53.182,1.095 
						53.182,2.736 58.652,2.736 58.652,5.296 53.182,5.296 53.182,10.504 54.337,11.659 62.725,11.659 62.725,14.479 64.578,14.479 
						64.578,7.343 66.727,7.343 66.727,5.703 64.578,5.703 64.578,0 					"/>
				</defs>
				<use xlink:href="#SVGID_30_"  overflow="visible" fill="#FFFFFF"/>
				<clipPath id="SVGID_31_">
					<use xlink:href="#SVGID_30_"  overflow="visible"/>
				</clipPath>
				<rect x="53.182" clip-path="url(#SVGID_31_)" fill="#FFFFFF" width="13.544" height="14.479"/>
			</g>
		</g>
	</g>
	<g>
		<g>
			<g>
				<polygon id="SVGID_19_" fill="#FFFFFF" points="25.917,0.305 25.917,3.582 21.745,7.14 22.969,8.572 26.856,5.25 30.747,8.572 
					31.967,7.14 27.798,3.582 27.798,0.305 				"/>
			</g>
			<g>
				<defs>
					<polygon id="SVGID_32_" points="25.917,0.305 25.917,3.582 21.745,7.14 22.969,8.572 26.856,5.25 30.747,8.572 31.967,7.14 
						27.798,3.582 27.798,0.305 					"/>
				</defs>
				<use xlink:href="#SVGID_32_"  overflow="visible" fill="#FFFFFF"/>
				<clipPath id="SVGID_33_">
					<use xlink:href="#SVGID_32_"  overflow="visible"/>
				</clipPath>
				<rect x="21.745" y="0.305" clip-path="url(#SVGID_33_)" fill="#FFFFFF" width="10.222" height="8.267"/>
			</g>
		</g>
	</g>
	<g>
		<g>
			<g>
				<polygon id="SVGID_21_" fill="#FFFFFF" points="77.891,8.378 77.891,9.307 73.085,9.307 73.085,10.883 84.609,10.883 
					84.609,9.307 79.758,9.307 79.758,8.378 				"/>
			</g>
			<g>
				<defs>
					<polygon id="SVGID_34_" points="77.891,8.378 77.891,9.307 73.085,9.307 73.085,10.883 84.609,10.883 84.609,9.307 
						79.758,9.307 79.758,8.378 					"/>
				</defs>
				<use xlink:href="#SVGID_34_"  overflow="visible" fill="#FFFFFF"/>
				<clipPath id="SVGID_35_">
					<use xlink:href="#SVGID_34_"  overflow="visible"/>
				</clipPath>
				<rect x="73.085" y="8.378" clip-path="url(#SVGID_35_)" fill="#FFFFFF" width="11.524" height="2.505"/>
			</g>
		</g>
	</g>
	<g>
		<g>
			<g>
				<polygon id="SVGID_23_" fill="#FFFFFF" points="73.395,0.12 73.395,1.71 77.891,1.71 77.891,2.25 72.909,4.732 73.589,6.1 
					78.824,3.494 84.057,6.1 84.734,4.732 79.758,2.25 79.758,1.71 84.25,1.71 84.25,0.12 				"/>
			</g>
			<g>
				<defs>
					<polygon id="SVGID_36_" points="73.395,0.12 73.395,1.71 77.891,1.71 77.891,2.25 72.909,4.732 73.589,6.1 78.824,3.494 
						84.057,6.1 84.734,4.732 79.758,2.25 79.758,1.71 84.25,1.71 84.25,0.12 					"/>
				</defs>
				<use xlink:href="#SVGID_36_"  overflow="visible" fill="#FFFFFF"/>
				<clipPath id="SVGID_37_">
					<use xlink:href="#SVGID_36_"  overflow="visible"/>
				</clipPath>
				<rect x="72.909" y="0.12" clip-path="url(#SVGID_37_)" fill="#FFFFFF" width="11.825" height="5.979"/>
			</g>
		</g>
	</g>
	<g>
		<g>
			<g>
				<polygon id="SVGID_25_" fill="#FFFFFF" points="97.318,0 97.318,9.807 89.643,9.807 89.643,2.98 95.475,2.98 95.475,1.34 
					87.775,1.34 87.775,10.291 88.932,11.445 97.318,11.445 97.318,14.479 99.171,14.479 99.171,7.343 101.32,7.343 101.32,5.703 
					99.171,5.703 99.171,0 				"/>
			</g>
			<g>
				<defs>
					<polygon id="SVGID_38_" points="97.318,0 97.318,9.807 89.643,9.807 89.643,2.98 95.475,2.98 95.475,1.34 87.775,1.34 
						87.775,10.291 88.932,11.445 97.318,11.445 97.318,14.479 99.171,14.479 99.171,7.343 101.32,7.343 101.32,5.703 99.171,5.703 
						99.171,0 					"/>
				</defs>
				<use xlink:href="#SVGID_38_"  overflow="visible" fill="#FFFFFF"/>
				<clipPath id="SVGID_39_">
					<use xlink:href="#SVGID_38_"  overflow="visible"/>
				</clipPath>
				<rect x="87.775" clip-path="url(#SVGID_39_)" fill="#FFFFFF" width="13.545" height="14.479"/>
			</g>
		</g>
	</g>
</g>
</svg>
