<?xml version="1.0" encoding="utf-8"?>
<!-- Generator: Adobe Illustrator 16.0.0, SVG Export Plug-In . SVG Version: 6.00 Build 0)  -->
<!DOCTYPE svg PUBLIC "-//W3C//DTD SVG 1.1//EN" "http://www.w3.org/Graphics/SVG/1.1/DTD/svg11.dtd">
<svg version="1.1" id="레이어_1" xmlns="http://www.w3.org/2000/svg" xmlns:xlink="http://www.w3.org/1999/xlink" x="0px"
	 y="0px" width="83px" height="17px" viewBox="0 0 83 17" enable-background="new 0 0 83 17" xml:space="preserve">
<g>
	<g>
		<defs>
			<polygon id="SVGID_1_" points="67.877,3.74 67.877,14.914 78.808,14.914 78.808,16.795 66.941,16.795 65.727,15.581 65.727,3.74 
							"/>
		</defs>
		<use xlink:href="#SVGID_1_"  overflow="visible" fill="#FFFFFF"/>
		<clipPath id="SVGID_2_">
			<use xlink:href="#SVGID_1_"  overflow="visible"/>
		</clipPath>
		<rect x="65.727" y="3.74" clip-path="url(#SVGID_2_)" fill="#FFFFFF" width="13.081" height="13.055"/>
	</g>
	<g>
		<defs>
			<rect id="SVGID_3_" x="71.813" width="2.145" height="16.308"/>
		</defs>
		<use xlink:href="#SVGID_3_"  overflow="visible" fill="#FFFFFF"/>
		<clipPath id="SVGID_4_">
			<use xlink:href="#SVGID_3_"  overflow="visible"/>
		</clipPath>
		<rect x="71.813" clip-path="url(#SVGID_4_)" fill="#FFFFFF" width="2.145" height="16.308"/>
	</g>
	<g>
		<defs>
			<rect id="SVGID_5_" x="36.75" y="1.596" width="2.145" height="2.974"/>
		</defs>
		<use xlink:href="#SVGID_5_"  overflow="visible" fill="#FFFFFF"/>
		<clipPath id="SVGID_6_">
			<use xlink:href="#SVGID_5_"  overflow="visible"/>
		</clipPath>
		<rect x="36.75" y="1.596" clip-path="url(#SVGID_6_)" fill="#FFFFFF" width="2.145" height="2.974"/>
	</g>
	<g>
		<defs>
			<polygon id="SVGID_7_" points="25.879,10.152 25.879,0 23.735,0 23.735,8.855 23.735,11.113 25.016,12.256 30.332,17 31.76,15.4 
							"/>
		</defs>
		<use xlink:href="#SVGID_7_"  overflow="visible" fill="#FFFFFF"/>
		<clipPath id="SVGID_8_">
			<use xlink:href="#SVGID_7_"  overflow="visible"/>
		</clipPath>
		<rect x="23.735" clip-path="url(#SVGID_8_)" fill="#FFFFFF" width="8.024" height="17"/>
	</g>
	<g>
		<defs>
			<polygon id="SVGID_9_" points="28.479,10.152 28.479,3.351 30.624,3.351 30.624,8.855 30.624,11.113 29.343,12.256 24.026,17 
				22.599,15.4 			"/>
		</defs>
		<use xlink:href="#SVGID_9_"  overflow="visible" fill="#FFFFFF"/>
		<clipPath id="SVGID_10_">
			<use xlink:href="#SVGID_9_"  overflow="visible"/>
		</clipPath>
		<rect x="22.599" y="3.351" clip-path="url(#SVGID_10_)" fill="#FFFFFF" width="8.025" height="13.649"/>
	</g>
	<g>
		<defs>
			<rect id="SVGID_11_" x="77.897" y="3.742" width="2.144" height="13.053"/>
		</defs>
		<use xlink:href="#SVGID_11_"  overflow="visible" fill="#FFFFFF"/>
		<clipPath id="SVGID_12_">
			<use xlink:href="#SVGID_11_"  overflow="visible"/>
		</clipPath>
		<rect x="77.897" y="3.742" clip-path="url(#SVGID_12_)" fill="#FFFFFF" width="2.144" height="13.053"/>
	</g>
	<g>
		<defs>
			<rect id="SVGID_13_" x="51.494" y="7.974" width="2.145" height="8.821"/>
		</defs>
		<use xlink:href="#SVGID_13_"  overflow="visible" fill="#FFFFFF"/>
		<clipPath id="SVGID_14_">
			<use xlink:href="#SVGID_13_"  overflow="visible"/>
		</clipPath>
		<rect x="51.494" y="7.974" clip-path="url(#SVGID_14_)" fill="#FFFFFF" width="2.145" height="8.821"/>
	</g>
	<g>
		<defs>
			<rect id="SVGID_15_" x="9.393" y="1.969" width="2.145" height="6.389"/>
		</defs>
		<use xlink:href="#SVGID_15_"  overflow="visible" fill="#FFFFFF"/>
		<clipPath id="SVGID_16_">
			<use xlink:href="#SVGID_15_"  overflow="visible"/>
		</clipPath>
		<rect x="9.393" y="1.969" clip-path="url(#SVGID_16_)" fill="#FFFFFF" width="2.145" height="6.389"/>
	</g>
	<g>
		<defs>
			<rect id="SVGID_17_" x="9.393" y="9.733" width="2.145" height="3.822"/>
		</defs>
		<use xlink:href="#SVGID_17_"  overflow="visible" fill="#FFFFFF"/>
		<clipPath id="SVGID_18_">
			<use xlink:href="#SVGID_17_"  overflow="visible"/>
		</clipPath>
		<rect x="9.393" y="9.733" clip-path="url(#SVGID_18_)" fill="#FFFFFF" width="2.145" height="3.822"/>
	</g>
	<g>
		<defs>
			<rect id="SVGID_19_" x="6.133" width="2.145" height="2.201"/>
		</defs>
		<use xlink:href="#SVGID_19_"  overflow="visible" fill="#FFFFFF"/>
		<clipPath id="SVGID_20_">
			<use xlink:href="#SVGID_19_"  overflow="visible"/>
		</clipPath>
		<rect x="6.133" clip-path="url(#SVGID_20_)" fill="#FFFFFF" width="2.145" height="2.201"/>
	</g>
	<g>
		<defs>
			<rect id="SVGID_21_" x="13.053" width="2.145" height="2.201"/>
		</defs>
		<use xlink:href="#SVGID_21_"  overflow="visible" fill="#FFFFFF"/>
		<clipPath id="SVGID_22_">
			<use xlink:href="#SVGID_21_"  overflow="visible"/>
		</clipPath>
		<rect x="13.053" clip-path="url(#SVGID_22_)" fill="#FFFFFF" width="2.145" height="2.201"/>
	</g>
	<g>
		<defs>
			<rect id="SVGID_23_" x="47.354" y="13.16" width="2.145" height="2.85"/>
		</defs>
		<use xlink:href="#SVGID_23_"  overflow="visible" fill="#FFFFFF"/>
		<clipPath id="SVGID_24_">
			<use xlink:href="#SVGID_23_"  overflow="visible"/>
		</clipPath>
		<rect x="47.354" y="13.16" clip-path="url(#SVGID_24_)" fill="#FFFFFF" width="2.145" height="2.85"/>
	</g>
	<g>
		<defs>
			<rect id="SVGID_25_" x="55.634" y="13.16" width="2.146" height="2.85"/>
		</defs>
		<use xlink:href="#SVGID_25_"  overflow="visible" fill="#FFFFFF"/>
		<clipPath id="SVGID_26_">
			<use xlink:href="#SVGID_25_"  overflow="visible"/>
		</clipPath>
		<rect x="55.634" y="13.16" clip-path="url(#SVGID_26_)" fill="#FFFFFF" width="2.146" height="2.85"/>
	</g>
	<g>
		<defs>
			<rect id="SVGID_27_" x="47.086" y="7.85" width="10.961" height="1.756"/>
		</defs>
		<use xlink:href="#SVGID_27_"  overflow="visible" fill="#FFFFFF"/>
		<clipPath id="SVGID_28_">
			<use xlink:href="#SVGID_27_"  overflow="visible"/>
		</clipPath>
		<rect x="47.086" y="7.85" clip-path="url(#SVGID_28_)" fill="#FFFFFF" width="10.961" height="1.756"/>
	</g>
	<g>
		<defs>
			<rect id="SVGID_29_" x="44.496" y="15.04" width="16.141" height="1.755"/>
		</defs>
		<use xlink:href="#SVGID_29_"  overflow="visible" fill="#FFFFFF"/>
		<clipPath id="SVGID_30_">
			<use xlink:href="#SVGID_29_"  overflow="visible"/>
		</clipPath>
		<rect x="44.496" y="15.04" clip-path="url(#SVGID_30_)" fill="#FFFFFF" width="16.141" height="1.755"/>
	</g>
	<g>
		<defs>
			<rect id="SVGID_31_" x="45.122" y="10.744" width="14.888" height="1.756"/>
		</defs>
		<use xlink:href="#SVGID_31_"  overflow="visible" fill="#FFFFFF"/>
		<clipPath id="SVGID_32_">
			<use xlink:href="#SVGID_31_"  overflow="visible"/>
		</clipPath>
		<rect x="45.122" y="10.744" clip-path="url(#SVGID_32_)" fill="#FFFFFF" width="14.888" height="1.756"/>
	</g>
	<g>
		<defs>
			<rect id="SVGID_33_" x="2.958" y="10.582" width="15.012" height="1.754"/>
		</defs>
		<use xlink:href="#SVGID_33_"  overflow="visible" fill="#FFFFFF"/>
		<clipPath id="SVGID_34_">
			<use xlink:href="#SVGID_33_"  overflow="visible"/>
		</clipPath>
		<rect x="2.958" y="10.582" clip-path="url(#SVGID_34_)" fill="#FFFFFF" width="15.012" height="1.754"/>
	</g>
	<g>
		<defs>
			<rect id="SVGID_35_" x="3.426" y="7.572" width="14.078" height="1.756"/>
		</defs>
		<use xlink:href="#SVGID_35_"  overflow="visible" fill="#FFFFFF"/>
		<clipPath id="SVGID_36_">
			<use xlink:href="#SVGID_35_"  overflow="visible"/>
		</clipPath>
		<rect x="3.426" y="7.572" clip-path="url(#SVGID_36_)" fill="#FFFFFF" width="14.078" height="1.756"/>
	</g>
	<g>
		<defs>
			<rect id="SVGID_37_" x="4.411" y="4.563" width="12.107" height="1.755"/>
		</defs>
		<use xlink:href="#SVGID_37_"  overflow="visible" fill="#FFFFFF"/>
		<clipPath id="SVGID_38_">
			<use xlink:href="#SVGID_37_"  overflow="visible"/>
		</clipPath>
		<rect x="4.411" y="4.563" clip-path="url(#SVGID_38_)" fill="#FFFFFF" width="12.107" height="1.755"/>
	</g>
	<g>
		<defs>
			<rect id="SVGID_39_" x="3.426" y="1.554" width="14.078" height="1.755"/>
		</defs>
		<use xlink:href="#SVGID_39_"  overflow="visible" fill="#FFFFFF"/>
		<clipPath id="SVGID_40_">
			<use xlink:href="#SVGID_39_"  overflow="visible"/>
		</clipPath>
		<rect x="3.426" y="1.554" clip-path="url(#SVGID_40_)" fill="#FFFFFF" width="14.078" height="1.755"/>
	</g>
	<g>
		<defs>
			<polygon id="SVGID_41_" points="60.605,7.256 56.516,7.256 47.883,2.569 48.831,1.054 57.078,5.506 60.605,5.506 			"/>
		</defs>
		<use xlink:href="#SVGID_41_"  overflow="visible" fill="#FFFFFF"/>
		<clipPath id="SVGID_42_">
			<use xlink:href="#SVGID_41_"  overflow="visible"/>
		</clipPath>
		<rect x="47.883" y="1.054" clip-path="url(#SVGID_42_)" fill="#FFFFFF" width="12.723" height="6.202"/>
	</g>
	<g>
		<defs>
			<polygon id="SVGID_43_" points="48.617,7.256 44.527,7.256 44.527,5.506 48.054,5.506 56.301,1.054 57.25,2.569 			"/>
		</defs>
		<use xlink:href="#SVGID_43_"  overflow="visible" fill="#FFFFFF"/>
		<clipPath id="SVGID_44_">
			<use xlink:href="#SVGID_43_"  overflow="visible"/>
		</clipPath>
		<rect x="44.527" y="1.054" clip-path="url(#SVGID_44_)" fill="#FFFFFF" width="12.723" height="6.202"/>
	</g>
	<g>
		<defs>
			<polygon id="SVGID_45_" points="46.26,3.494 45.451,1.97 48.82,0.183 51.965,0.183 51.965,1.907 49.249,1.907 			"/>
		</defs>
		<use xlink:href="#SVGID_45_"  overflow="visible" fill="#FFFFFF"/>
		<clipPath id="SVGID_46_">
			<use xlink:href="#SVGID_45_"  overflow="visible"/>
		</clipPath>
		<rect x="45.451" y="0.183" clip-path="url(#SVGID_46_)" fill="#FFFFFF" width="6.514" height="3.311"/>
	</g>
	<g>
		<defs>
			<polygon id="SVGID_47_" points="46.26,3.494 45.45,1.97 48.82,0.183 51.965,0.183 51.965,1.907 49.249,1.907 			"/>
		</defs>
		<use xlink:href="#SVGID_47_"  overflow="visible" fill="#FFFFFF"/>
		<clipPath id="SVGID_48_">
			<use xlink:href="#SVGID_47_"  overflow="visible"/>
		</clipPath>
		<rect x="45.45" y="0.183" clip-path="url(#SVGID_48_)" fill="#FFFFFF" width="6.515" height="3.311"/>
	</g>
	<g>
		<defs>
			<polygon id="SVGID_49_" points="58.873,3.494 55.885,1.907 53.168,1.907 53.168,0.183 56.313,0.183 59.682,1.97 			"/>
		</defs>
		<use xlink:href="#SVGID_49_"  overflow="visible" fill="#FFFFFF"/>
		<clipPath id="SVGID_50_">
			<use xlink:href="#SVGID_49_"  overflow="visible"/>
		</clipPath>
		<rect x="53.168" y="0.183" clip-path="url(#SVGID_50_)" fill="#FFFFFF" width="6.514" height="3.311"/>
	</g>
	<g>
		<defs>
			<polyline id="SVGID_51_" points="11.37,12.688 17.506,15.119 16.786,16.94 10.465,14.436 4.144,16.94 3.424,15.119 9.56,12.688 
							"/>
		</defs>
		<use xlink:href="#SVGID_51_"  overflow="visible" fill="#FFFFFF"/>
		<clipPath id="SVGID_52_">
			<use xlink:href="#SVGID_51_"  overflow="visible"/>
		</clipPath>
		<rect x="3.424" y="12.688" clip-path="url(#SVGID_52_)" fill="#FFFFFF" width="14.082" height="4.252"/>
	</g>
	<g>
		<defs>
			<rect id="SVGID_53_" x="31.631" y="7.897" width="8.304" height="1.88"/>
		</defs>
		<use xlink:href="#SVGID_53_"  overflow="visible" fill="#FFFFFF"/>
		<clipPath id="SVGID_54_">
			<use xlink:href="#SVGID_53_"  overflow="visible"/>
		</clipPath>
		<rect x="31.631" y="7.897" clip-path="url(#SVGID_54_)" fill="#FFFFFF" width="8.304" height="1.88"/>
	</g>
	<g>
		<defs>
			<polygon id="SVGID_55_" points="37.374,3.06 35.874,4.68 34.507,6.155 34.507,8.37 34.507,14.914 33.339,14.914 33.339,16.795 
				35.443,16.795 36.657,15.581 36.657,6.989 38.896,4.57 			"/>
		</defs>
		<use xlink:href="#SVGID_55_"  overflow="visible" fill="#FFFFFF"/>
		<clipPath id="SVGID_56_">
			<use xlink:href="#SVGID_55_"  overflow="visible"/>
		</clipPath>
		<rect x="33.339" y="3.06" clip-path="url(#SVGID_56_)" fill="#FFFFFF" width="5.556" height="13.735"/>
	</g>
	<g>
		<defs>
			<polygon id="SVGID_57_" points="30.624,3.042 29.409,1.829 21.881,1.829 21.881,3.709 30.624,3.709 			"/>
		</defs>
		<use xlink:href="#SVGID_57_"  overflow="visible" fill="#FFFFFF"/>
		<clipPath id="SVGID_58_">
			<use xlink:href="#SVGID_57_"  overflow="visible"/>
		</clipPath>
		<rect x="21.881" y="1.829" clip-path="url(#SVGID_58_)" fill="#FFFFFF" width="8.743" height="1.88"/>
	</g>
	<g>
		<defs>
			<polygon id="SVGID_59_" points="38.896,1.396 37.682,0.183 31.732,0.183 31.732,2.063 38.896,2.063 			"/>
		</defs>
		<use xlink:href="#SVGID_59_"  overflow="visible" fill="#FFFFFF"/>
		<clipPath id="SVGID_60_">
			<use xlink:href="#SVGID_59_"  overflow="visible"/>
		</clipPath>
		<rect x="31.732" y="0.183" clip-path="url(#SVGID_60_)" fill="#FFFFFF" width="7.164" height="1.88"/>
	</g>
</g>
</svg>
