<?xml version="1.0" encoding="utf-8"?>
<!-- Generator: Adobe Illustrator 16.0.0, SVG Export Plug-In . SVG Version: 6.00 Build 0)  -->
<!DOCTYPE svg PUBLIC "-//W3C//DTD SVG 1.1//EN" "http://www.w3.org/Graphics/SVG/1.1/DTD/svg11.dtd">
<svg version="1.1" id="레이어_1" xmlns="http://www.w3.org/2000/svg" xmlns:xlink="http://www.w3.org/1999/xlink" x="0px"
	 y="0px" width="210px" height="65px" viewBox="0 0 210 65" enable-background="new 0 0 210 65" xml:space="preserve">
<path fill="#070001" stroke="#E6B62E" stroke-width="2" d="M28.298,7.826H181.7c14.182,0,25.676,11.495,25.676,25.674v1.281
	c0,14.179-11.494,25.676-25.676,25.676H28.298c-14.18,0-25.675-11.497-25.675-25.676V33.5C2.624,19.321,14.118,7.826,28.298,7.826z"
	/>
<g>
	<path fill="#E6B62E" d="M39.833,39.947c0,2.1,1.095,4.545,3.36,5.595l-1.095,1.56c-1.53-0.703-2.61-2.084-3.225-3.72
		c-0.615,1.8-1.725,3.315-3.3,4.065l-1.11-1.575c2.265-1.05,3.39-3.646,3.39-5.925v-0.766h-2.865v-1.635h7.589v1.635h-2.745
		L39.833,39.947L39.833,39.947z M47.587,43.127h-2.01v6.915h-1.98V36.229h1.98v5.265h2.01V43.127z"/>
	<path fill="#E6B62E" d="M56.528,43.309c-2.055,0.344-3.9,0.389-6.645,0.389h-1.215v-4.199h4.395v-1.064h-4.41v-1.574h6.36v4.108
		h-4.395v1.142c2.28-0.017,3.885-0.075,5.685-0.375L56.528,43.309z M57.473,44.507h1.965v5.37h-9.195v-5.37h1.965v1.171h5.265
		V44.507z M57.473,47.191h-5.265v1.109h5.265V47.191z M59.438,36.229v7.709h-1.995v-7.709H59.438z"/>
	<path fill="#E6B62E" d="M71.197,42.572v1.154h3.705v3.795h-7.515v0.885h7.89v1.529h-9.87v-3.84h7.515v-0.854h-7.53v-1.516h3.825
		v-1.154h-5.25v-1.561h3.24c0.375-1.17,0.465-2.039,0.495-2.806h-2.625v-1.56h4.545v0.914c0,0.899,0,2.056-0.39,3.451h3.42
		c0.315-1.171,0.405-2.07,0.42-2.807h-2.625v-1.561h4.56v0.78c0,0.886,0,2.069-0.375,3.585h1.83v1.561h-5.265V42.572z"/>
	<path fill="#E6B62E" d="M85.178,43.518c-1.695,0.375-3.27,0.449-6.33,0.449h-1.155v-6.645h6.18v1.574h-4.215v3.479
		c2.46-0.015,3.825-0.104,5.325-0.42L85.178,43.518z M81.113,48.227h7.425v1.576h-9.405v-4.636h1.98V48.227z M89.873,39.992v1.619
		h-1.83v4.604h-1.98v-9.989h1.98v3.766H89.873z"/>
	<path fill="#E6B62E" d="M95.708,39.947c0,2.25,1.11,4.635,3.42,5.595l-1.08,1.56c-1.605-0.688-2.7-2.039-3.315-3.703
		c-0.615,1.799-1.725,3.313-3.345,4.049l-1.125-1.574c2.31-1.035,3.435-3.57,3.435-5.926v-0.764h-2.88v-1.636h7.74v1.636h-2.85
		V39.947L95.708,39.947z M101.812,36.229v13.813h-1.98V36.229H101.812z"/>
	<path fill="#E6B62E" d="M112.327,44.042c-1.216-0.42-2.025-1.2-2.507-2.175c-0.479,1.08-1.288,1.965-2.549,2.43l-0.914-1.455
		c1.754-0.675,2.488-2.085,2.488-3.555h-2.1v-1.545h2.1v-1.335h1.875v1.335h2.086v1.545h-2.086c0,1.38,0.766,2.686,2.49,3.3
		L112.327,44.042z M114.382,45.152c0,1.41,1.41,2.925,4.396,3.3l-0.734,1.545c-2.221-0.315-3.811-1.245-4.65-2.521
		c-0.84,1.274-2.444,2.205-4.68,2.521l-0.705-1.545c2.984-0.375,4.395-1.89,4.395-3.3v-0.227h1.98L114.382,45.152L114.382,45.152z
		 M115.236,44.372h-1.829v-7.903h1.829v3.045h1.035v-3.285h1.875v9.344h-1.875v-4.469h-1.035V44.372z"/>
	<path fill="#E6B62E" d="M132.066,42.947v1.56H119.57v-1.56h5.25v-1.096h-3.657v-5.234h1.965v1.17h5.386v-1.17h1.965v5.234h-3.677
		v1.096H132.066z M126.816,45.438c0,1.336,1.365,2.699,4.396,3.045l-0.676,1.516c-2.279-0.301-3.886-1.154-4.726-2.34
		c-0.84,1.186-2.444,2.039-4.725,2.34l-0.674-1.516c3.045-0.346,4.379-1.709,4.379-3.045v-0.226h2.025V45.438L126.816,45.438z
		 M123.128,40.309h5.386v-1.035h-5.386V40.309z"/>
</g>
<g>
	<path fill="#FFFFFF" d="M40.568,21.947c0,2.1,1.095,4.545,3.36,5.595l-1.095,1.56c-1.53-0.705-2.61-2.085-3.225-3.72
		c-0.615,1.8-1.725,3.315-3.3,4.064l-1.11-1.574c2.265-1.05,3.39-3.646,3.39-5.925v-0.766h-2.865v-1.635h7.589v1.635h-2.745
		L40.568,21.947L40.568,21.947z M48.322,25.127h-2.01v6.915h-1.98V18.228h1.98v5.265h2.01V25.127z"/>
	<path fill="#FFFFFF" d="M55.943,26.327c-1.5-0.495-2.52-1.485-3.12-2.73c-0.615,1.38-1.71,2.46-3.285,2.985l-1.05-1.545
		c2.325-0.75,3.3-2.595,3.3-4.485v-1.484h2.01v1.5c0,1.755,0.93,3.494,3.165,4.215L55.943,26.327z M52.658,30.227h7.395v1.576
		h-9.375v-4.426h1.98V30.227z M61.403,22.232v1.635h-1.83v4.47h-1.98V18.228h1.98v4.005L61.403,22.232L61.403,22.232z"/>
	<path fill="#FFFFFF" d="M67.328,27.122c1.98-0.016,3.405-0.12,4.979-0.391l0.195,1.605c-1.86,0.345-3.51,0.405-6.03,0.405h-1.125
		v-9.285h6.255v1.575h-4.275L67.328,27.122L67.328,27.122z M76.297,18.228v13.859h-1.979v-7.5h-3.375v-1.59h3.375v-4.77
		L76.297,18.228L76.297,18.228z"/>
	<path fill="#FFFFFF" d="M82.868,20.268h3v1.574h-8.04v-1.574h3.06v-1.801h1.98V20.268z M85.373,25.907
		c0,1.949-1.485,3.314-3.48,3.314c-2.01,0-3.51-1.365-3.51-3.314c0-1.92,1.5-3.285,3.51-3.285
		C83.888,22.622,85.373,23.987,85.373,25.907z M83.498,25.907c0-1.035-0.675-1.681-1.605-1.681s-1.62,0.646-1.62,1.695
		c0,1.049,0.69,1.68,1.62,1.68C82.823,27.602,83.498,26.972,83.498,25.907z M90.727,25.262h-1.979v6.78h-1.98V18.228h1.98v5.399
		h1.979V25.262z"/>
	<path fill="#FFFFFF" d="M103.612,28.787v1.59H91.118v-1.59h4.41v-4.755h1.98v4.755H103.612z M99.877,27.122
		c0.525-2.61,0.555-4.53,0.555-6.135h-8.055v-1.575h10.035v1.32c0,1.725,0,3.675-0.555,6.614L99.877,27.122z"/>
	<path fill="#FFFFFF" d="M119.616,27.752h-5.31v4.305h-1.979v-4.305h-5.222v-1.575h12.511V27.752z M118.132,24.872h-9.6v-6.12h1.965
		v1.575h5.687v-1.575h1.948V24.872L118.132,24.872z M116.184,21.872h-5.687v1.425h5.687V21.872z"/>
	<path fill="#FFFFFF" d="M124.598,22.382c0,2.085,0.704,4.2,2.653,5.235l-1.049,1.47c-1.229-0.646-2.025-1.74-2.521-3.045
		c-0.466,1.439-1.273,2.655-2.521,3.359l-1.109-1.484c1.966-1.14,2.671-3.405,2.671-5.535v-0.225h-2.205v-1.605h2.205v-1.875h1.875
		v1.875h2.188v1.605h-2.188V22.382z M132.262,18.212v13.815h-1.875v-6.9h-1.125v6.285h-1.845V18.438h1.845v5.069h1.125v-5.295
		H132.262z"/>
	<path fill="#FFFFFF" d="M143.542,25.262v0.87h3.733v3.555h-7.561v0.78h7.92v1.471h-9.885v-3.601h7.574v-0.765h-7.588v-1.44h3.824
		v-0.87h-5.25v-1.545h12.479v1.545H143.542z M136.866,21.857c2.52-0.165,3.899-0.915,4.35-1.726h-3.764v-1.545h10.215v1.545H143.9
		c0.437,0.811,1.8,1.561,4.334,1.726l-0.6,1.484c-2.535-0.18-4.275-0.975-5.084-2.13c-0.811,1.141-2.535,1.95-5.07,2.13
		L136.866,21.857z"/>
	<path fill="#FFFFFF" d="M157.161,24.107c0,3.045-1.545,4.949-3.629,4.949c-2.087,0-3.632-1.904-3.632-4.949
		c0-3.03,1.545-4.92,3.632-4.92C155.616,19.188,157.161,21.077,157.161,24.107z M151.807,24.107c0,2.055,0.705,3.149,1.727,3.149
		c1.02,0,1.725-1.095,1.725-3.149c0-2.04-0.705-3.136-1.725-3.136C152.512,20.972,151.807,22.067,151.807,24.107z M160.956,18.212
		v13.86h-1.979v-13.86H160.956z"/>
	<path fill="#FFFFFF" d="M175.223,24.947v1.59h-12.511v-1.59H175.223z M166.116,30.167h7.801v1.59h-9.795v-4.125h1.994V30.167z
		 M173.841,23.537h-9.584v-4.814h1.979v3.239h7.604V23.537z"/>
	<path fill="#FFFFFF" d="M140.48,40.053c0,1.904-1.604,3.27-3.75,3.27c-2.145,0-3.764-1.364-3.764-3.27
		c0-1.891,1.619-3.255,3.764-3.255C138.878,36.798,140.48,38.162,140.48,40.053z M134.9,40.053c0,1.034,0.781,1.635,1.83,1.635
		c1.052,0,1.816-0.601,1.816-1.635c0-1.006-0.766-1.619-1.816-1.619C135.684,38.434,134.9,39.047,134.9,40.053z M137.032,44.252
		v1.29h5.25v-1.29h1.965v5.625h-9.181v-5.625H137.032z M137.032,48.316h5.25v-1.26h-5.25V48.316z M144.247,36.229v7.424h-1.994
		v-7.424H144.247z"/>
	<path fill="#FFFFFF" d="M148.657,44.941c1.813-0.045,3.778-0.194,5.805-0.601l0.209,1.65c-2.354,0.495-4.649,0.646-6.75,0.646
		h-1.229v-9.104h1.966V44.941L148.657,44.941z M157.507,36.213v13.814h-1.979V36.213H157.507z"/>
	<path fill="#FFFFFF" d="M161.677,45.107c1.966-0.03,3.601-0.137,5.386-0.437l0.194,1.636c-2.086,0.375-3.975,0.449-6.375,0.449
		h-1.187v-9.255h6.451v1.604h-4.471L161.677,45.107L161.677,45.107z M171.997,42.962h-2.011v7.11h-1.979V36.229h1.979v5.1h2.011
		V42.962z"/>
	<path fill="#FFFFFF" d="M172.792,47.521c0-0.811,0.586-1.439,1.365-1.439c0.795,0,1.379,0.63,1.379,1.439
		c0,0.811-0.584,1.439-1.379,1.439C173.378,48.962,172.792,48.332,172.792,47.521z"/>
</g>
</svg>
