<?xml version="1.0" encoding="utf-8"?>
<!-- Generator: Adobe Illustrator 16.0.0, SVG Export Plug-In . SVG Version: 6.00 Build 0)  -->
<!DOCTYPE svg PUBLIC "-//W3C//DTD SVG 1.1//EN" "http://www.w3.org/Graphics/SVG/1.1/DTD/svg11.dtd">
<svg version="1.1" id="레이어_1" xmlns="http://www.w3.org/2000/svg" xmlns:xlink="http://www.w3.org/1999/xlink" x="0px"
	 y="0px" width="267px" height="68px" viewBox="0 0 267 68" enable-background="new 0 0 267 68" xml:space="preserve">
<g>
	<path fill="#1D1D1B" d="M82.265,58.51h5.971l1.359,1.359v2.666l-0.544,0.557l0.966,0.98v2.488l-1.469,1.469h-6.283V58.51z
		 M87.284,62.494l0.489-0.49v-1.469l-0.476-0.477h-3.223v2.436H87.284z M87.61,66.479l0.585-0.586v-1.332l-0.585-0.584h-3.536v2.502
		H87.61z"/>
	<polygon fill="#1D1D1B" points="91.513,66.396 91.513,58.508 93.363,58.508 93.363,65.758 94.056,66.451 96.722,66.451 
		97.415,65.758 97.415,58.508 99.265,58.508 99.265,66.396 97.633,68.029 93.145,68.029 	"/>
	<polygon fill="#1D1D1B" points="100.964,66.561 100.964,65.199 102.786,65.199 102.786,66.002 103.235,66.451 106.05,66.451 
		106.512,65.988 106.512,64.41 106.064,63.963 102.46,63.963 100.991,62.494 100.991,59.979 102.46,58.51 106.757,58.51 
		108.227,59.979 108.227,61.352 106.403,61.352 106.403,60.535 105.956,60.088 103.262,60.088 102.813,60.535 102.813,61.936 
		103.262,62.385 106.866,62.385 108.335,63.854 108.335,66.533 106.839,68.029 102.434,68.029 	"/>
	<path fill="#1D1D1B" d="M112.361,58.508h1.686l3.482,9.521h-1.877l-0.775-2.109h-3.346l-0.775,2.109h-1.877L112.361,58.508z
		 M114.469,64.398l-1.265-3.617h-0.027l-1.224,3.617H114.469z"/>
	<polygon fill="#1D1D1B" points="118.616,58.51 120.275,58.51 124.518,64.969 124.545,64.969 124.545,58.51 126.327,58.51 
		126.327,68.029 124.668,68.029 120.425,61.582 120.398,61.582 120.398,68.029 118.616,68.029 	"/>
	<polygon fill="#1D1D1B" points="132.066,58.51 133.78,58.51 136.608,64.656 136.635,64.656 139.478,58.51 141.19,58.51 
		141.19,68.029 139.409,68.029 139.409,62.234 139.383,62.234 137.192,66.695 136.051,66.695 133.875,62.234 133.848,62.234 
		133.848,68.029 132.066,68.029 	"/>
	<polygon fill="#1D1D1B" points="143.095,58.51 149.976,58.51 149.976,60.072 144.944,60.072 144.944,62.48 149.582,62.48 
		149.582,64.018 144.944,64.018 144.944,66.465 149.976,66.465 149.976,68.029 143.095,68.029 	"/>
	<polygon fill="#1D1D1B" points="153.634,60.072 150.792,60.072 150.792,58.51 158.326,58.51 158.326,60.072 155.483,60.072 
		155.483,68.029 153.634,68.029 	"/>
	<path fill="#1D1D1B" d="M167.029,64.873v3.156h-1.851v-2.734l-0.815-0.912h-2.964v3.646h-1.85v-9.521h5.971l1.455,1.471v2.883
		l-0.926,0.938L167.029,64.873z M161.399,62.861h3.277l0.476-0.477v-1.85l-0.476-0.475h-3.277V62.861z"/>
	<path fill="#1D1D1B" d="M168.729,66.465v-6.393l1.563-1.563h4.896l1.564,1.563v6.393l-1.564,1.564h-4.896L168.729,66.465z
		 M174.21,66.451l0.693-0.693v-4.979l-0.693-0.693h-2.938l-0.693,0.693v4.979l0.693,0.693H174.21z"/>
	<path fill="#1D1D1B" d="M178.521,58.508h5.971l1.455,1.471v3.332l-1.47,1.48h-4.105v3.238h-1.851V58.508z M183.648,63.242
		l0.476-0.477v-2.23l-0.476-0.475h-3.277v3.182H183.648z"/>
	<path fill="#1D1D1B" d="M187.306,66.465v-6.393l1.563-1.563h4.896l1.563,1.563v6.393l-1.563,1.564h-4.896L187.306,66.465z
		 M192.786,66.451l0.693-0.693v-4.979l-0.693-0.693h-2.937l-0.694,0.693v4.979l0.694,0.693H192.786z"/>
	<polygon fill="#1D1D1B" points="197.098,58.51 198.947,58.51 198.947,66.465 203.706,66.465 203.706,68.029 197.098,68.029 	"/>
	<rect x="204.931" y="58.51" fill="#1D1D1B" width="1.849" height="9.52"/>
	<polygon fill="#1D1D1B" points="210.914,60.072 208.072,60.072 208.072,58.51 215.606,58.51 215.606,60.072 212.764,60.072 
		212.764,68.029 210.914,68.029 	"/>
	<path fill="#1D1D1B" d="M218.271,58.508h1.687l3.481,9.521h-1.877l-0.774-2.109h-3.347l-0.774,2.109h-1.876L218.271,58.508z
		 M220.38,64.398l-1.265-3.617h-0.027l-1.224,3.617H220.38z"/>
	<polygon fill="#1D1D1B" points="224.527,58.51 226.187,58.51 230.429,64.969 230.456,64.969 230.456,58.51 232.238,58.51 
		232.238,68.029 230.579,68.029 226.336,61.582 226.31,61.582 226.31,68.029 224.527,68.029 	"/>
	<polygon fill="#1D1D1B" points="237.841,66.465 237.841,60.072 239.404,58.508 244.056,58.508 245.593,60.045 245.593,61.5 
		243.742,61.5 243.742,60.727 243.104,60.086 240.384,60.086 239.69,60.781 239.69,65.758 240.384,66.451 243.104,66.451 
		243.742,65.813 243.742,65.037 245.593,65.037 245.593,66.492 244.056,68.029 239.404,68.029 	"/>
	<rect x="247.088" y="58.51" fill="#1D1D1B" width="1.85" height="9.52"/>
	<polygon fill="#1D1D1B" points="253.072,60.072 250.229,60.072 250.229,58.51 257.764,58.51 257.764,60.072 254.921,60.072 
		254.921,68.029 253.072,68.029 	"/>
	<polygon fill="#1D1D1B" points="261.49,64.139 258.104,58.51 260.13,58.51 262.4,62.412 262.428,62.412 264.699,58.51 
		266.726,58.51 263.339,64.139 263.339,68.027 261.49,68.027 	"/>
	<path fill="#1D1D1B" d="M47.045,39.139l21.256-21.255L50.619,0.201H-0.14v67.842h50.759l18.078-18.078L47.045,39.139z
		 M64.219,17.884L44.324,37.777L5.068,18.15L49.629,3.299L64.219,17.884z M3.115,3.091h38.004h0.003L3.115,15.76V3.091z
		 M3.115,20.403l41.777,20.888h0.001l17.228,8.615l0.002,0.002L3.115,64.658V20.403z M49.421,65.152H13.033l48.52-12.127
		L49.421,65.152z"/>
	<path fill="#1D1D1B" d="M110.253,32.714V13.753h-4.759v5.813H88.908v-5.813h-4.759v16.291l2.671,2.67H110.253z M88.908,23.702
		h16.586v4.917H88.908V23.702z"/>
	<polygon fill="#1D1D1B" points="78.543,40.313 94.821,40.313 94.821,50.875 99.58,50.875 99.58,40.313 115.693,40.313 
		115.693,36.176 78.543,36.176 	"/>
	<polygon fill="#1D1D1B" points="149.038,13.753 144.321,13.753 144.321,41.475 149.038,41.475 149.038,27.563 154.521,27.563 
		154.521,23.429 149.038,23.429 	"/>
	<polygon fill="#1D1D1B" points="128.482,38.059 123.723,38.059 123.723,48.203 126.395,50.875 149.868,50.875 149.868,46.738 
		128.482,46.738 	"/>
	<polygon fill="#1D1D1B" points="189.21,13.753 184.493,13.753 184.493,30.059 170.448,30.059 170.448,22.806 165.689,22.806 
		165.689,30.059 157.264,30.059 157.264,34.153 184.493,34.153 184.493,36.219 189.21,36.219 189.21,26.691 194.69,26.691 
		194.69,22.557 189.21,22.557 	"/>
	<polygon fill="#1D1D1B" points="202.416,37.588 202.416,41.725 225.09,41.725 225.09,50.875 229.848,50.875 229.848,40.26 
		227.178,37.588 	"/>
	<rect x="262.004" y="13.753" fill="#1D1D1B" width="4.718" height="37.122"/>
	<polygon fill="#1D1D1B" points="175.615,28.311 180.333,28.311 180.333,17.794 177.663,15.123 159.602,15.123 159.602,19.218 
		175.615,19.218 	"/>
	<path fill="#1D1D1B" d="M175.942,36.443c-8.791-0.016-14.076,2.629-14.086,7.613c-0.01,4.988,5.268,7.65,14.057,7.668
		c8.791,0.018,14.076-2.627,14.086-7.613C190.009,39.123,184.731,36.461,175.942,36.443 M175.918,47.652
		c-5.802-0.008-9.285-1.252-9.278-3.58c0.006-2.328,3.495-3.564,9.299-3.557c5.801,0.008,9.284,1.252,9.277,3.582
		C185.21,46.424,181.721,47.66,175.918,47.652"/>
	<path fill="#1D1D1B" d="M216.614,30.721h8.517v5.596h4.718V13.753h-4.718v4.36h-8.686c-1.856-2.291-4.76-3.691-8.188-3.691
		c-5.987,0-10.378,4.267-10.378,10.101s4.391,10.102,10.378,10.102C211.791,34.624,214.767,33.137,216.614,30.721 M225.131,22.124
		v4.585h-6.712c0.142-0.698,0.217-1.429,0.217-2.187c0-0.835-0.093-1.636-0.264-2.398H225.131z M202.586,24.522
		c0-3.404,2.399-5.895,5.672-5.895s5.672,2.49,5.672,5.895c0,3.405-2.399,5.896-5.672,5.896S202.586,27.928,202.586,24.522"/>
	<polygon fill="#1D1D1B" points="248.929,14.525 243.937,14.525 243.937,29.389 233.492,41.145 237.081,44.334 246.424,33.816 
		255.767,44.334 259.355,41.145 248.929,29.407 	"/>
	<polygon fill="#1D1D1B" points="139.899,35.607 143.017,31.957 132.482,22.961 132.482,14.525 127.489,14.525 127.489,22.961 
		116.955,31.957 120.072,35.607 129.985,27.142 	"/>
</g>
</svg>
