<?xml version="1.0" encoding="utf-8"?>
<!-- Generator: Adobe Illustrator 16.0.0, SVG Export Plug-In . SVG Version: 6.00 Build 0)  -->
<!DOCTYPE svg PUBLIC "-//W3C//DTD SVG 1.1//EN" "http://www.w3.org/Graphics/SVG/1.1/DTD/svg11.dtd">
<svg version="1.1" id="레이어_1" xmlns="http://www.w3.org/2000/svg" xmlns:xlink="http://www.w3.org/1999/xlink" x="0px"
	 y="0px" width="295px" height="76px" viewBox="0 0 295 76" enable-background="new 0 0 295 76" xml:space="preserve">
<g>
	<path fill="#595153" d="M120.477,36.124V15.057h-5.288v6.46H96.76v-6.46h-5.287v18.1l2.967,2.967H120.477z M96.76,26.112h18.429
		v5.463H96.76V26.112z"/>
	<polygon fill="#595153" points="85.244,44.568 103.331,44.568 103.331,56.303 108.619,56.303 108.619,44.568 126.521,44.568 
		126.521,39.973 85.244,39.973 	"/>
	<polygon fill="#595153" points="163.571,15.057 158.329,15.057 158.329,45.859 163.571,45.859 163.571,30.403 169.662,30.403 
		169.662,25.808 163.571,25.808 	"/>
	<polygon fill="#595153" points="140.731,42.064 135.444,42.064 135.444,53.336 138.412,56.303 164.494,56.303 164.494,51.707 
		140.731,51.707 	"/>
	<polygon fill="#595153" points="208.206,15.057 202.965,15.057 202.965,33.174 187.361,33.174 187.361,25.115 182.073,25.115 
		182.073,33.174 172.711,33.174 172.711,37.724 202.965,37.724 202.965,40.02 208.206,40.02 208.206,29.434 214.298,29.434 
		214.298,24.839 208.206,24.839 	"/>
	<polygon fill="#595153" points="222.88,41.541 222.88,46.137 248.073,46.137 248.073,56.303 253.361,56.303 253.361,44.508 
		250.394,41.541 	"/>
	<rect x="289.089" y="15.057" fill="#595153" width="5.242" height="41.246"/>
	<polygon fill="#595153" points="193.102,31.232 198.343,31.232 198.343,19.546 195.376,16.58 175.309,16.58 175.309,21.128 
		193.102,21.128 	"/>
	<path fill="#595153" d="M193.466,40.27c-9.77-0.018-15.642,2.92-15.651,8.459c-0.011,5.543,5.853,8.502,15.617,8.521
		c9.77,0.018,15.641-2.922,15.652-8.459C209.095,43.248,203.23,40.289,193.466,40.27 M193.438,52.725
		c-6.445-0.01-10.315-1.391-10.309-3.979s3.883-3.961,10.331-3.951c6.446,0.008,10.315,1.391,10.309,3.979
		C203.762,51.359,199.886,52.732,193.438,52.725"/>
	<path fill="#595153" d="M238.656,33.909h9.463v6.22h5.242V15.057h-5.242v4.845h-9.65c-2.063-2.545-5.289-4.101-9.098-4.101
		c-6.652,0-11.531,4.74-11.531,11.223c0,6.482,4.879,11.223,11.531,11.223C233.297,38.247,236.604,36.595,238.656,33.909
		 M248.119,24.358v5.094h-7.458c0.158-0.776,0.241-1.588,0.241-2.429c0-0.927-0.104-1.818-0.294-2.665H248.119z M223.069,27.023
		c0-3.783,2.665-6.55,6.302-6.55c3.636,0,6.302,2.767,6.302,6.55s-2.666,6.55-6.302,6.55
		C225.734,33.573,223.069,30.807,223.069,27.023"/>
	<polygon fill="#595153" points="274.562,15.915 269.014,15.915 269.014,32.43 257.409,45.494 261.397,49.035 271.778,37.35 
		282.159,49.035 286.147,45.494 274.562,32.451 	"/>
	<polygon fill="#595153" points="153.417,39.34 156.881,35.284 145.176,25.288 145.176,15.915 139.628,15.915 139.628,25.288 
		127.923,35.284 131.387,39.34 142.402,29.934 	"/>
	<path fill="#595153" d="M89.378,64.787h6.634l1.511,1.51v2.963l-0.604,0.619l1.072,1.088v2.766l-1.631,1.633h-6.982V64.787z
		 M94.955,69.215l0.544-0.545v-1.631L94.97,66.51h-3.581v2.705H94.955z M95.318,73.641l0.65-0.648V71.51l-0.65-0.648h-3.929v2.779
		H95.318z"/>
	<polygon fill="#595153" points="99.654,73.551 99.654,64.787 101.709,64.787 101.709,72.842 102.48,73.611 105.441,73.611 
		106.212,72.842 106.212,64.787 108.267,64.787 108.267,73.551 106.454,75.363 101.467,75.363 	"/>
	<polygon fill="#595153" points="110.156,73.732 110.156,72.221 112.181,72.221 112.181,73.111 112.679,73.611 115.807,73.611 
		116.321,73.098 116.321,71.346 115.822,70.846 111.818,70.846 110.186,69.215 110.186,66.418 111.818,64.787 116.593,64.787 
		118.225,66.418 118.225,67.945 116.2,67.945 116.2,67.039 115.702,66.539 112.71,66.539 112.211,67.039 112.211,68.594 
		112.71,69.094 116.714,69.094 118.346,70.725 118.346,73.703 116.684,75.363 111.788,75.363 	"/>
	<path fill="#595153" d="M122.819,64.787h1.873l3.869,10.578h-2.086l-0.861-2.342h-3.717l-0.861,2.342h-2.086L122.819,64.787z
		 M125.161,71.33l-1.405-4.02h-0.031l-1.36,4.02H125.161z"/>
	<polygon fill="#595153" points="129.769,64.787 131.612,64.787 136.327,71.965 136.357,71.965 136.357,64.787 138.337,64.787 
		138.337,75.363 136.493,75.363 131.779,68.201 131.749,68.201 131.749,75.363 129.769,75.363 	"/>
	<polygon fill="#595153" points="144.713,64.787 146.617,64.787 149.76,71.617 149.79,71.617 152.948,64.787 154.852,64.787 
		154.852,75.363 152.873,75.363 152.873,68.926 152.844,68.926 150.41,73.883 149.141,73.883 146.723,68.926 146.693,68.926 
		146.693,75.363 144.713,75.363 	"/>
	<polygon fill="#595153" points="156.968,64.787 164.613,64.787 164.613,66.525 159.022,66.525 159.022,69.199 164.176,69.199 
		164.176,70.906 159.022,70.906 159.022,73.627 164.613,73.627 164.613,75.363 156.968,75.363 	"/>
	<polygon fill="#595153" points="168.678,66.525 165.521,66.525 165.521,64.787 173.891,64.787 173.891,66.525 170.733,66.525 
		170.733,75.365 168.678,75.365 	"/>
	<path fill="#595153" d="M183.563,71.857v3.506h-2.057v-3.037l-0.906-1.012h-3.293v4.049h-2.056V64.787h6.633l1.617,1.633v3.201
		l-1.027,1.043L183.563,71.857z M177.307,69.621h3.641l0.529-0.527v-2.057l-0.529-0.527h-3.641V69.621z"/>
	<path fill="#595153" d="M185.45,73.627v-7.104l1.738-1.736h5.439l1.738,1.736v7.104l-1.738,1.736h-5.439L185.45,73.627z
		 M191.54,73.611l0.771-0.771v-5.529l-0.771-0.771h-3.264l-0.771,0.771v5.529l0.771,0.771H191.54z"/>
	<path fill="#595153" d="M196.33,64.787h6.634l1.617,1.631v3.703l-1.632,1.646h-4.563v3.596h-2.056V64.787z M202.027,70.045
		l0.528-0.529v-2.477l-0.528-0.529h-3.642v3.535H202.027z"/>
	<path fill="#595153" d="M206.091,73.627v-7.104l1.738-1.736h5.439l1.738,1.736v7.104l-1.738,1.736h-5.439L206.091,73.627z
		 M212.181,73.611l0.771-0.771v-5.529l-0.771-0.771h-3.264l-0.771,0.771v5.529l0.771,0.771H212.181z"/>
	<polygon fill="#595153" points="216.971,64.787 219.025,64.787 219.025,73.627 224.314,73.627 224.314,75.363 216.971,75.363 	"/>
	<rect x="225.674" y="64.787" fill="#595153" width="2.056" height="10.576"/>
	<polygon fill="#595153" points="232.323,66.525 229.165,66.525 229.165,64.787 237.536,64.787 237.536,66.525 234.378,66.525 
		234.378,75.365 232.323,75.365 	"/>
	<path fill="#595153" d="M240.498,64.787h1.873l3.869,10.578h-2.086l-0.861-2.342h-3.717l-0.861,2.342h-2.086L240.498,64.787z
		 M242.84,71.33l-1.405-4.02h-0.03l-1.36,4.02H242.84z"/>
	<polygon fill="#595153" points="247.448,64.787 249.292,64.787 254.006,71.965 254.036,71.965 254.036,64.787 256.016,64.787 
		256.016,75.363 254.172,75.363 249.458,68.201 249.428,68.201 249.428,75.363 247.448,75.363 	"/>
	<polygon fill="#595153" points="262.24,73.627 262.24,66.523 263.979,64.787 269.146,64.787 270.854,66.494 270.854,68.111 
		268.799,68.111 268.799,67.25 268.089,66.539 265.066,66.539 264.296,67.311 264.296,72.84 265.066,73.611 268.089,73.611 
		268.799,72.9 268.799,72.039 270.854,72.039 270.854,73.656 269.146,75.365 263.979,75.365 	"/>
	<rect x="272.517" y="64.787" fill="#595153" width="2.055" height="10.576"/>
	<polygon fill="#595153" points="279.164,66.525 276.007,66.525 276.007,64.787 284.378,64.787 284.378,66.525 281.22,66.525 
		281.22,75.365 279.164,75.365 	"/>
	<polygon fill="#595153" points="288.518,71.043 284.755,64.787 287.007,64.787 289.529,69.123 289.561,69.123 292.084,64.787 
		294.335,64.787 290.572,71.043 290.572,75.365 288.518,75.365 	"/>
	<g>
		<g>
			<g>
				<linearGradient id="SVGID_1_" gradientUnits="userSpaceOnUse" x1="2.104" y1="81.3184" x2="75.8794" y2="62.7455">
					<stop  offset="0.25" style="stop-color:#0085CD"/>
					<stop  offset="0.8" style="stop-color:#5F1985"/>
				</linearGradient>
				<polygon fill="url(#SVGID_1_)" points="0,74.787 56.09,74.787 74.787,56.09 				"/>
				<g>
					<linearGradient id="SVGID_2_" gradientUnits="userSpaceOnUse" x1="-2.6934" y1="10.2373" x2="53.3345" y2="-8.2323">
						<stop  offset="0.2" style="stop-color:#E3007F"/>
						<stop  offset="0.546" style="stop-color:#A00D82"/>
						<stop  offset="0.9" style="stop-color:#5F1985"/>
					</linearGradient>
					<polygon fill="url(#SVGID_2_)" points="0,0 0,18.697 56.09,0 					"/>
					<g>
						<linearGradient id="SVGID_3_" gradientUnits="userSpaceOnUse" x1="0.353" y1="21.8125" x2="74.7475" y2="21.8125">
							<stop  offset="0.1" style="stop-color:#EA6DA4"/>
							<stop  offset="0.2003" style="stop-color:#E95C9E"/>
							<stop  offset="0.6081" style="stop-color:#E51A88"/>
							<stop  offset="0.8" style="stop-color:#E3007F"/>
						</linearGradient>
						<polygon fill="url(#SVGID_3_)" points="49.857,43.625 74.787,18.697 56.09,0 0,18.697 49.857,43.625 						"/>
						<linearGradient id="SVGID_4_" gradientUnits="userSpaceOnUse" x1="-6.0352" y1="64.333" x2="43.699" y2="33.4814">
							<stop  offset="0" style="stop-color:#5F1985"/>
							<stop  offset="0.5" style="stop-color:#E3007F"/>
							<stop  offset="0.58" style="stop-color:#E30681"/>
							<stop  offset="0.6865" style="stop-color:#E41787"/>
							<stop  offset="0.8079" style="stop-color:#E63290"/>
							<stop  offset="0.9393" style="stop-color:#E9599D"/>
							<stop  offset="1" style="stop-color:#EA6DA4"/>
						</linearGradient>
						<polygon fill="url(#SVGID_4_)" points="0,18.697 0,74.787 74.787,56.09 						"/>
					</g>
				</g>
			</g>
		</g>
		<linearGradient id="SVGID_5_" gradientUnits="userSpaceOnUse" x1="28.9814" y1="47.9141" x2="34.6977" y2="28.0576">
			<stop  offset="0.15" style="stop-color:#888888"/>
			<stop  offset="1" style="stop-color:#888888;stop-opacity:0"/>
		</linearGradient>
		<polygon fill="url(#SVGID_5_)" points="56.09,0 0,18.697 49.857,43.625 74.787,18.697 		"/>
	</g>
</g>
</svg>
