<?xml version="1.0" encoding="utf-8"?>
<!-- Generator: Adobe Illustrator 16.0.0, SVG Export Plug-In . SVG Version: 6.00 Build 0)  -->
<!DOCTYPE svg PUBLIC "-//W3C//DTD SVG 1.1//EN" "http://www.w3.org/Graphics/SVG/1.1/DTD/svg11.dtd">
<svg version="1.1" id="레이어_1" xmlns="http://www.w3.org/2000/svg" xmlns:xlink="http://www.w3.org/1999/xlink" x="0px"
	 y="0px" width="66.755px" height="55.878px" viewBox="0 0 66.755 55.878" enable-background="new 0 0 66.755 55.878"
	 xml:space="preserve">
<g>
	<path fill-rule="evenodd" clip-rule="evenodd" fill="#fff" d="M28.142,19.796c-0.407,0-0.81-0.029-1.199-0.09
		c-1.067-0.16-2.529-0.494-3.43-1.174l-0.214-0.159c-0.599-0.444-1.165-0.864-1.331-1.603c-0.087-0.395-0.035-0.801,0.136-1.061
		c0.104-0.16,0.252-0.26,0.442-0.296c0.083-0.017,0.17-0.022,0.262-0.022c0.284,0,0.642,0.066,0.981,0.182
		c0.43,0.184,0.848,0.424,1.253,0.656c0.907,0.525,1.842,1.067,3.08,1.07c1.272,0,2.938-0.532,3.961-1.266
		c0.262-0.188,0.496-0.406,0.729-0.625c0.214-0.204,0.422-0.4,0.656-0.57l0.186-0.129c1.481-1,3.212-1.543,5.292-1.662
		c0.106-0.007,0.21-0.01,0.313-0.01c1.391,0,2.577,0.521,4.042,1.359c1.315,0.754,1.92,1.477,1.851,2.209
		c-0.056,0.602-0.398,0.988-1.078,1.221c-0.491-0.012-0.892-0.173-1.362-0.562c-1.199-0.988-2.65-1.532-4.087-1.532
		c-0.663,0-1.314,0.113-1.936,0.339c-0.833,0.3-1.525,0.796-2.195,1.276c-0.515,0.369-1.04,0.746-1.608,1.021l-0.531,0.262
		c-0.764,0.381-1.486,0.74-2.298,0.936C29.433,19.72,28.789,19.796,28.142,19.796z"/>
	<path fill-rule="evenodd" clip-rule="evenodd" fill="#fff" d="M28.035,42.839c-0.457,0-0.921-0.039-1.377-0.117
		c-0.864-0.148-1.759-0.504-2.735-1.088l-0.163-0.1c-0.724-0.426-1.544-0.91-1.845-1.646c-0.244-1.182-0.096-1.387,0.596-1.691
		c0.106-0.047,0.219-0.068,0.342-0.068c0.563,0,1.241,0.465,1.84,0.875c0.332,0.227,0.672,0.461,0.973,0.594
		c0.697,0.309,1.444,0.482,2.219,0.516c0.099,0.004,0.2,0.006,0.3,0.006c1.443,0,2.919-0.48,4.155-1.354
		c0.386-0.273,0.735-0.621,1.016-0.9c0.387-0.381,0.746-0.734,1.16-0.975c1.175-0.684,2.629-1.059,4.095-1.059
		c0.635,0,1.265,0.07,1.873,0.207c1.688,0.387,3.171,1.217,4.41,2.465c0.432,0.668,0.44,1.203,0.019,1.721
		c-0.258,0.314-0.578,0.469-0.979,0.469c-0.12,0-0.245-0.014-0.373-0.039c-0.099-0.018-0.175-0.074-0.272-0.203l-0.477-0.459
		c-0.082-0.082-0.181-0.121-0.247-0.148c-1.274-0.805-2.676-1.23-4.048-1.23c-0.638,0-1.249,0.096-1.815,0.285
		c-1.029,0.35-1.873,1.004-2.689,1.635l-0.44,0.34C31.873,42.158,29.958,42.837,28.035,42.839L28.035,42.839z"/>
	<path fill-rule="evenodd" clip-rule="evenodd" fill="#fff" d="M38.645,19.875c-0.146,0-0.29-0.037-0.428-0.109
		c-0.065-0.034-0.126-0.076-0.184-0.123c-0.283-0.227-0.463-0.578-0.486-0.943c-0.011-0.212,0.028-0.52,0.282-0.779
		c0.257-0.264,0.531-0.396,0.814-0.396c0.202,0,0.415,0.066,0.634,0.199c0.59,0.356,0.569,0.982,0.353,1.45
		C39.434,19.599,39.047,19.875,38.645,19.875z"/>
	<path fill-rule="evenodd" clip-rule="evenodd" fill="#fff" d="M28.242,15.582c-0.542,0-1.088-0.354-1.299-0.844
		c-0.316-0.738,0.233-1.17,0.484-1.321c0.277-0.167,0.653-0.266,1.004-0.266c0.36,0,0.656,0.106,0.833,0.298
		c0.3,0.326,0.259,0.758,0.207,0.987c-0.104,0.479-0.429,0.908-0.809,1.065C28.531,15.554,28.389,15.582,28.242,15.582z"/>
	<path fill-rule="evenodd" clip-rule="evenodd" fill="#fff" d="M43.855,34.287c-0.695,0-1.23-0.701-1.292-1.357
		c-0.051-0.533,0.415-0.98,0.901-1.145c0.125-0.043,0.256-0.066,0.39-0.066c0.5,0,0.971,0.309,1.199,0.783
		c0.03,0.064,0.055,0.127,0.073,0.189c0.114,0.361,0.015,0.66-0.089,0.848c-0.182,0.334-0.519,0.6-0.902,0.707
		C44.044,34.271,43.949,34.287,43.855,34.287z"/>
	<path fill-rule="evenodd" clip-rule="evenodd" fill="#fff" d="M22.841,24.082c-0.05,0-0.1-0.004-0.149-0.012
		c-0.411-0.072-0.748-0.316-0.901-0.655c-0.136-0.306-0.105-0.645,0.088-0.955c0.258-0.411,0.748-0.698,1.192-0.698
		c0.204,0,0.383,0.063,0.531,0.186c0.046,0.038,0.088,0.08,0.127,0.124c0.328,0.368,0.433,0.891,0.253,1.269
		C23.783,23.763,23.292,24.082,22.841,24.082z"/>
	<path fill-rule="evenodd" clip-rule="evenodd" fill="#fff" d="M43.979,24.023c-0.54,0-1.145-0.41-1.186-1.023
		c-0.043-0.641,0.272-1.053,0.912-1.189c0.08-0.019,0.159-0.027,0.24-0.027c0.353,0,0.665,0.188,0.855,0.516
		c0.24,0.416,0.223,0.934-0.044,1.319C44.575,23.878,44.299,24.023,43.979,24.023z"/>
	<path fill-rule="evenodd" clip-rule="evenodd" fill="#fff" d="M28.247,38.257c-0.601,0-1.271-0.482-1.304-1.264
		c-0.009-0.24,0.062-0.441,0.214-0.602c0.2-0.207,0.518-0.326,0.874-0.326c0.244,0,0.478,0.055,0.674,0.164
		c0.583,0.318,0.631,0.885,0.482,1.307C29.026,37.994,28.683,38.257,28.247,38.257z"/>
	<path fill-rule="evenodd" clip-rule="evenodd" fill="#fff" d="M38.812,42.773c-0.081,0-0.167-0.008-0.252-0.025
		c-0.219-0.043-0.416-0.125-0.571-0.244c-0.169-0.129-0.282-0.285-0.334-0.467c-0.121-0.414-0.076-0.779,0.127-1.051
		c0.199-0.264,0.531-0.42,0.887-0.42c0.494,0,0.911,0.297,1.115,0.799c0.138,0.336,0.111,0.676-0.075,0.953
		C39.516,42.603,39.18,42.773,38.812,42.773z"/>
	<path fill-rule="evenodd" clip-rule="evenodd" fill="#fff" d="M31.74,19.289c-0.024-0.047-0.074-0.084-0.117-0.117
		c-0.042-0.033-0.086-0.066-0.086-0.094c0.086-0.089,0.149-0.11,0.216-0.11c0.127,0,0.253,0.071,0.339,0.19l-0.16,0.041
		L31.74,19.289z"/>
	<polygon fill-rule="evenodd" clip-rule="evenodd" fill="#fff" points="25.708,18.109 28.395,18.068 28.394,18.109 	"/>
	<path fill-rule="evenodd" clip-rule="evenodd" fill="#fff" d="M25.902,29.687c-0.102,0-0.199-0.033-0.302-0.066
		c-0.017-0.006-0.033-0.012-0.05-0.016c0.04-0.02,0.092-0.035,0.153-0.035c0.083,0,0.181,0.027,0.285,0.057
		c0.031,0.01,0.063,0.02,0.095,0.027C26.02,29.677,25.96,29.687,25.902,29.687z"/>
	<path fill-rule="evenodd" clip-rule="evenodd" fill="#fff" d="M27.065,28.484c-0.057,0-0.078-0.016-0.088-0.027
		c-0.025-0.029-0.06-0.104-0.03-0.318c0.105,0.076,0.245,0.164,0.389,0.295c-0.018,0.004-0.034,0.008-0.05,0.014
		C27.203,28.466,27.125,28.484,27.065,28.484z"/>
	<path fill-rule="evenodd" clip-rule="evenodd" fill="#fff" d="M33.466,34.402c-1.638-0.033-3.681-0.768-5.206-1.877
		c-0.341-0.248-0.663-0.543-0.974-0.826c-0.87-0.795-1.77-1.615-3.099-1.639c-0.152-0.002-0.304-0.014-0.452-0.025
		C23.459,30.013,23.282,30,23.104,30c-0.99,0-1.951,0.215-2.78,0.621c-0.31,0.154-0.6,0.354-0.855,0.527
		c-0.402,0.277-0.775,0.535-1.196,0.66c-0.164,0.047-0.327,0.07-0.485,0.07c-0.486,0-0.865-0.232-1.041-0.635
		c-0.491-1.129,0.692-1.969,1.644-2.645c0.272-0.195,0.406-0.291,0.526-0.385l0.168-0.133l-0.136-0.346
		c-0.29-0.254-0.593-0.455-0.886-0.648c-0.716-0.475-1.391-0.924-1.521-1.824c0.009-0.822,0.39-1.311,1.133-1.441
		c0.046-0.008,0.094-0.012,0.141-0.012c0.556,0,1.167,0.537,1.496,0.826c0.911,0.809,2.181,1.254,3.576,1.254
		c1.598,0,3.142-0.594,4.128-1.586c0.699-0.7,1.44-1.259,2.204-1.66c0.763-0.402,1.574-0.518,2.431-0.639
		c0.72-0.102,1.377-0.151,2.01-0.151c1.644,0,3.939,0.327,5.544,1.888c0.224,0.271,0.527,0.547,0.947,0.859
		c1.172,0.846,2.414,1.273,3.695,1.273l0.21-0.004c1.161-0.043,2.798-0.434,3.842-1.205c0.441-0.328,0.952-0.662,1.402-0.662
		c0.21,0,0.392,0.076,0.559,0.234c0.073,0.074,0.131,0.15,0.173,0.223c0.221,0.396,0.184,0.961-0.094,1.404
		c-0.238,0.379-0.585,0.703-0.922,1.016c-0.111,0.107-0.229,0.193-0.35,0.279c-0.124,0.092-0.219,0.164-0.309,0.24
		c-0.472,0.4-0.341,0.686-0.152,0.969l0.103,0.16c0.234,0.391,0.579,0.645,0.915,0.891c0.256,0.191,0.5,0.371,0.672,0.598
		c0.258,0.375,0.359,0.73,0.297,1.059c-0.049,0.252-0.197,0.465-0.426,0.619c-0.186,0.127-0.377,0.188-0.586,0.188
		c-0.581,0-1.223-0.463-1.846-0.912c-0.498-0.359-0.965-0.699-1.44-0.842c-0.814-0.244-1.612-0.369-2.374-0.369
		c-0.214,0-0.429,0.01-0.642,0.031c-0.591,0.055-1.045,0.178-1.432,0.391c-0.306,0.166-0.528,0.385-0.743,0.598
		c-0.131,0.131-0.241,0.238-0.364,0.338c-0.328,0.268-0.63,0.514-0.905,0.793c-1.478,1.514-3.773,2.492-5.846,2.492H33.466z
		 M33.472,24.349c-0.549,0-1.095,0.059-1.624,0.172c-0.675,0.113-1.315,0.418-1.953,0.934c-0.981,0.795-2.059,1.668-3.15,2.459
		l-0.192,0.139l0.167,0.361c0.245,0.225,0.512,0.236,0.707,0.248c0.604,0.143,1.002,0.514,1.424,0.906
		c0.345,0.322,0.701,0.652,1.146,0.877c0.925,0.705,2.049,1.08,3.244,1.08c1.226,0,2.468-0.395,3.592-1.139
		c0.418-0.277,0.817-0.584,1.213-0.891l0.533-0.428c0.378-0.305,0.764-0.619,1.185-0.66l0.096-0.494
		c-0.032-0.111-0.26-0.344-0.393-0.473c-0.105-0.107-0.169-0.17-0.203-0.195c-0.188-0.152-0.383-0.293-0.578-0.436
		c-0.218-0.154-0.672-0.467-0.672-0.467c-0.351-0.24-0.66-0.451-0.957-0.678l-0.099-0.076c-0.638-0.492-1.191-0.918-2.072-1.117
		C34.401,24.39,33.926,24.349,33.472,24.349z M42.141,29.726l0.207,0.07l0.3-0.096l0.581-0.545l-0.766-0.037l-0.141,0.002
		l-0.919-0.076L42.141,29.726z"/>
	<path fill-rule="evenodd" clip-rule="evenodd" fill="#fff" d="M40.802,29.802c-0.035,0-0.065-0.016-0.092-0.047
		c-0.003-0.143,0.138-0.191,0.253-0.213l0.099,0.029C40.998,29.716,40.885,29.802,40.802,29.802z"/>
	<path fill-rule="evenodd" clip-rule="evenodd" fill="#fff" d="M22.94,34.015c-0.428,0-0.781-0.197-0.944-0.529
		c-0.14-0.285-0.157-0.619-0.048-0.912c0.104-0.281,0.308-0.496,0.575-0.611c0.116-0.051,0.236-0.076,0.359-0.076
		c0.28,0,0.57,0.135,0.794,0.371c0.236,0.248,0.361,0.561,0.345,0.861c-0.003,0.059-0.011,0.111-0.023,0.162
		C23.88,33.789,23.381,34.015,22.94,34.015z"/>
	<path fill-rule="evenodd" clip-rule="evenodd" fill="#fff" d="M33.409,29.029c-0.626-0.018-1.11-0.504-1.102-1.104
		c0.01-0.598,0.519-1.084,1.136-1.084c0.677,0.037,1.128,0.512,1.096,1.154c-0.029,0.607-0.476,1.033-1.085,1.033H33.409z"/>
</g>
</svg>
