<?xml version="1.0" encoding="utf-8"?>
<!-- Generator: Adobe Illustrator 16.0.0, SVG Export Plug-In . SVG Version: 6.00 Build 0)  -->
<!DOCTYPE svg PUBLIC "-//W3C//DTD SVG 1.1//EN" "http://www.w3.org/Graphics/SVG/1.1/DTD/svg11.dtd">
<svg version="1.1" id="레이어_1" xmlns="http://www.w3.org/2000/svg" xmlns:xlink="http://www.w3.org/1999/xlink" x="0px"
	 y="0px" width="59.391px" height="55.878px" viewBox="0 0 59.391 55.878" enable-background="new 0 0 59.391 55.878"
	 xml:space="preserve">
<g>
	<circle fill="#EDC9D7" cx="42.282" cy="41.298" r="8.908"/>
	<g>
		<g>
			<rect x="9.112" y="10.438" fill="#040000" width="36.042" height="1.821"/>
		</g>
		<g>
			<rect x="26.222" y="5.671" fill="#040000" width="1.821" height="3.463"/>
		</g>
		<g>
			<rect x="26.222" y="13.563" fill="#040000" width="1.821" height="26.555"/>
		</g>
		<g>
			<rect x="17.185" y="38.296" fill="#040000" width="19.895" height="1.822"/>
		</g>
		<g>
			<rect x="12.62" y="41.713" fill="#040000" width="29.026" height="1.822"/>
		</g>
		<g>
			<path fill="#040000" d="M15.131,29.261c-3.82,0-6.931-3.109-6.931-6.93v-1.142h13.86v1.142
				C22.061,26.152,18.953,29.261,15.131,29.261z M10.067,23.01c0.333,2.497,2.478,4.429,5.064,4.429c2.586,0,4.73-1.932,5.064-4.429
				H10.067z"/>
		</g>
		<g>
			<rect x="14.221" y="13.808" fill="#040000" width="1.821" height="5.667"/>
		</g>
		<g>
			<path fill="#040000" d="M39.133,29.261c-3.82,0-6.93-3.109-6.93-6.93v-1.142h13.861v1.142
				C46.065,26.152,42.955,29.261,39.133,29.261z M34.07,23.01c0.333,2.497,2.478,4.429,5.063,4.429c2.588,0,4.732-1.932,5.064-4.429
				H34.07z"/>
		</g>
		<g>
			<rect x="38.223" y="13.808" fill="#040000" width="1.821" height="5.667"/>
		</g>
	</g>
</g>
</svg>
