<?xml version="1.0" encoding="utf-8"?>
<!-- Generator: Adobe Illustrator 16.0.0, SVG Export Plug-In . SVG Version: 6.00 Build 0)  -->
<!DOCTYPE svg PUBLIC "-//W3C//DTD SVG 1.1//EN" "http://www.w3.org/Graphics/SVG/1.1/DTD/svg11.dtd">
<svg version="1.1" id="레이어_1" xmlns="http://www.w3.org/2000/svg" xmlns:xlink="http://www.w3.org/1999/xlink" x="0px"
	 y="0px" width="66.755px" height="55.878px" viewBox="0 0 66.755 55.878" enable-background="new 0 0 66.755 55.878"
	 xml:space="preserve">
<g>
	<path fill="#EDC9D7" d="M63.166,45.664c0,1.025-0.832,1.857-1.858,1.857H47.761c-1.026,0-1.858-0.832-1.858-1.857V32.117
		c0-1.026,0.832-1.858,1.858-1.858h13.547c1.026,0,1.858,0.832,1.858,1.858V45.664z"/>
	<g>
		<g>
			<polygon fill="#181818" points="14.661,39.738 8.648,39.738 8.648,28.84 10.486,28.84 10.486,37.899 14.661,37.899 			"/>
			<polygon fill="#181818" points="44.954,39.738 24.442,39.738 24.442,37.899 43.114,37.899 43.114,10.195 6.034,10.195 
				6.034,8.356 44.954,8.356 			"/>
			<rect x="8.648" y="9.276" fill="#181818" width="1.838" height="5.436"/>
			<rect x="60.02" y="32.842" fill="#181818" width="2.528" height="1.839"/>
			<path fill="#181818" d="M40.878,31.121H12.723V12.432h28.156V31.121z M14.563,29.282h24.476V14.271H14.563V29.282z"/>
			<g>
				<path fill="#181818" d="M60.122,30.713H46.783V19.828h5.926L60.122,30.713z M48.622,28.874h8.023l-4.908-7.206h-3.115V28.874z"
					/>
				<polygon fill="#181818" points="63.467,39.738 58.182,39.738 58.182,37.899 61.628,37.899 61.628,29.271 53.414,18 44.954,18 
					44.954,37.899 48.401,37.899 48.401,39.738 43.114,39.738 43.114,16.161 54.35,16.161 63.467,28.672 				"/>
			</g>
			<g>
				<path fill="#181818" d="M19.552,44.629c-3.204,0-5.811-2.606-5.811-5.81c0-3.204,2.606-5.811,5.811-5.811
					s5.811,2.606,5.811,5.811C25.363,42.022,22.756,44.629,19.552,44.629z M19.552,34.848c-2.189,0-3.971,1.782-3.971,3.972
					s1.782,3.972,3.971,3.972c2.19,0,3.971-1.782,3.971-3.972S21.742,34.848,19.552,34.848z"/>
				<rect x="18.57" y="37.899" fill="#181818" width="1.963" height="1.839"/>
			</g>
			<g>
				<path fill="#181818" d="M53.291,44.629c-3.203,0-5.81-2.606-5.81-5.81c0-3.204,2.606-5.811,5.81-5.811
					c3.205,0,5.811,2.606,5.811,5.811C59.101,42.022,56.495,44.629,53.291,44.629z M53.291,34.848c-2.189,0-3.97,1.782-3.97,3.972
					s1.781,3.972,3.97,3.972c2.19,0,3.971-1.782,3.971-3.972S55.481,34.848,53.291,34.848z"/>
				<rect x="52.311" y="37.899" fill="#181818" width="1.961" height="1.839"/>
			</g>
			<rect x="3.288" y="16.933" fill="#181818" width="16.114" height="1.839"/>
			<rect x="10.548" y="24.781" fill="#181818" width="8.07" height="1.839"/>
			<rect x="6.82" y="20.857" fill="#181818" width="16.024" height="1.839"/>
			<rect x="4.073" y="24.781" fill="#181818" width="4.513" height="1.839"/>
		</g>
	</g>
</g>
</svg>
