<?xml version="1.0" encoding="utf-8"?>
<!-- Generator: Adobe Illustrator 16.0.0, SVG Export Plug-In . SVG Version: 6.00 Build 0)  -->
<!DOCTYPE svg PUBLIC "-//W3C//DTD SVG 1.1//EN" "http://www.w3.org/Graphics/SVG/1.1/DTD/svg11.dtd">
<svg version="1.1" id="레이어_1" xmlns="http://www.w3.org/2000/svg" xmlns:xlink="http://www.w3.org/1999/xlink" x="0px"
	 y="0px" width="59.391px" height="55.878px" viewBox="0 0 59.391 55.878" enable-background="new 0 0 59.391 55.878"
	 xml:space="preserve">
<g>
	<path fill="#EDC9D7" d="M51.602,47.744c0,1.026-0.832,1.858-1.858,1.858H36.196c-1.025,0-1.857-0.832-1.857-1.858V34.197
		c0-1.026,0.832-1.858,1.857-1.858h13.547c1.026,0,1.858,0.832,1.858,1.858V47.744z"/>
	<path fill-rule="evenodd" clip-rule="evenodd" fill="#060001" stroke="#060001" stroke-width="0.4" stroke-miterlimit="10" d="
		M34.12,26.646c1.731,0,3.302,0.704,4.44,1.841l0.001,0.001l0.001,0.002c0.977,0.979,1.635,2.277,1.799,3.724h5.413v-5.357
		c0-0.524-0.188-0.999-0.49-1.339c-0.284-0.321-0.675-0.521-1.098-0.521H28.961c-0.494,1.103-1.183,2.099-2.026,2.941
		c-0.093,0.093-0.188,0.185-0.285,0.274l2.278,1.178c0.222-0.323,0.474-0.625,0.751-0.902l-0.002-0.001
		C30.814,27.351,32.385,26.646,34.12,26.646L34.12,26.646z M19.659,8.383h0.68c0.336,0,0.642,0.138,0.862,0.357
		c0.22,0.221,0.358,0.527,0.358,0.863V9.77h0.166c0.336,0,0.64,0.138,0.861,0.357c0.22,0.22,0.355,0.525,0.355,0.863h0.003v0.68
		c0,0.335-0.138,0.641-0.358,0.86c-0.222,0.221-0.525,0.358-0.861,0.358H21.56v0.167c0,0.336-0.139,0.642-0.358,0.861
		c-0.221,0.221-0.526,0.359-0.862,0.359h-0.68c-0.336,0-0.642-0.139-0.863-0.359c-0.219-0.22-0.356-0.525-0.356-0.861v-0.167h-0.166
		c-0.337,0-0.642-0.138-0.862-0.358c-0.221-0.22-0.357-0.525-0.357-0.86v-0.68c0-0.336,0.136-0.643,0.356-0.863
		c0.015-0.014,0.032-0.028,0.047-0.041c0.217-0.196,0.502-0.316,0.816-0.316h0.166V9.604c0-0.336,0.138-0.643,0.356-0.862
		C19.018,8.521,19.322,8.383,19.659,8.383L19.659,8.383z M20.339,9.578h-0.68c-0.007,0-0.013,0.004-0.017,0.009
		s-0.01,0.01-0.01,0.017v0.764c0,0.33-0.267,0.598-0.595,0.598h-0.765c-0.005,0-0.008,0.001-0.012,0.003l-0.005,0.005
		c-0.005,0.005-0.009,0.011-0.009,0.018v0.68c0,0.005,0.004,0.011,0.009,0.016s0.01,0.009,0.017,0.009h0.765
		c0.328,0,0.595,0.268,0.595,0.597v0.765c0,0.005,0.006,0.012,0.01,0.017s0.01,0.009,0.017,0.009h0.68
		c0.006,0,0.012-0.004,0.018-0.009c0.004-0.005,0.007-0.012,0.007-0.017v-0.765c0-0.329,0.267-0.597,0.598-0.597h0.765
		c0.005,0,0.013-0.004,0.018-0.009c0.005-0.004,0.008-0.011,0.008-0.016v-0.68h0.002c0-0.005-0.004-0.012-0.01-0.018
		c-0.006-0.004-0.013-0.008-0.018-0.008h-0.765c-0.331,0-0.598-0.268-0.598-0.598V9.604c0-0.007-0.003-0.013-0.007-0.017
		C20.352,9.582,20.345,9.578,20.339,9.578L20.339,9.578z M27.749,31.723c0.555,0,1.058,0.227,1.422,0.59
		c0.013,0.013,0.024,0.026,0.035,0.039c0.343,0.36,0.554,0.848,0.554,1.384c0,0.555-0.226,1.06-0.589,1.423
		c-0.203,0.203-0.45,0.362-0.726,0.465v2.542h1.237h0.598v0.597v4.282c0,0.554-0.229,1.059-0.596,1.428l-0.001,0.001l-0.001,0.001
		c-0.368,0.367-0.875,0.597-1.429,0.597H26.16c-0.553,0-1.061-0.229-1.428-0.596H24.73c-0.366-0.366-0.596-0.873-0.596-1.431v-4.282
		v-0.597h0.599h2.521v-2.48c-0.355-0.09-0.674-0.275-0.925-0.526l-0.002-0.002l-0.002,0.002c-0.363-0.363-0.59-0.868-0.59-1.423
		c0-0.554,0.227-1.057,0.59-1.421l0.004-0.002C26.694,31.949,27.195,31.723,27.749,31.723L27.749,31.723z M28.326,33.158
		c-0.146-0.147-0.353-0.239-0.577-0.239c-0.226,0-0.429,0.091-0.578,0.236l-0.002,0.003c-0.146,0.146-0.236,0.352-0.236,0.577
		c0,0.225,0.091,0.43,0.238,0.577v0.001c0.115,0.114,0.264,0.194,0.432,0.225c0.076-0.034,0.16-0.054,0.248-0.054
		c0.057,0,0.112,0.008,0.164,0.022c0.119-0.04,0.226-0.108,0.312-0.194c0.147-0.147,0.239-0.353,0.239-0.577
		c0-0.214-0.082-0.408-0.215-0.554L28.326,33.158L28.326,33.158z M29.086,43.044v-3.685H25.33v3.685
		c0,0.227,0.095,0.435,0.244,0.585l-0.001,0.002c0.151,0.15,0.36,0.244,0.587,0.244h2.094c0.229,0,0.436-0.094,0.586-0.244
		l0.002-0.002C28.992,43.479,29.086,43.271,29.086,43.044L29.086,43.044z M10.494,7.814c3.169-1.026,6.338-1.539,9.505-1.539
		c3.166,0,6.336,0.513,9.506,1.539l0.498,0.16l-0.094,0.514l-1.356,7.404l-0.044,0.236c0.554,0.965,0.949,2.032,1.148,3.168
		l0.048,0.237l-0.008,0.003c0.072,0.479,0.109,0.97,0.109,1.469l-0.001,0.027c0.444-0.358,1.009-0.573,1.618-0.573h5.39
		c0.711,0,1.357,0.292,1.827,0.761V21.22c0.47,0.468,0.761,1.115,0.761,1.828v0.754h4.785c0.78,0,1.485,0.354,1.99,0.922
		c0.491,0.551,0.794,1.307,0.794,2.133v12.146c0,0.827-0.303,1.582-0.794,2.133c-0.505,0.569-1.21,0.923-1.99,0.923H32.213v4.922
		v0.598h-0.596h-7.282h-8.666H8.388H7.789v-0.598V31.451v-0.362l0.324-0.168l5.241-2.708c-0.097-0.09-0.192-0.182-0.286-0.274
		c-1.772-1.773-2.871-4.226-2.871-6.933c0-1.65,0.408-3.205,1.129-4.57l-0.008-0.006l0.13-0.22c0.062-0.109,0.126-0.218,0.192-0.324
		l-1.548-7.383L9.983,7.979L10.494,7.814L10.494,7.814z M27.265,16.383H13.091c1.259,1.005,2.676,1.821,4.209,2.403
		c1.72,0.652,3.588,1.01,5.539,1.01c1.043,0,2.061-0.102,3.043-0.296c0.843-0.167,1.659-0.4,2.444-0.694
		C28.098,17.937,27.737,17.121,27.265,16.383L27.265,16.383z M19.999,7.47c-2.878,0-5.756,0.439-8.629,1.317l1.342,6.4H27.47
		l1.172-6.396C25.762,7.911,22.882,7.47,19.999,7.47L19.999,7.47z M20.563,42.657l0.008-0.025l4.058-12.981
		c0.348-0.186,0.684-0.394,1.006-0.619l5.384,2.782v14.569h-6.684h-3.771V42.657L20.563,42.657z M19.368,46.383v-3.956L15.374,29.65
		c-0.349-0.187-0.683-0.394-1.004-0.619l-5.385,2.782v14.569h6.684H19.368L19.368,46.383z M28.553,19.992
		c0.039,0.332,0.059,0.671,0.059,1.014c0,2.377-0.964,4.53-2.521,6.087c-1.559,1.559-3.711,2.522-6.088,2.522
		s-4.53-0.964-6.087-2.522c-1.559-1.557-2.522-3.71-2.522-6.087c0-1.35,0.312-2.628,0.865-3.765
		c1.378,1.117,2.936,2.021,4.621,2.661c1.855,0.703,3.864,1.089,5.96,1.089c1.117,0,2.213-0.109,3.271-0.32
		C26.947,20.506,27.762,20.278,28.553,19.992L28.553,19.992z M23.182,30.282c-0.996,0.342-2.067,0.527-3.18,0.527
		c-1.113,0-2.182-0.186-3.18-0.527l3.18,10.173L23.182,30.282L23.182,30.282z M32.213,40.862h11.974c0.423,0,0.813-0.2,1.098-0.521
		c0.303-0.34,0.49-0.813,0.49-1.339v-5.594h-5.391c-0.116,1.542-0.79,2.93-1.821,3.962l-0.001,0.001l-0.001,0.002
		c-1.139,1.137-2.709,1.84-4.44,1.84c-0.666,0-1.306-0.104-1.907-0.294V40.862L32.213,40.862z M32.213,37.648V35.57
		c0.055,0.301,0.199,0.569,0.406,0.776c0.264,0.265,0.629,0.428,1.031,0.428h0.938c0.378,0,0.724-0.146,0.985-0.386
		c0.016-0.013,0.029-0.027,0.045-0.042c0.265-0.263,0.428-0.629,0.428-1.03v-0.459h0.459c0.402,0,0.768-0.164,1.03-0.428v-0.001
		c0.263-0.265,0.429-0.63,0.429-1.03V32.46h-0.003c0-0.403-0.163-0.769-0.426-1.031c-0.263-0.264-0.628-0.427-1.03-0.427h-0.459
		v-0.459c0-0.402-0.163-0.767-0.428-1.031c-0.265-0.264-0.628-0.428-1.03-0.428H33.65c-0.402,0-0.768,0.164-1.031,0.428
		c-0.263,0.265-0.428,0.629-0.428,1.031v0.459h-0.146l-0.157-0.081l-1.89-0.978c0.156-0.217,0.331-0.422,0.521-0.61h0.002
		c0.921-0.921,2.193-1.49,3.599-1.49c1.407,0,2.679,0.569,3.597,1.487l0.002,0.003c0.919,0.918,1.487,2.19,1.487,3.597
		c0,1.407-0.568,2.68-1.487,3.597l-0.002,0.003c-0.918,0.92-2.189,1.488-3.597,1.488C33.446,38.018,32.803,37.886,32.213,37.648
		L32.213,37.648z M32.213,32.196h0.576c0.33,0,0.598-0.268,0.598-0.598v-1.056c0-0.071,0.029-0.138,0.078-0.187
		c0.048-0.048,0.113-0.076,0.186-0.076h0.938c0.072,0,0.137,0.028,0.185,0.076c0.048,0.049,0.08,0.115,0.08,0.187v1.056
		c0,0.33,0.268,0.598,0.596,0.598h1.057c0.071,0,0.138,0.03,0.186,0.078c0.05,0.05,0.081,0.116,0.081,0.186h-0.002v0.938
		c0,0.073-0.03,0.139-0.076,0.186l-0.002,0.001l-0.001-0.001c-0.048,0.049-0.114,0.078-0.186,0.078h-1.057
		c-0.328,0-0.596,0.269-0.596,0.598v1.057c0,0.072-0.032,0.138-0.08,0.186l-0.018,0.019c-0.045,0.036-0.104,0.06-0.167,0.06H33.65
		c-0.072,0-0.138-0.031-0.186-0.078c-0.049-0.048-0.078-0.113-0.078-0.186V34.26c0-0.329-0.268-0.598-0.598-0.598h-0.576V32.196
		L32.213,32.196z M30.031,23.802h8.174v-0.754c0-0.383-0.155-0.73-0.408-0.983l0.002-0.001h-0.002
		c-0.251-0.252-0.599-0.408-0.983-0.408h-5.39c-0.382,0-0.731,0.156-0.983,0.408s-0.409,0.602-0.409,0.984V23.802z"/>
</g>
</svg>
