<?xml version="1.0" encoding="utf-8"?>
<!-- Generator: Adobe Illustrator 16.0.0, SVG Export Plug-In . SVG Version: 6.00 Build 0)  -->
<!DOCTYPE svg PUBLIC "-//W3C//DTD SVG 1.1//EN" "http://www.w3.org/Graphics/SVG/1.1/DTD/svg11.dtd">
<svg version="1.1" id="레이어_1" xmlns="http://www.w3.org/2000/svg" xmlns:xlink="http://www.w3.org/1999/xlink" x="0px"
	 y="0px" width="66.755px" height="55.878px" viewBox="0 0 66.755 55.878" enable-background="new 0 0 66.755 55.878"
	 xml:space="preserve">
<g>
	<path fill="#EDC9D7" d="M57.949,45.665c0,1.025-0.832,1.857-1.857,1.857H42.544c-1.026,0-1.858-0.832-1.858-1.857V32.118
		c0-1.026,0.832-1.858,1.858-1.858h13.547c1.025,0,1.857,0.832,1.857,1.858V45.665z"/>
	<g>
		<g>
			<path fill="#040000" d="M42.895,46.696H19.454v-1.845c1.533,0,2.781-1.248,2.781-2.781V12.981c0-2.551,2.075-4.626,4.626-4.626
				h23.441V10.2c-1.533,0-2.782,1.247-2.782,2.781V42.07C47.52,44.62,45.446,46.696,42.895,46.696z M23.147,44.852h19.748
				c1.534,0,2.782-1.248,2.782-2.781V12.981c0-1.043,0.347-2.008,0.933-2.781H26.861c-1.533,0-2.782,1.247-2.782,2.781V42.07
				C24.079,43.114,23.731,44.077,23.147,44.852z"/>
		</g>
		<g>
			<g>
				<path fill="#040000" d="M18.133,25.583H12.15V11.35c0-1.65,1.341-2.994,2.992-2.994c1.649,0,2.991,1.344,2.991,2.994V25.583z
					 M13.992,23.738h2.299V11.35c0-0.635-0.516-1.149-1.148-1.149c-0.634,0-1.15,0.515-1.15,1.149V23.738z"/>
			</g>
			<g>
				<polygon fill="#040000" points="15.142,47.031 12.15,41.297 12.15,27.078 13.992,27.078 13.992,40.845 15.142,43.046 
					16.291,40.845 16.291,27.078 18.133,27.078 18.133,41.297 				"/>
			</g>
			<g>
				<rect x="8.806" y="11.486" fill="#040000" width="1.843" height="8.531"/>
			</g>
		</g>
		<g>
			<rect x="29.926" y="15.22" fill="#040000" width="9.903" height="1.845"/>
		</g>
		<g>
			<g>
				<g>
					<rect x="31.088" y="22.587" fill="#040000" width="11.607" height="1.845"/>
				</g>
				<g>
					<rect x="27.059" y="22.587" fill="#040000" width="2.238" height="1.845"/>
				</g>
			</g>
			<g>
				<g>
					<rect x="31.088" y="26.852" fill="#040000" width="11.607" height="1.845"/>
				</g>
				<g>
					<rect x="27.059" y="26.852" fill="#040000" width="2.238" height="1.845"/>
				</g>
			</g>
			<g>
				<g>
					<rect x="31.088" y="31.115" fill="#040000" width="11.607" height="1.845"/>
				</g>
				<g>
					<rect x="27.059" y="31.115" fill="#040000" width="2.238" height="1.845"/>
				</g>
			</g>
		</g>
	</g>
</g>
</svg>
