<?xml version="1.0" encoding="utf-8"?>
<!-- Generator: Adobe Illustrator 16.0.0, SVG Export Plug-In . SVG Version: 6.00 Build 0)  -->
<!DOCTYPE svg PUBLIC "-//W3C//DTD SVG 1.1//EN" "http://www.w3.org/Graphics/SVG/1.1/DTD/svg11.dtd">
<svg version="1.1" id="Layer_1" xmlns="http://www.w3.org/2000/svg" xmlns:xlink="http://www.w3.org/1999/xlink" x="0px" y="0px"
	 width="161.205px" height="128.388px" viewBox="0 0 161.205 128.388" enable-background="new 0 0 161.205 128.388"
	 xml:space="preserve">
<g>
	<g>
		<path fill="#585858" d="M144.954,0H45.479c-8.961,0-16.25,7.29-16.25,16.25v94.861c0,6.588-5.359,11.949-11.948,11.952
			c-0.001,0-0.002,0-0.003,0s-0.001,0-0.002,0c-6.589-0.001-11.949-5.362-11.949-11.951V29.168h21.036v-5.325H2.663
			C1.192,23.843,0,25.034,0,26.505v84.606c0,9.525,7.748,17.274,17.272,17.276c0.001,0,0.002,0,0.003,0h127.679
			c8.961,0,16.251-7.29,16.251-16.25V16.25C161.205,7.29,153.915,0,144.954,0z M155.88,112.138c0,6.024-4.9,10.925-10.926,10.925
			H29.741c2.979-3.105,4.812-7.319,4.812-11.952V16.25c0-6.023,4.901-10.925,10.926-10.925h99.476
			c6.025,0,10.926,4.901,10.926,10.925V112.138z"/>
		<polygon fill="#585858" points="53.305,31.486 62.509,43.308 67.743,43.308 67.743,21.759 61.832,21.759 61.832,33.148 
			52.966,21.759 47.394,21.759 47.394,43.308 53.305,43.308 		"/>
		<polygon fill="#585858" points="89.044,38.228 77.47,38.228 77.47,34.812 87.813,34.812 87.813,30.101 77.47,30.101 77.47,26.838 
			88.891,26.838 88.891,21.759 71.559,21.759 71.559,43.308 89.044,43.308 		"/>
		<polygon fill="#585858" points="103.05,43.461 107.36,31.055 111.701,43.461 116.904,43.461 124.107,21.759 117.92,21.759 
			114.164,34.226 110.008,21.697 104.867,21.697 100.711,34.226 96.956,21.759 90.645,21.759 97.848,43.461 		"/>
		<path fill="#585858" d="M134.542,38.721c-2.494,0-4.864-0.893-6.988-2.586l-3.325,3.971c2.647,2.37,6.28,3.571,10.098,3.571
			c5.233,0,8.711-2.617,8.711-7.019v-0.062c0-4.032-3.078-5.633-8.035-6.71c-2.986-0.678-3.724-1.108-3.724-2.093v-0.062
			c0-0.77,0.708-1.386,2.154-1.386c1.91,0,4.064,0.739,6.035,2.124l2.986-4.217c-2.34-1.878-5.203-2.863-8.866-2.863
			c-5.172,0-8.343,2.894-8.343,6.896v0.061c0,4.433,3.54,5.726,8.127,6.772c2.925,0.677,3.632,1.17,3.632,2.063v0.061
			C137.004,38.167,136.144,38.721,134.542,38.721z"/>
		<rect x="73.752" y="53.579" fill="#585858" width="42.928" height="21.23"/>
		<rect x="47.394" y="53.579" fill="#585858" width="20.349" height="3.328"/>
		<rect x="47.394" y="62.53" fill="#585858" width="20.349" height="3.328"/>
		<rect x="122.69" y="62.53" fill="#585858" width="20.348" height="3.328"/>
		<rect x="47.394" y="94.377" fill="#585858" width="96.006" height="3.328"/>
		<rect x="47.394" y="83.761" fill="#585858" width="96.006" height="3.328"/>
		<rect x="47.394" y="104.992" fill="#585858" width="96.006" height="3.329"/>
		<rect x="47.394" y="71.481" fill="#585858" width="20.349" height="3.328"/>
		<rect x="122.69" y="53.579" fill="#585858" width="20.348" height="3.328"/>
		<rect x="122.69" y="71.481" fill="#585858" width="20.348" height="3.328"/>
	</g>
</g>
</svg>
