<?xml version="1.0" encoding="utf-8"?>
<!-- Generator: Adobe Illustrator 16.0.0, SVG Export Plug-In . SVG Version: 6.00 Build 0)  -->
<!DOCTYPE svg PUBLIC "-//W3C//DTD SVG 1.1//EN" "http://www.w3.org/Graphics/SVG/1.1/DTD/svg11.dtd">
<svg version="1.1" id="레이어_1" xmlns="http://www.w3.org/2000/svg" xmlns:xlink="http://www.w3.org/1999/xlink" x="0px"
	 y="0px" width="59.391px" height="55.878px" viewBox="0 0 59.391 55.878" enable-background="new 0 0 59.391 55.878"
	 xml:space="preserve">
<g>
	<path fill="#EDC9D7" d="M51.493,47.266c0,1.026-0.832,1.858-1.858,1.858H36.087c-1.025,0-1.857-0.832-1.857-1.858V33.719
		c0-1.026,0.832-1.858,1.857-1.858h13.547c1.026,0,1.858,0.832,1.858,1.858V47.266z"/>
	<g>
		<g>
			<path fill="#181818" stroke="#060001" stroke-width="0.2" stroke-miterlimit="10" d="M39.285,39.633H13.559V19.618
				c0-3.436,1.337-6.667,3.768-9.097c2.43-2.43,5.66-3.768,9.097-3.768c3.434,0,6.665,1.338,9.096,3.768
				c2.429,2.43,3.766,5.661,3.766,9.097V39.633z M14.968,38.224h22.907V19.618c0-3.06-1.19-5.937-3.354-8.1
				s-5.041-3.354-8.099-3.354c-3.061,0-5.936,1.191-8.101,3.354c-2.163,2.164-3.354,5.04-3.354,8.1V38.224z"/>
			<g>
				<path fill="#181818" stroke="#060001" stroke-width="0.2" stroke-miterlimit="10" d="M20.75,13.944l-0.997-0.996
					c1.779-1.781,4.148-2.762,6.67-2.762v1.41C24.278,11.597,22.264,12.431,20.75,13.944z"/>
				<path fill="#181818" stroke="#060001" stroke-width="0.2" stroke-miterlimit="10" d="M18.401,19.618h-1.409
					c0-1.8,0.506-3.546,1.464-5.051l1.189,0.757C18.833,16.603,18.401,18.087,18.401,19.618z"/>
			</g>
			<path fill="#181818" stroke="#060001" stroke-width="0.2" stroke-miterlimit="10" d="M42.862,45.928H9.982v-3.424
				c0-1.144,0.445-2.218,1.254-3.027c0.809-0.808,1.884-1.253,3.028-1.253H38.58c1.146,0,2.222,0.445,3.03,1.254
				c0.807,0.809,1.252,1.883,1.252,3.026V45.928z M11.391,44.518h30.062v-2.014c0-0.768-0.3-1.487-0.842-2.03
				c-0.54-0.542-1.263-0.841-2.031-0.841H14.264c-0.768,0-1.488,0.299-2.03,0.841c-0.544,0.543-0.843,1.264-0.843,2.03V44.518z"/>
			
				<rect x="7.898" y="44.518" fill="#181818" stroke="#060001" stroke-width="0.2" stroke-miterlimit="10" width="37.192" height="1.41"/>
			<g>
				
					<rect x="25.718" y="28.915" fill="#181818" stroke="#060001" stroke-width="0.2" stroke-miterlimit="10" width="1.409" height="10.013"/>
				<path fill="#181818" stroke="#060001" stroke-width="0.2" stroke-miterlimit="10" d="M26.423,29.619
					c-2.52,0-4.569-2.048-4.569-4.566s2.05-4.566,4.569-4.566c2.517,0,4.564,2.048,4.564,4.566S28.94,29.619,26.423,29.619z
					 M26.423,21.896c-1.742,0-3.159,1.417-3.159,3.157c0,1.741,1.417,3.157,3.159,3.157c1.739,0,3.155-1.416,3.155-3.157
					C29.579,23.313,28.163,21.896,26.423,21.896z"/>
			</g>
		</g>
	</g>
</g>
</svg>
