<?xml version="1.0" encoding="utf-8"?>
<!-- Generator: Adobe Illustrator 16.0.0, SVG Export Plug-In . SVG Version: 6.00 Build 0)  -->
<!DOCTYPE svg PUBLIC "-//W3C//DTD SVG 1.1//EN" "http://www.w3.org/Graphics/SVG/1.1/DTD/svg11.dtd">
<svg version="1.1" id="레이어_1" xmlns="http://www.w3.org/2000/svg" xmlns:xlink="http://www.w3.org/1999/xlink" x="0px"
	 y="0px" width="59.391px" height="55.878px" viewBox="0 0 59.391 55.878" enable-background="new 0 0 59.391 55.878"
	 xml:space="preserve">
<g>
	<path fill="#EDC9D7" d="M52.15,46.658c0,1.025-0.832,1.857-1.857,1.857H36.746c-1.026,0-1.858-0.832-1.858-1.857V33.111
		c0-1.026,0.832-1.858,1.858-1.858h13.547c1.025,0,1.857,0.832,1.857,1.858V46.658z"/>
	<g>
		<g>
			<polygon fill="#040000" points="34.888,44.79 8.566,44.79 8.566,27.218 10.367,27.218 10.367,42.991 34.888,42.991 			"/>
		</g>
		<g>
			<polygon fill="#040000" points="29.702,10.814 27.901,10.814 27.901,9.161 21.356,9.161 21.356,10.814 19.556,10.814 
				19.556,7.362 29.702,7.362 			"/>
		</g>
		<g>
			<path fill="#040000" d="M44.67,44.79H33.987V26.817h1.801v16.174h7.081V17.202c0-1.953-1.588-3.541-3.54-3.541
				c-1.953,0-3.541,1.588-3.541,3.541v8.099H7.24v-8.099c0-2.945,2.396-5.342,5.341-5.342h26.748c2.944,0,5.341,2.396,5.341,5.342
				V44.79z M9.041,23.501h24.946v-6.299c0-1.357,0.51-2.598,1.347-3.541H12.581c-1.952,0-3.54,1.588-3.54,3.541V23.501z"/>
		</g>
		<g>
			<rect x="38.429" y="18.615" fill="#040000" width="1.801" height="25.275"/>
		</g>
		<g>
			<g>
				<rect x="14.343" y="26.318" fill="#040000" width="3.458" height="1.8"/>
			</g>
			<g>
				<rect x="25.228" y="26.318" fill="#040000" width="3.458" height="1.8"/>
			</g>
		</g>
	</g>
</g>
</svg>
