<?xml version="1.0" encoding="utf-8"?>
<!-- Generator: Adobe Illustrator 16.0.0, SVG Export Plug-In . SVG Version: 6.00 Build 0)  -->
<!DOCTYPE svg PUBLIC "-//W3C//DTD SVG 1.1//EN" "http://www.w3.org/Graphics/SVG/1.1/DTD/svg11.dtd">
<svg version="1.1" id="레이어_1" xmlns="http://www.w3.org/2000/svg" xmlns:xlink="http://www.w3.org/1999/xlink" x="0px"
	 y="0px" width="59.391px" height="55.878px" viewBox="0 0 59.391 55.878" enable-background="new 0 0 59.391 55.878"
	 xml:space="preserve">
<g>
	<circle fill="#EDC9D7" cx="43.775" cy="40.92" r="8.908"/>
	<g>
		<g>
			<path fill="#181818" stroke="#060001" stroke-width="0.2" stroke-miterlimit="10" d="M26.451,45.089
				c-0.839,0-1.69-0.082-2.532-0.242l-0.537-0.103V40.26h1.32v3.381c1.168,0.17,2.33,0.17,3.495,0V40.26h1.322v4.485l-0.537,0.103
				C28.142,45.008,27.29,45.089,26.451,45.089z"/>
			<path fill="#181818" stroke="#060001" stroke-width="0.2" stroke-miterlimit="10" d="M15.455,26.653l-1.202-0.55
				c2.179-4.762,6.968-7.837,12.198-7.837c5.231,0,10.019,3.076,12.199,7.837l-1.202,0.55c-1.965-4.293-6.281-7.066-10.997-7.066
				C21.736,19.587,17.419,22.36,15.455,26.653z"/>
			<g>
				<g>
					<path fill="#181818" stroke="#060001" stroke-width="0.2" stroke-miterlimit="10" d="M39.208,40.92h-9.232v-5.407
						c0-0.637,0.124-1.259,0.367-1.849c0.244-0.589,0.597-1.117,1.048-1.568l6.149-6.149c0.518-0.518,1.208-0.803,1.941-0.803
						c0.734,0,1.425,0.285,1.942,0.803c0.519,0.519,0.803,1.208,0.803,1.942c0,0.733-0.285,1.422-0.803,1.94l-4.537,4.539
						c-0.519,0.519-1.208,0.804-1.942,0.804v-1.321c0.38,0,0.738-0.148,1.007-0.417l4.538-4.538
						c0.269-0.269,0.417-0.626,0.417-1.006c0-0.381-0.149-0.74-0.417-1.009c-0.268-0.268-0.626-0.416-1.008-0.416
						c-0.38,0-0.738,0.148-1.007,0.417l-6.149,6.15c-0.328,0.327-0.583,0.71-0.761,1.138c-0.177,0.429-0.266,0.88-0.266,1.343v4.085
						h6.621c0.065-0.684,0.231-1.35,0.496-1.987c0.348-0.841,0.851-1.595,1.497-2.243l4.544-4.543
						c0.134-0.133,0.237-0.288,0.309-0.462c0.072-0.172,0.109-0.354,0.109-0.544V17.965c0-0.38-0.149-0.738-0.418-1.008
						c-0.269-0.269-0.626-0.417-1.007-0.417s-0.738,0.148-1.008,0.417c-0.268,0.269-0.416,0.627-0.416,1.008v5.951h-1.321v-5.951
						c0-0.734,0.286-1.423,0.803-1.942c0.52-0.519,1.21-0.804,1.942-0.804c0.733,0,1.422,0.285,1.941,0.804
						c0.519,0.52,0.804,1.208,0.804,1.942v11.854c0,0.365-0.07,0.718-0.208,1.051c-0.139,0.336-0.34,0.636-0.597,0.891l-4.542,4.542
						c-0.522,0.523-0.93,1.134-1.211,1.815c-0.284,0.681-0.427,1.401-0.427,2.142V40.92z"/>
					<polygon fill="#181818" stroke="#060001" stroke-width="0.2" stroke-miterlimit="10" points="40.987,44.199 39.665,44.199 
						39.665,40.92 29.519,40.92 29.519,44.199 28.197,44.199 28.197,39.599 40.987,39.599 					"/>
				</g>
				<g>
					<path fill="#181818" stroke="#060001" stroke-width="0.2" stroke-miterlimit="10" d="M22.926,40.92h-9.233V40.26
						c0-0.739-0.142-1.459-0.424-2.142c-0.283-0.681-0.691-1.292-1.214-1.815L7.511,31.76c-0.255-0.254-0.455-0.554-0.594-0.89
						c-0.139-0.334-0.208-0.687-0.208-1.051V17.965c0-0.733,0.285-1.422,0.803-1.942c0.519-0.519,1.208-0.804,1.942-0.804
						c0.733,0,1.423,0.285,1.941,0.804c0.518,0.52,0.804,1.208,0.804,1.942v5.951h-1.321v-5.951c0-0.38-0.149-0.739-0.418-1.008
						c-0.268-0.269-0.626-0.417-1.007-0.417c-0.381,0-0.738,0.148-1.007,0.417c-0.269,0.27-0.417,0.627-0.417,1.008v11.854
						c0,0.188,0.036,0.372,0.108,0.544c0.072,0.175,0.176,0.33,0.309,0.461l4.543,4.545c0.646,0.646,1.15,1.401,1.5,2.244
						c0.265,0.638,0.43,1.304,0.495,1.986h6.622v-4.085c0-0.463-0.09-0.915-0.268-1.344c-0.177-0.428-0.433-0.811-0.76-1.137
						l-6.15-6.151c-0.269-0.268-0.626-0.416-1.007-0.416c-0.382,0-0.739,0.148-1.008,0.416c-0.268,0.27-0.416,0.627-0.416,1.008
						c0,0.38,0.147,0.738,0.416,1.006l4.538,4.538c0.269,0.269,0.627,0.417,1.008,0.417v1.321c-0.734,0-1.423-0.286-1.942-0.804
						l-4.539-4.539c-0.518-0.519-0.803-1.208-0.803-1.94c0-0.733,0.285-1.423,0.803-1.942c0.519-0.519,1.208-0.804,1.942-0.804
						c0.733,0,1.423,0.285,1.941,0.803l6.15,6.151c0.45,0.449,0.803,0.977,1.047,1.566c0.244,0.59,0.367,1.212,0.367,1.849V40.92z"
						/>
					<polygon fill="#181818" stroke="#060001" stroke-width="0.2" stroke-miterlimit="10" points="24.702,44.199 23.382,44.199 
						23.382,40.92 13.237,40.92 13.237,44.199 11.915,44.199 11.915,39.599 24.702,39.599 					"/>
				</g>
			</g>
			<g>
				<g>
					<g>
						<path fill="#181818" stroke="#060001" stroke-width="0.2" stroke-miterlimit="10" d="M21.002,17.498L21.002,17.498
							c-1.379,0-2.676-0.537-3.652-1.511c-0.765-0.765-1.27-1.788-1.465-2.959L14.718,6.05l6.977,1.167
							c1.188,0.199,2.184,0.692,2.958,1.465c2.013,2.014,2.014,5.29,0,7.303C23.678,16.961,22.381,17.498,21.002,17.498z
							 M16.327,7.658l0.861,5.152c0.152,0.911,0.521,1.666,1.097,2.242c0.726,0.725,1.69,1.125,2.718,1.125
							c1.026,0,1.991-0.4,2.717-1.125c1.498-1.498,1.498-3.936,0-5.435c-0.575-0.575-1.329-0.944-2.242-1.096L16.327,7.658z"/>
						<path fill="#181818" stroke="#060001" stroke-width="0.2" stroke-miterlimit="10" d="M31.899,17.498
							c-1.379,0-2.676-0.537-3.652-1.512c-2.013-2.013-2.013-5.29,0-7.303c0.775-0.774,1.77-1.267,2.958-1.466l6.978-1.167
							l-1.167,6.978c-0.196,1.172-0.704,2.196-1.466,2.959C34.576,16.961,33.28,17.498,31.899,17.498z M36.575,7.658l-5.151,0.862
							c-0.912,0.152-1.666,0.521-2.242,1.097c-1.498,1.498-1.499,3.936-0.001,5.434c0.727,0.725,1.692,1.125,2.718,1.125
							c1.028,0,1.992-0.4,2.717-1.125c0.576-0.576,0.945-1.33,1.098-2.242L36.575,7.658z"/>
					</g>
				</g>
				<g>
					
						<rect x="25.791" y="17.783" fill="#181818" stroke="#060001" stroke-width="0.2" stroke-miterlimit="10" width="1.32" height="13.895"/>
					<polygon fill="#181818" stroke="#060001" stroke-width="0.2" stroke-miterlimit="10" points="26.451,18.717 20.535,12.801 
						21.469,11.867 26.451,16.849 31.434,11.867 32.367,12.801 					"/>
				</g>
			</g>
		</g>
	</g>
</g>
</svg>
