<?xml version="1.0" encoding="utf-8"?>
<!-- Generator: Adobe Illustrator 16.0.0, SVG Export Plug-In . SVG Version: 6.00 Build 0)  -->
<!DOCTYPE svg PUBLIC "-//W3C//DTD SVG 1.1//EN" "http://www.w3.org/Graphics/SVG/1.1/DTD/svg11.dtd">
<svg version="1.1" id="레이어_1" xmlns="http://www.w3.org/2000/svg" xmlns:xlink="http://www.w3.org/1999/xlink" x="0px"
	 y="0px" width="59.391px" height="55.878px" viewBox="0 0 59.391 55.878" enable-background="new 0 0 59.391 55.878"
	 xml:space="preserve">
<g>
	<circle fill="#EDC9D7" cx="45.494" cy="41.7" r="8.908"/>
	<path fill="#333333" stroke="#060001" stroke-width="0.25" stroke-miterlimit="10" d="M4.989,44.327h40.504v1.446H4.989V44.327z
		 M7.882,6.716h13.02v36.165h1.446V6.716h7.233v11.573h1.446V5.27H6.436v37.611h1.446V6.716z M44.047,42.881V19.735H25.241v23.146
		h1.446V21.182h10.126v21.699h1.447V21.182H42.6v21.699H44.047z M19.455,9.609H9.329v1.446h10.126V9.609z M19.455,13.949H9.329
		v1.446h10.126V13.949z M19.455,18.289H9.329v1.446h10.126V18.289z M19.455,22.629H9.329v1.446h10.126V22.629z M19.455,26.969H9.329
		v1.446h10.126V26.969z M19.455,31.308H9.329v1.447h10.126V31.308z M9.329,37.095h10.126v-1.447H9.329V37.095z M29.581,24.075
		h-1.446v2.894h1.446V24.075z M35.367,24.075h-1.446v2.894h1.446V24.075z M32.474,24.075h-1.446v2.894h1.446V24.075z M29.581,29.861
		h-1.446v2.894h1.446V29.861z M35.367,29.861h-1.446v2.894h1.446V29.861z M32.474,29.861h-1.446v2.894h1.446V29.861z M28.135,38.541
		h1.446v-2.894h-1.446V38.541z M33.921,38.541h1.446v-2.894h-1.446V38.541z M31.027,38.541h1.446v-2.894h-1.446V38.541z"/>
</g>
</svg>
