<?xml version="1.0" encoding="utf-8"?>
<!-- Generator: Adobe Illustrator 16.0.0, SVG Export Plug-In . SVG Version: 6.00 Build 0)  -->
<!DOCTYPE svg PUBLIC "-//W3C//DTD SVG 1.1//EN" "http://www.w3.org/Graphics/SVG/1.1/DTD/svg11.dtd">
<svg version="1.1" id="레이어_1" xmlns="http://www.w3.org/2000/svg" xmlns:xlink="http://www.w3.org/1999/xlink" x="0px"
	 y="0px" width="60px" height="56px" viewBox="0 0 60 56" enable-background="new 0 0 60 56" xml:space="preserve">
<g>
	<circle fill="#EDC9D7" cx="45.805" cy="42.092" r="8.907"/>
	<path fill="#040000" d="M33.397,19.266c-0.152-0.169-0.229-0.379-0.213-0.607c0.02-0.221,0.111-0.423,0.279-0.576
		c0,0,0-0.008,0.01-0.008c0.338-0.296,0.895-0.262,1.189,0.077c0.305,0.354,0.271,0.886-0.076,1.19
		c-0.15,0.136-0.354,0.212-0.557,0.212C33.786,19.554,33.558,19.451,33.397,19.266z M43.935,30.986v3.945
		c1.828-0.725,3.967-0.489,5.568,0.686c0.377,0.275,0.461,0.805,0.184,1.18c-0.275,0.376-0.803,0.461-1.182,0.184
		c-1.316-0.965-3.148-1.036-4.557-0.18l-0.172,0.105c-0.92,0.561-1.973,0.842-3.021,0.842c-1.055,0-2.107-0.281-3.027-0.842
		l-0.422-0.258c-1.303-0.793-2.986-0.793-4.289,0l-0.422,0.258c-1.838,1.121-4.211,1.121-6.051,0l-0.422-0.258
		c-1.301-0.793-2.986-0.793-4.289,0l-0.422,0.258c-1.838,1.121-4.211,1.121-6.049,0l-0.172-0.104
		c-1.408-0.86-3.24-0.787-4.559,0.178c-0.375,0.277-0.904,0.192-1.18-0.184c-0.275-0.375-0.193-0.904,0.184-1.18
		c1.604-1.173,3.74-1.411,5.568-0.686v-3.945h-5.07c-0.467,0-0.846-0.379-0.846-0.846v-3.379c0-0.468,0.379-0.846,0.846-0.846h1.029
		l2.803-11.209l-3.119,4.902C10.687,19.862,10.411,20,10.134,20c-0.156,0-0.313-0.041-0.453-0.131
		c-0.395-0.252-0.51-0.773-0.26-1.166l5.916-9.296c0-0.003,0.004-0.007,0.006-0.009c0.006-0.01,0.014-0.019,0.02-0.027
		c0.016-0.021,0.031-0.039,0.047-0.058l0,0c0.014-0.017,0.023-0.032,0.037-0.044c0.008-0.009,0.018-0.016,0.023-0.022
		c0.018-0.016,0.037-0.03,0.055-0.043c0.004-0.005,0.008-0.007,0.012-0.013c0.012-0.009,0.023-0.019,0.035-0.026
		c0.008-0.007,0.02-0.013,0.029-0.017c0.018-0.014,0.039-0.022,0.057-0.033C15.673,9.107,15.687,9.1,15.7,9.092
		c0.004,0,0.008-0.004,0.012-0.006c0.012-0.004,0.021-0.008,0.033-0.012c0.021-0.008,0.045-0.016,0.066-0.021
		c0.012-0.003,0.02-0.007,0.031-0.009c0.008-0.002,0.016-0.006,0.025-0.008c0.01-0.003,0.021-0.004,0.033-0.006
		c0.025-0.005,0.051-0.006,0.076-0.009c0.02-0.002,0.039-0.004,0.057-0.004c0.004,0,0.01-0.003,0.016-0.003h0.844V8.171
		c0-0.468,0.379-0.845,0.846-0.845s0.844,0.377,0.844,0.845v0.845h0.846c0.021,0,0.045,0.005,0.064,0.007
		c0.029,0.003,0.057,0.003,0.084,0.009c0.029,0.006,0.059,0.014,0.086,0.021c0.023,0.006,0.047,0.014,0.07,0.022
		c0.029,0.011,0.057,0.026,0.084,0.039c0.021,0.012,0.043,0.021,0.061,0.034c0.025,0.016,0.049,0.034,0.072,0.053
		c0.02,0.016,0.039,0.03,0.059,0.046c0.014,0.014,0.025,0.03,0.039,0.044c0.004,0.004,0.008,0.01,0.01,0.014
		c0.004,0.002,0.008,0.004,0.008,0.006c0.018,0.021,0.035,0.04,0.051,0.061c0.01,0.014,0.02,0.029,0.027,0.044
		c0.006,0.007,0.01,0.01,0.012,0.016l4.344,7.233c1.072,1.791,2.975,2.863,5.07,2.873c0.432,0,0.869-0.052,1.293-0.145
		c0.447-0.094,0.914,0.203,1.006,0.641c0.051,0.221,0.008,0.449-0.109,0.644c-0.119,0.187-0.314,0.321-0.533,0.373
		c-0.541,0.116-1.1,0.178-1.656,0.178h-0.018c-2.686,0-5.119-1.38-6.506-3.692l-1.42-2.367l2.688,10.748h10.512l2.689-10.766
		l-0.771,1.285c-0.15,0.262-0.422,0.414-0.719,0.414c-0.15,0-0.303-0.043-0.438-0.119c-0.398-0.245-0.525-0.762-0.289-1.157
		l3.684-6.143c0.004-0.007,0.01-0.011,0.014-0.019c0.01-0.014,0.018-0.027,0.027-0.04c0.016-0.02,0.029-0.038,0.045-0.056
		c0.008-0.01,0.016-0.02,0.023-0.027c0.014-0.014,0.025-0.027,0.037-0.04c0.02-0.018,0.043-0.034,0.063-0.05
		c0.023-0.019,0.045-0.035,0.068-0.051c0.021-0.014,0.043-0.023,0.064-0.036c0.027-0.011,0.053-0.026,0.08-0.037
		c0.023-0.009,0.049-0.017,0.074-0.022c0.027-0.008,0.055-0.016,0.084-0.021c0.025-0.006,0.057-0.006,0.084-0.009
		c0.021-0.002,0.043-0.007,0.064-0.007h0.844V8.171c0-0.468,0.379-0.845,0.846-0.845c0.469,0,0.846,0.377,0.846,0.845v0.845h0.844
		c0.008,0,0.012,0.003,0.016,0.003c0.02,0,0.037,0.002,0.057,0.004c0.023,0.003,0.053,0.004,0.076,0.009
		c0.012,0.002,0.023,0.003,0.033,0.006c0.01,0.002,0.02,0.006,0.027,0.008c0.01,0.002,0.016,0.006,0.025,0.008
		c0.025,0.006,0.047,0.014,0.074,0.022c0.008,0.003,0.02,0.007,0.027,0.011c0.006,0.004,0.01,0.006,0.014,0.009
		c0.016,0.007,0.023,0.013,0.039,0.019c0.02,0.012,0.041,0.021,0.063,0.035c0.01,0.004,0.02,0.01,0.027,0.017
		c0.014,0.009,0.025,0.021,0.037,0.032c0.004,0,0.004,0.002,0.004,0.002c0.023,0.016,0.041,0.032,0.061,0.049
		c0.01,0.008,0.016,0.013,0.023,0.02c0.012,0.014,0.021,0.029,0.037,0.043c0.016,0.021,0.031,0.04,0.045,0.061
		c0.01,0.009,0.016,0.018,0.023,0.027c0,0.002,0.004,0.006,0.004,0.009l5.916,9.296c0.252,0.393,0.135,0.914-0.26,1.166
		C49.319,19.959,49.161,20,49.007,20c-0.279,0-0.553-0.138-0.715-0.391l-3.119-4.902l2.801,11.209h1.031
		c0.467,0,0.846,0.378,0.846,0.846v3.379c0,0.467-0.379,0.846-0.846,0.846H43.935z M10.979,29.296h4.225v-1.688h-3.381h-0.844
		V29.296z M16.894,30.986v4.785c0.535,0.205,1.111,0.298,1.689,0.27v-5.055v-0.846v-0.845v-1.688v-0.846v-0.846V10.707h-0.844
		h-0.846v15.209v0.846v0.846v1.688v0.845V30.986z M23.653,27.607h-3.379v1.688h18.59v-1.688h-3.379H23.653z M42.245,30.141v-0.845
		v-1.688v-0.846v-0.846V10.707h-0.846h-0.846v15.209v0.846v0.846v1.688v0.845v0.846v5.055c0.576,0.028,1.154-0.064,1.691-0.27
		v-4.785V30.141z M48.159,27.607h-0.846h-3.379v1.688h4.225V27.607z M43.935,16.727v9.189h2.295L43.935,16.727z M36.567,25.916
		h2.297v-9.189L36.567,25.916z M20.274,16.727v9.189h2.299L20.274,16.727z M12.905,25.916h2.299v-9.189L12.905,25.916z
		 M38.606,35.464c0.084,0.052,0.17,0.099,0.258,0.144v-4.621h-18.59v4.621c0.088-0.045,0.174-0.092,0.256-0.144l0.422-0.257
		c1.838-1.12,4.213-1.12,6.051,0l0.422,0.257c1.303,0.794,2.988,0.794,4.289,0l0.422-0.257c1.838-1.12,4.211-1.12,6.049,0
		L38.606,35.464z M39.827,41.896c0.035,0.009,0.076,0.009,0.119,0.009c0.414,0,0.77-0.297,0.836-0.711
		c0.035-0.22-0.018-0.445-0.152-0.625c-0.127-0.186-0.32-0.305-0.541-0.336c0,0-0.008,0-0.008-0.01
		c-0.457-0.069-0.895,0.252-0.971,0.71c-0.076,0.456,0.242,0.887,0.699,0.963C39.819,41.896,39.819,41.896,39.827,41.896z
		 M46.349,38.751c-0.1-0.008-0.182-0.008-0.26-0.008c-1.072,0-2.113,0.288-3.025,0.838l-0.168,0.109
		c-0.033,0.017-0.066,0.042-0.102,0.06c-0.193,0.109-0.338,0.287-0.4,0.507c-0.057,0.218-0.031,0.446,0.08,0.642
		c0.15,0.264,0.439,0.431,0.742,0.431c0.145,0,0.289-0.041,0.416-0.11c0.033-0.017,0.072-0.041,0.111-0.066l0.211-0.127
		c0.631-0.389,1.363-0.592,2.135-0.592c0.059,0,0.119,0,0.152,0c0.457,0.026,0.871-0.33,0.896-0.786
		C47.169,39.173,46.808,38.777,46.349,38.751z M15.364,41.135c1.801,1.09,4.242,1.09,6.043,0l0.422-0.261
		c1.275-0.777,3.025-0.777,4.293,0l0.42,0.261c0.906,0.541,1.945,0.838,3.027,0.838c1.072,0,2.121-0.288,3.025-0.838l0.422-0.261
		c1.039-0.634,2.4-0.761,3.557-0.347c0.432,0.15,0.93-0.086,1.082-0.506c0.162-0.44-0.066-0.932-0.506-1.082
		c-1.623-0.594-3.531-0.407-5.012,0.489l-0.422,0.262c-1.277,0.77-3.018,0.77-4.293,0l-0.422-0.262
		c-1.793-1.099-4.242-1.099-6.051,0l-0.424,0.262c-1.268,0.77-3.016,0.77-4.283,0l-0.178-0.109c-0.963-0.585-2.096-0.88-3.262-0.83
		c-0.465,0.019-0.828,0.422-0.803,0.89c0.018,0.456,0.373,0.819,0.887,0.793c0.051,0,0.111,0,0.152,0
		c0.77,0,1.512,0.203,2.146,0.592L15.364,41.135z M43.067,43.807l-0.17,0.108c-1.305,0.793-2.986,0.793-4.291,0l-0.422-0.259
		c-1.838-1.121-4.211-1.121-6.049,0l-0.422,0.259c-1.301,0.793-2.986,0.793-4.289,0l-0.422-0.259c-1.838-1.121-4.213-1.121-6.051,0
		l-0.422,0.259c-1.303,0.793-2.986,0.793-4.289-0.002l-0.172-0.106c-0.398-0.24-0.92-0.113-1.162,0.283
		c-0.242,0.399-0.117,0.92,0.283,1.165l0.172,0.102c1.838,1.121,4.211,1.121,6.049,0l0.422-0.257c1.303-0.795,2.988-0.795,4.289,0
		l0.422,0.257c1.84,1.121,4.213,1.121,6.051,0l0.422-0.257c1.303-0.795,2.986-0.795,4.289,0l0.422,0.257
		c0.92,0.562,1.973,0.842,3.027,0.842c1.049,0,2.102-0.28,3.021-0.839l0.172-0.104c0.398-0.245,0.525-0.766,0.283-1.165
		C43.989,43.693,43.468,43.566,43.067,43.807z"/>
</g>
</svg>
