<?xml version="1.0" encoding="utf-8"?>
<!-- Generator: Adobe Illustrator 16.0.0, SVG Export Plug-In . SVG Version: 6.00 Build 0)  -->
<!DOCTYPE svg PUBLIC "-//W3C//DTD SVG 1.1//EN" "http://www.w3.org/Graphics/SVG/1.1/DTD/svg11.dtd">
<svg version="1.1" id="레이어_1" xmlns="http://www.w3.org/2000/svg" xmlns:xlink="http://www.w3.org/1999/xlink" x="0px"
	 y="0px" width="120px" height="80px" viewBox="0 0 120 80" enable-background="new 0 0 120 80" xml:space="preserve">
<g>
	<polygon fill="none" points="79.393,30.099 75.662,26.369 79.392,30.099 	"/>
	<polygon fill="none" points="79.995,59.313 79.996,59.313 78.604,57.905 	"/>
	<polygon fill="none" points="79.995,38.442 75.848,42.633 79.996,38.442 	"/>
	<polygon fill="none" points="31.652,38.442 27.504,42.633 31.652,38.442 44.347,38.442 48.496,42.633 44.347,38.442 	"/>
	<polygon fill="none" points="43.76,63.915 42.126,65.593 43.76,63.916 	"/>
	<rect x="61.605" y="69.744" fill="none" width="0.001" height="4.33"/>
	<polygon fill="none" points="72.512,72.527 70.191,74.842 70.192,74.843 	"/>
	<rect x="77.296" y="72.383" fill="none" width="1.639" height="0.001"/>
	<path fill="none" d="M106.117,76.302c1.812,0.189,2.106,0.979,2.107,1.476C108.225,77.281,107.929,76.491,106.117,76.302z"/>
	<polygon fill="none" points="101.949,73.204 105.23,71.57 105.23,71.57 	"/>
	<polygon fill="#565153" points="60.331,75.84 64.372,75.84 64.372,79.14 65.152,79.14 65.152,75.84 69.214,75.84 69.214,75.102 
		60.331,75.102 	"/>
	<path fill="#565153" d="M61.606,69.744v4.33h6.333v-4.33h-0.769v1.512h-4.797v-1.512H61.606z M67.171,71.993v1.342h-4.797v-1.342
		H67.171z"/>
	<polygon fill="#565153" points="72.114,75.603 71.336,75.603 71.336,78.962 77.622,78.962 77.622,78.232 72.114,78.232 	"/>
	<polygon fill="#565153" points="77.296,72.383 77.296,69.576 76.518,69.576 76.518,76.331 77.296,76.331 77.296,73.133 
		78.935,73.133 78.935,72.384 77.296,72.384 	"/>
	<path fill="#565153" d="M82.258,70.177c-1.507,0-2.479,1.287-2.479,3.282c0,2.01,0.973,3.307,2.479,3.307
		c1.496,0,2.46-1.297,2.46-3.307C84.718,71.464,83.754,70.177,82.258,70.177z M82.269,76.035c-1.046,0-1.721-1.006-1.721-2.564
		s0.675-2.565,1.721-2.565c1.004,0,1.682,1.03,1.682,2.565C83.95,75.029,83.289,76.035,82.269,76.035z"/>
	<rect x="86.294" y="69.576" fill="#565153" width="0.779" height="9.532"/>
	<polygon fill="#565153" points="96.063,69.576 95.285,69.576 95.285,79.108 96.063,79.108 96.063,74.237 97.74,74.237 
		97.74,73.488 96.063,73.488 	"/>
	<polygon fill="#565153" points="105.634,72.423 104.857,72.423 104.857,73.508 100.792,73.508 100.792,74.237 109.677,74.237 
		109.677,73.508 105.634,73.508 	"/>
	<path fill="#565153" d="M105.244,79.325c1.894,0,2.98-0.564,2.98-1.548C108.224,78.761,107.138,79.325,105.244,79.325z"/>
	<path fill="#565153" d="M106.117,76.302c-0.259-0.027-0.549-0.042-0.873-0.042c-1.894,0-2.98,0.554-2.98,1.518
		c0,0.58,0.387,1.548,2.98,1.548c1.894,0,2.979-0.564,2.98-1.548C108.224,77.281,107.929,76.491,106.117,76.302z M105.244,78.605
		c-1.315,0-2.201-0.325-2.201-0.809c0-0.496,0.844-0.807,2.201-0.807c1.324,0,2.182,0.317,2.182,0.807
		C107.426,78.28,106.55,78.605,105.244,78.605z"/>
	<polygon fill="#565153" points="105.634,74.521 104.857,74.521 104.857,75.199 101.678,75.199 101.678,75.929 108.784,75.929 
		108.784,75.199 105.634,75.199 	"/>
	<polygon fill="#565153" points="117.493,69.576 116.715,69.576 116.715,79.108 117.493,79.108 117.493,74.237 119.17,74.237 
		119.17,73.488 117.493,73.488 	"/>
	<polygon fill="#565153" points="105.23,71.57 108.51,73.204 105.231,71.57 	"/>
	<polygon fill="#565153" points="104.857,70.959 101.631,72.567 101.949,73.204 101.632,72.567 	"/>
	<polygon fill="#565153" points="101.632,72.567 101.949,73.204 105.23,71.57 105.23,71.57 105.231,71.57 108.51,73.204 
		108.828,72.567 105.634,70.975 105.634,70.414 108.45,70.414 108.45,69.685 102.03,69.685 102.03,70.414 104.857,70.414 
		104.857,70.959 	"/>
	<polygon fill="#565153" points="70.191,74.843 70.191,74.842 69.664,74.314 	"/>
	<polygon fill="#565153" points="74.751,74.77 74.844,74.859 75.374,74.334 72.883,71.838 72.883,69.752 72.136,69.752 
		72.136,71.838 69.755,74.221 69.664,74.314 70.191,74.842 72.512,72.527 	"/>
	<polygon fill="#565153" points="89.843,73.751 93.305,73.751 93.305,70.215 89.073,70.215 89.073,70.945 92.536,70.945 
		92.536,73.022 89.073,73.022 89.073,76.734 94.768,76.734 94.768,76.005 89.843,76.005 	"/>
	<polygon fill="#565153" points="111.417,71.014 115.011,71.014 115.011,70.284 110.648,70.284 110.648,76.43 116.188,76.43 
		116.188,75.699 111.417,75.699 	"/>
	<linearGradient id="SVGID_1_" gradientUnits="userSpaceOnUse" x1="0.7832" y1="48.877" x2="118.2635" y2="48.877">
		<stop  offset="0" style="stop-color:#D51575"/>
		<stop  offset="0.2" style="stop-color:#D51575"/>
		<stop  offset="1" style="stop-color:#61237C"/>
	</linearGradient>
	<path fill="url(#SVGID_1_)" d="M72.315,55.122V42.633l-4.19-4.19H56.559l-4.148,4.19v12.489l4.148,4.19h11.566L72.315,55.122z
		 M67.581,53.466l-1.678,1.677h-7.082l-1.676-1.677v-9.17l1.676-1.675h7.082l1.678,1.675V53.466z"/>
	<linearGradient id="SVGID_2_" gradientUnits="userSpaceOnUse" x1="0.8735" y1="56.5127" x2="118.3539" y2="56.5127">
		<stop  offset="0" style="stop-color:#D51575"/>
		<stop  offset="0.2" style="stop-color:#D51575"/>
		<stop  offset="1" style="stop-color:#61237C"/>
	</linearGradient>
	<polygon fill="url(#SVGID_2_)" points="75.848,55.122 78.604,57.905 75.848,55.12 	"/>
	<linearGradient id="SVGID_3_" gradientUnits="userSpaceOnUse" x1="0.8735" y1="57.2168" x2="118.3539" y2="57.2168">
		<stop  offset="0" style="stop-color:#D51575"/>
		<stop  offset="0.2" style="stop-color:#D51575"/>
		<stop  offset="1" style="stop-color:#61237C"/>
	</linearGradient>
	<polygon fill="url(#SVGID_3_)" points="95.753,55.122 95.753,55.12 91.563,59.313 	"/>
	<linearGradient id="SVGID_4_" gradientUnits="userSpaceOnUse" x1="0.8735" y1="48.877" x2="118.3539" y2="48.877">
		<stop  offset="0" style="stop-color:#D51575"/>
		<stop  offset="0.2" style="stop-color:#D51575"/>
		<stop  offset="1" style="stop-color:#61237C"/>
	</linearGradient>
	<path fill="url(#SVGID_4_)" d="M79.996,38.442l-4.148,4.19V55.12l2.756,2.785l1.393,1.407h11.566l4.19-4.192V42.633l-4.19-4.19
		H79.996z M91.018,53.466l-1.677,1.677h-7.082l-1.676-1.677v-9.17l1.676-1.675h7.082l1.677,1.675V53.466z"/>
	
		<linearGradient id="SVGID_5_" gradientUnits="userSpaceOnUse" x1="-25.5776" y1="-528.1289" x2="-25.4163" y2="-528.1289" gradientTransform="matrix(726.4143 3.8708 -3.8708 726.4143 16536.5 383758.5)">
		<stop  offset="0" style="stop-color:#D51575"/>
		<stop  offset="0.2" style="stop-color:#D51575"/>
		<stop  offset="1" style="stop-color:#61237C"/>
	</linearGradient>
	<polygon fill="url(#SVGID_5_)" points="114.999,9.229 103.775,9.229 99.627,13.42 99.627,30.099 104.362,30.099 104.362,15.08 
		106.039,13.404 112.778,13.404 114.454,15.08 114.454,30.099 119.19,30.099 119.19,30.084 119.19,13.42 	"/>
	
		<linearGradient id="SVGID_6_" gradientUnits="userSpaceOnUse" x1="-25.5781" y1="-528.1318" x2="-25.4168" y2="-528.1318" gradientTransform="matrix(726.4143 3.8708 -3.8708 726.4143 16536.5 383760.5)">
		<stop  offset="0" style="stop-color:#D51575"/>
		<stop  offset="0.2" style="stop-color:#D51575"/>
		<stop  offset="1" style="stop-color:#61237C"/>
	</linearGradient>
	<polygon fill="url(#SVGID_6_)" points="43.709,30.099 47.858,25.908 47.858,9.229 47.851,9.229 43.123,9.229 43.123,24.24 
		41.447,25.916 34.708,25.916 33.032,24.24 33.032,9.229 28.296,9.229 28.296,25.908 32.486,30.099 	"/>
	
		<linearGradient id="SVGID_7_" gradientUnits="userSpaceOnUse" x1="-25.5786" y1="-528.272" x2="-25.4199" y2="-528.272" gradientTransform="matrix(726.4143 3.8708 -3.8708 726.4143 16536 383882)">
		<stop  offset="0" style="stop-color:#D51575"/>
		<stop  offset="0.2" style="stop-color:#D51575"/>
		<stop  offset="1" style="stop-color:#61237C"/>
	</linearGradient>
	<polygon fill="url(#SVGID_7_)" points="1.841,37.46 0.81,38.466 0.81,39.925 1.841,40.931 3.375,40.931 4.406,39.925 4.406,38.466 
		3.375,37.46 	"/>
	
		<linearGradient id="SVGID_8_" gradientUnits="userSpaceOnUse" x1="-25.5791" y1="-528.3408" x2="-25.4222" y2="-528.3408" gradientTransform="matrix(726.4143 3.8708 -3.8708 726.4143 16535.5 383942)">
		<stop  offset="0" style="stop-color:#D51575"/>
		<stop  offset="0.2" style="stop-color:#D51575"/>
		<stop  offset="1" style="stop-color:#61237C"/>
	</linearGradient>
	<rect x="1.187" y="42.616" fill="url(#SVGID_8_)" width="2.842" height="12.527"/>
	<linearGradient id="SVGID_9_" gradientUnits="userSpaceOnUse" x1="1.0723" y1="45.958" x2="118.5593" y2="45.958">
		<stop  offset="0" style="stop-color:#D51575"/>
		<stop  offset="0.2" style="stop-color:#D51575"/>
		<stop  offset="1" style="stop-color:#61237C"/>
	</linearGradient>
	<path fill="url(#SVGID_9_)" d="M114.454,32.604v5.839h-11.021l-4.149,4.19V55.12l4.149,4.192h11.607l4.149-4.192V32.604h-0.007
		H114.454z M114.454,53.466l-1.676,1.677h-7.083l-1.676-1.677v-9.17l1.676-1.675h8.759V53.466z"/>
	<linearGradient id="SVGID_10_" gradientUnits="userSpaceOnUse" x1="0.8433" y1="15.4844" x2="118.0948" y2="15.4844">
		<stop  offset="0" style="stop-color:#D51575"/>
		<stop  offset="0.2" style="stop-color:#D51575"/>
		<stop  offset="1" style="stop-color:#61237C"/>
	</linearGradient>
	<path fill="url(#SVGID_10_)" d="M22.832,13.07V4.98l-4.109-4.11H1.187v29.229h0.008h18.501l4.448-4.448v-7.624l-3.135-3.135
		L22.832,13.07z M5.974,5.022h10.333l1.694,1.695v4.955l-1.737,1.737H5.974V5.022z M19.315,23.914l-2.034,2.033H5.974v-8.556h11.307
		l2.034,1.991V23.914z"/>
	<linearGradient id="SVGID_11_" gradientUnits="userSpaceOnUse" x1="0.8398" y1="19.6641" x2="118.6234" y2="19.6641">
		<stop  offset="0" style="stop-color:#D51575"/>
		<stop  offset="0.2" style="stop-color:#D51575"/>
		<stop  offset="1" style="stop-color:#61237C"/>
	</linearGradient>
	<path fill="url(#SVGID_11_)" d="M92.118,30.099l3.73-3.729V13.546l-4.274-4.316h-11.47l-4.275,4.316v2.43h4.652v-1.225l1.551-1.551
		h7.613l1.551,1.551v2.927H79.393l-3.73,3.688v5.003l3.73,3.729H92.118z M80.313,22.95l1.341-1.3h9.542v3.221l-1.258,1.257h-8.367
		l-1.258-1.257V22.95z"/>
	
		<linearGradient id="SVGID_12_" gradientUnits="userSpaceOnUse" x1="-25.5776" y1="-528.1309" x2="-25.4172" y2="-528.1309" gradientTransform="matrix(726.4143 3.8708 -3.8708 726.4143 16536.5 383760)">
		<stop  offset="0" style="stop-color:#D51575"/>
		<stop  offset="0.2" style="stop-color:#D51575"/>
		<stop  offset="1" style="stop-color:#61237C"/>
	</linearGradient>
	<polygon fill="url(#SVGID_12_)" points="68.002,30.099 71.732,26.369 71.732,21.374 68.002,17.687 57.706,17.687 56.364,16.388 
		56.364,14.765 57.915,13.215 65.335,13.215 66.885,14.765 66.885,15.976 71.536,15.976 71.536,13.546 67.14,9.229 55.988,9.229 
		51.713,13.546 51.713,17.955 55.443,21.642 65.739,21.642 67.08,22.941 67.08,24.871 65.823,26.127 57.617,26.127 56.359,24.871 
		56.359,23.356 51.708,23.356 51.708,26.369 55.276,30.099 	"/>
	
		<linearGradient id="SVGID_13_" gradientUnits="userSpaceOnUse" x1="-25.5791" y1="-528.3472" x2="-25.4187" y2="-528.3472" gradientTransform="matrix(726.4143 3.8708 -3.8708 726.4143 16535.5 383941.5)">
		<stop  offset="0" style="stop-color:#D51575"/>
		<stop  offset="0.2" style="stop-color:#D51575"/>
		<stop  offset="1" style="stop-color:#61237C"/>
	</linearGradient>
	<polygon fill="url(#SVGID_13_)" points="16.644,42.624 19.281,45.212 16.644,42.623 9.827,42.623 7.264,45.212 9.827,42.624 	"/>
	
		<linearGradient id="SVGID_14_" gradientUnits="userSpaceOnUse" x1="-25.5791" y1="-528.3403" x2="-25.4187" y2="-528.3403" gradientTransform="matrix(726.4143 3.8708 -3.8708 726.4143 16535.5 383941.5)">
		<stop  offset="0" style="stop-color:#D51575"/>
		<stop  offset="0.2" style="stop-color:#D51575"/>
		<stop  offset="1" style="stop-color:#61237C"/>
	</linearGradient>
	<polygon fill="url(#SVGID_14_)" points="10.857,47.695 10.054,46.916 10.054,45.943 10.983,45.014 15.561,45.014 16.491,45.943 
		16.491,46.67 19.281,46.67 19.281,45.212 16.644,42.624 9.827,42.624 7.264,45.212 7.264,47.855 9.5,50.067 15.804,50.067 
		16.608,50.847 16.608,52.002 15.855,52.756 10.804,52.756 10.05,52.002 10.05,51.095 7.261,51.095 7.261,52.901 9.4,55.139 
		17.161,55.139 19.398,52.901 19.398,49.906 17.161,47.695 	"/>
	<linearGradient id="SVGID_15_" gradientUnits="userSpaceOnUse" x1="0.7915" y1="67.708" x2="117.9365" y2="67.708">
		<stop  offset="0" style="stop-color:#D51575"/>
		<stop  offset="0.2" style="stop-color:#D51575"/>
		<stop  offset="1" style="stop-color:#61237C"/>
	</linearGradient>
	<polygon fill="url(#SVGID_15_)" points="27.504,65.844 31.071,69.573 27.504,65.843 	"/>
	<linearGradient id="SVGID_16_" gradientUnits="userSpaceOnUse" x1="0.7915" y1="54.0078" x2="117.9363" y2="54.0078">
		<stop  offset="0" style="stop-color:#D51575"/>
		<stop  offset="0.2" style="stop-color:#D51575"/>
		<stop  offset="1" style="stop-color:#61237C"/>
	</linearGradient>
	<path fill="url(#SVGID_16_)" d="M31.652,38.442l-4.148,4.19V55.12l4.148,4.192H43.76v4.603v0.001l-1.634,1.677h-8.63l-1.257-1.258
		V62.82l-4.735,0.011v3.012l3.567,3.73H44.18l4.316-4.274V42.633l-4.149-4.19H31.652z M43.76,55.143h-9.845l-1.676-1.677v-9.17
		l1.676-1.675h8.169l1.676,1.675V55.143z"/>
</g>
</svg>
