<?xml version="1.0" encoding="utf-8"?>
<!-- Generator: Adobe Illustrator 16.0.0, SVG Export Plug-In . SVG Version: 6.00 Build 0)  -->
<!DOCTYPE svg PUBLIC "-//W3C//DTD SVG 1.1//EN" "http://www.w3.org/Graphics/SVG/1.1/DTD/svg11.dtd">
<svg version="1.1" id="레이어_1" xmlns="http://www.w3.org/2000/svg" xmlns:xlink="http://www.w3.org/1999/xlink" x="0px"
	 y="0px" width="96.15px" height="86.352px" viewBox="0 0 96.15 86.352" enable-background="new 0 0 96.15 86.352"
	 xml:space="preserve">
<path fill="#0047BA" d="M30.724,7.009c0-2.077,1.683-3.762,3.76-3.762c2.077,0,3.763,1.685,3.763,3.762
	c0,2.08-1.686,3.763-3.763,3.763C32.407,10.772,30.724,9.089,30.724,7.009"/>
<path fill="#0047BA" d="M34.483,22.201c-5.932,0-11.861-2.256-16.374-6.771c-1.462-1.46-1.462-3.829,0-5.288
	c1.46-1.462,3.827-1.462,5.288,0c6.112,6.112,16.061,6.111,22.173-0.002c1.462-1.46,3.83-1.46,5.291,0.002
	c1.459,1.459,1.459,3.827,0,5.288C46.344,19.944,40.414,22.201,34.483,22.201"/>
<path fill="#0047BA" d="M65.709,18.56c0,2.079-1.685,3.762-3.761,3.762c-2.078,0-3.762-1.683-3.762-3.762
	c0-2.078,1.684-3.763,3.762-3.763C64.025,14.797,65.709,16.482,65.709,18.56"/>
<path fill="#0047BA" d="M48.216,16.525c-0.958,0-1.913-0.365-2.646-1.095c-1.458-1.462-1.458-3.829,0-5.29
	c9.031-9.028,23.727-9.03,32.752,0c1.463,1.46,1.463,3.828,0,5.289c-1.459,1.46-3.826,1.46-5.287,0
	c-6.113-6.112-16.061-6.112-22.174,0.001C50.13,16.16,49.173,16.525,48.216,16.525"/>
<path fill="#40B4E5" d="M30.724,67.039c0-2.076,1.683-3.761,3.76-3.761c2.077,0,3.763,1.685,3.763,3.761
	c0,2.08-1.686,3.764-3.763,3.764C32.407,70.803,30.724,69.119,30.724,67.039"/>
<path fill="#40B4E5" d="M34.483,82.232c-5.932,0-11.861-2.258-16.374-6.771c-1.462-1.461-1.462-3.83,0-5.29
	c1.46-1.46,3.827-1.46,5.288,0c6.112,6.112,16.061,6.112,22.173,0c1.462-1.462,3.83-1.46,5.291,0c1.459,1.46,1.459,3.829,0,5.288
	C46.344,79.974,40.414,82.232,34.483,82.232"/>
<path fill="#40B4E5" d="M65.709,78.59c0,2.078-1.685,3.762-3.761,3.762c-2.078,0-3.762-1.684-3.762-3.762s1.684-3.762,3.762-3.762
	C64.025,74.828,65.709,76.512,65.709,78.59"/>
<path fill="#40B4E5" d="M48.216,76.555c-0.958,0-1.913-0.365-2.646-1.096c-1.458-1.459-1.458-3.828,0-5.289
	c9.031-9.028,23.727-9.029,32.752,0c1.463,1.459,1.463,3.828,0,5.289c-1.459,1.459-3.826,1.459-5.287,0
	c-6.113-6.113-16.061-6.112-22.174,0C50.13,76.189,49.173,76.555,48.216,76.555"/>
<path fill="#BBC7D7" d="M44.453,42.801c0-2.079,1.685-3.764,3.762-3.764c2.075,0,3.763,1.685,3.763,3.764
	c0,2.076-1.688,3.762-3.763,3.762C46.138,46.563,44.453,44.877,44.453,42.801"/>
<path fill="#BBC7D7" d="M79.441,56.013c0,2.079-1.683,3.762-3.761,3.762c-2.077,0-3.763-1.683-3.763-3.762
	c0-2.078,1.686-3.763,3.763-3.763C77.758,52.25,79.441,53.935,79.441,56.013"/>
<path fill="#BBC7D7" d="M61.949,53.979c-0.959,0-1.914-0.367-2.646-1.097c-1.46-1.461-1.46-3.828,0-5.289
	c9.03-9.03,23.722-9.031,32.752-0.002c1.46,1.462,1.46,3.83,0,5.29s-3.827,1.46-5.289,0c-6.112-6.113-16.06-6.113-22.173,0.001
	C63.861,53.611,62.904,53.979,61.949,53.979"/>
<path fill="#BBC7D7" d="M24.515,56.013c0,2.079-1.683,3.762-3.762,3.762c-2.078,0-3.764-1.683-3.764-3.762
	c0-2.078,1.686-3.763,3.764-3.763C22.832,52.25,24.515,53.935,24.515,56.013"/>
<path fill="#BBC7D7" d="M7.02,53.979c-0.957,0-1.913-0.367-2.642-1.097c-1.462-1.461-1.462-3.828,0-5.289
	c9.03-9.03,23.723-9.031,32.752-0.002c1.458,1.462,1.458,3.83,0,5.29c-1.46,1.46-3.83,1.46-5.289,0
	c-6.114-6.113-16.062-6.113-22.175,0.001C8.935,53.611,7.978,53.979,7.02,53.979"/>
<path fill="#BBC7D7" d="M48.215,59.655c-5.932,0-11.86-2.259-16.374-6.772c-1.461-1.461-1.461-3.83,0-5.289
	c1.459-1.461,3.829-1.461,5.289,0c6.112,6.113,16.059,6.111,22.174-0.002c1.459-1.459,3.828-1.459,5.289,0.002
	c1.457,1.459,1.457,3.828,0,5.289C60.077,57.396,54.145,59.655,48.215,59.655"/>
<path fill="#00ADBB" d="M16.989,29.588c0-2.078,1.683-3.763,3.762-3.763c2.078,0,3.764,1.685,3.764,3.763
	c0,2.079-1.686,3.762-3.764,3.762C18.672,33.35,16.989,31.667,16.989,29.588"/>
<path fill="#00ADBB" d="M20.751,44.779c-5.931,0-11.859-2.258-16.373-6.771c-1.463-1.461-1.463-3.829,0-5.289
	c1.459-1.46,3.826-1.46,5.287,0c6.113,6.113,16.061,6.113,22.176-0.002c1.459-1.459,3.829-1.459,5.288,0.002
	c1.459,1.46,1.459,3.828,0,5.289C32.612,42.521,26.68,44.779,20.751,44.779"/>
<path fill="#00ADBB" d="M71.917,29.588c0-2.078,1.682-3.763,3.76-3.763c2.079,0,3.764,1.685,3.764,3.763
	c0,2.079-1.685,3.762-3.764,3.762C73.599,33.35,71.917,31.667,71.917,29.588"/>
<path fill="#00ADBB" d="M75.677,44.779c-5.931,0-11.859-2.258-16.373-6.771c-1.461-1.461-1.461-3.829,0-5.289
	c1.459-1.46,3.828-1.46,5.289,0c6.11,6.113,16.06,6.113,22.174-0.002c1.461-1.459,3.83-1.459,5.287,0.002
	c1.461,1.46,1.461,3.828,0,5.289C87.539,42.521,81.61,44.779,75.677,44.779"/>
<path fill="#00ADBB" d="M34.483,39.102c-0.958,0-1.916-0.364-2.644-1.095c-1.46-1.461-1.46-3.828,0.001-5.29
	c9.029-9.028,23.722-9.029,32.752-0.001c1.459,1.463,1.459,3.83,0,5.29c-1.462,1.46-3.83,1.46-5.292,0
	c-6.111-6.112-16.058-6.112-22.171,0.001C36.399,38.738,35.441,39.102,34.483,39.102"/>
</svg>
