<?xml version="1.0" encoding="utf-8"?>
<!-- Generator: Adobe Illustrator 16.0.0, SVG Export Plug-In . SVG Version: 6.00 Build 0)  -->
<!DOCTYPE svg PUBLIC "-//W3C//DTD SVG 1.1//EN" "http://www.w3.org/Graphics/SVG/1.1/DTD/svg11.dtd">
<svg version="1.1" id="레이어_1" xmlns="http://www.w3.org/2000/svg" xmlns:xlink="http://www.w3.org/1999/xlink" x="0px"
	 y="0px" width="96px" height="135px" viewBox="0 0 96 135" enable-background="new 0 0 96 135" xml:space="preserve">
<path fill="#222" d="M81.398,117.912H52v-13.874c0-2.209-1.791-4-4-4h-1.801c-14.567,0-26.419-11.851-26.419-26.418v-4.936h3.559
	v2.526c0,13.598,11.063,24.661,24.661,24.661s24.661-11.063,24.661-24.661v-2.526h3.559v4.936c0,8.076-3.66,15.616-10.042,20.687
	c-1.729,1.375-2.018,3.891-0.644,5.62c0.789,0.994,1.956,1.512,3.134,1.512c0.872,0,1.75-0.284,2.486-0.868
	c8.303-6.597,13.065-16.42,13.065-26.95V47.335c0-2.209-1.791-4-4-4s-4,1.791-4,4v13.349h-3.559V33.75
	C72.661,20.151,61.599,9.088,48,9.088S23.339,20.151,23.339,33.75v26.934H19.78V47.335c0-2.209-1.791-4-4-4s-4,1.791-4,4V73.62
	c0,18.239,14.263,33.201,32.22,34.34v9.952H14.602c-2.209,0-4,1.791-4,4s1.791,4,4,4h66.797c2.209,0,4-1.791,4-4
	S83.607,117.912,81.398,117.912z M31.339,33.75c0-9.187,7.474-16.662,16.661-16.662c9.187,0,16.661,7.475,16.661,16.662v37.459
	c0,9.187-7.475,16.661-16.661,16.661c-9.188,0-16.661-7.474-16.661-16.661V33.75z"/>
</svg>
