<?xml version="1.0" encoding="utf-8"?>
<!-- Generator: Adobe Illustrator 16.0.0, SVG Export Plug-In . SVG Version: 6.00 Build 0)  -->
<!DOCTYPE svg PUBLIC "-//W3C//DTD SVG 1.1//EN" "http://www.w3.org/Graphics/SVG/1.1/DTD/svg11.dtd">
<svg version="1.1" id="레이어_1" xmlns="http://www.w3.org/2000/svg" xmlns:xlink="http://www.w3.org/1999/xlink" x="0px"
	 y="0px" width="100px" height="100px" viewBox="0 0 100 100" enable-background="new 0 0 100 100" xml:space="preserve">
<g>
	<g>
		<g>
			<path fill="#181818" d="M100,84.97L0.01,84.982L0,15.03l99.992-0.012L100,84.97z M4.876,80.115l90.258-0.012l-0.008-60.22
				L4.869,19.895L4.876,80.115z"/>
			<g>
				<polygon fill="#181818" points="4.161,74.504 0.72,71.063 27.847,43.932 42.272,58.354 38.833,61.794 27.847,50.813 				"/>
				<polygon fill="#181818" points="33.345,70.725 29.905,67.284 67.749,29.431 99.285,60.957 95.844,64.398 67.749,36.313 				"/>
			</g>
			<path fill="#181818" d="M42.539,43.834c-4.918,0-8.92-4.002-8.922-8.923c0-4.917,4.002-8.92,8.919-8.921
				c4.921,0,8.923,4.001,8.923,8.92C51.461,39.83,47.459,43.834,42.539,43.834z M42.539,30.856c-2.237,0.001-4.056,1.82-4.056,4.055
				c0.002,2.237,1.819,4.056,4.056,4.056s4.056-1.82,4.056-4.056C46.595,32.675,44.773,30.856,42.539,30.856z"/>
		</g>
	</g>
</g>
</svg>
