<?xml version="1.0" encoding="utf-8"?>
<!-- Generator: Adobe Illustrator 16.0.0, SVG Export Plug-In . SVG Version: 6.00 Build 0)  -->
<!DOCTYPE svg PUBLIC "-//W3C//DTD SVG 1.1//EN" "http://www.w3.org/Graphics/SVG/1.1/DTD/svg11.dtd">
<svg version="1.1" id="레이어_1" xmlns="http://www.w3.org/2000/svg" xmlns:xlink="http://www.w3.org/1999/xlink" x="0px"
	 y="0px" width="92px" height="16px" viewBox="0 0 92 16" enable-background="new 0 0 92 16" xml:space="preserve">
<g>
	<linearGradient id="SVGID_1_" gradientUnits="userSpaceOnUse" x1="1.3872" y1="12.332" x2="90.7688" y2="12.332">
		<stop  offset="0" style="stop-color:#E3007F"/>
		<stop  offset="0.2" style="stop-color:#E3007F"/>
		<stop  offset="1" style="stop-color:#5F1985"/>
	</linearGradient>
	<polygon fill="url(#SVGID_1_)" points="9.373,8.664 9.373,14.867 10.505,16 17.358,16 17.358,14.246 11.391,14.246 11.391,8.664 	
		"/>
	<linearGradient id="SVGID_2_" gradientUnits="userSpaceOnUse" x1="1.3931" y1="9.542" x2="90.7692" y2="9.542">
		<stop  offset="0" style="stop-color:#E3007F"/>
		<stop  offset="0.2" style="stop-color:#E3007F"/>
		<stop  offset="1" style="stop-color:#5F1985"/>
	</linearGradient>
	<polygon fill="url(#SVGID_2_)" points="41.435,3.084 41.435,7.19 41.435,8.944 43.436,8.944 49.756,8.944 49.756,14.246 
		41.435,14.246 41.435,16 50.643,16 51.773,14.867 51.773,8.323 50.643,7.19 43.436,7.19 43.436,3.084 	"/>
	<linearGradient id="SVGID_3_" gradientUnits="userSpaceOnUse" x1="1.3916" y1="8.1655" x2="90.7724" y2="8.1655">
		<stop  offset="0" style="stop-color:#E3007F"/>
		<stop  offset="0.2" style="stop-color:#E3007F"/>
		<stop  offset="1" style="stop-color:#5F1985"/>
	</linearGradient>
	<polygon fill="url(#SVGID_3_)" points="23.823,0.331 23.823,2.426 21.22,2.426 21.22,4.18 23.823,4.18 23.823,16 25.824,16 
		25.824,4.18 31.318,4.18 31.318,13.936 28.813,13.936 28.813,15.69 32.203,15.69 33.336,14.558 33.336,3.558 32.203,2.426 
		25.824,2.426 25.824,0.331 	"/>
	<linearGradient id="SVGID_4_" gradientUnits="userSpaceOnUse" x1="1.3921" y1="8.1655" x2="90.7714" y2="8.1655">
		<stop  offset="0" style="stop-color:#E3007F"/>
		<stop  offset="0.2" style="stop-color:#E3007F"/>
		<stop  offset="1" style="stop-color:#5F1985"/>
	</linearGradient>
	<polygon fill="url(#SVGID_4_)" points="5.355,0.331 5.355,2.426 2.599,2.426 2.599,4.18 5.355,4.18 5.355,16 7.356,16 7.356,4.18 
		10.112,4.18 10.112,2.426 7.356,2.426 7.356,0.331 	"/>
	<linearGradient id="SVGID_5_" gradientUnits="userSpaceOnUse" x1="1.3965" y1="1.3838" x2="90.7655" y2="1.3838">
		<stop  offset="0" style="stop-color:#E3007F"/>
		<stop  offset="0.2" style="stop-color:#E3007F"/>
		<stop  offset="1" style="stop-color:#5F1985"/>
	</linearGradient>
	<rect x="41.435" y="0.506" fill="url(#SVGID_5_)" width="8.096" height="1.754"/>
	<linearGradient id="SVGID_6_" gradientUnits="userSpaceOnUse" x1="1.3901" y1="3.3027" x2="90.784" y2="3.3027">
		<stop  offset="0" style="stop-color:#E3007F"/>
		<stop  offset="0.2" style="stop-color:#E3007F"/>
		<stop  offset="1" style="stop-color:#5F1985"/>
	</linearGradient>
	<rect x="11.458" y="2.426" fill="url(#SVGID_6_)" width="2.301" height="1.754"/>
	<linearGradient id="SVGID_7_" gradientUnits="userSpaceOnUse" x1="1.3926" y1="3.3027" x2="90.7708" y2="3.3027">
		<stop  offset="0" style="stop-color:#E3007F"/>
		<stop  offset="0.2" style="stop-color:#E3007F"/>
		<stop  offset="1" style="stop-color:#5F1985"/>
	</linearGradient>
	<rect x="15.057" y="2.426" fill="url(#SVGID_7_)" width="2.301" height="1.754"/>
	<linearGradient id="SVGID_8_" gradientUnits="userSpaceOnUse" x1="1.394" y1="8.1655" x2="90.7703" y2="8.1655">
		<stop  offset="0" style="stop-color:#E3007F"/>
		<stop  offset="0.2" style="stop-color:#E3007F"/>
		<stop  offset="1" style="stop-color:#5F1985"/>
	</linearGradient>
	<polygon fill="url(#SVGID_8_)" points="81.723,0.331 81.723,14.246 78.051,14.246 78.051,3.82 76.046,3.82 76.046,14.867 
		77.178,16 87.4,16 88.249,16 89.4,16 89.4,3.821 87.4,3.821 87.4,14.246 83.723,14.246 83.723,0.331 	"/>
	<linearGradient id="SVGID_9_" gradientUnits="userSpaceOnUse" x1="1.3872" y1="6.9609" x2="90.7688" y2="6.9609">
		<stop  offset="0" style="stop-color:#E3007F"/>
		<stop  offset="0.2" style="stop-color:#E3007F"/>
		<stop  offset="1" style="stop-color:#5F1985"/>
	</linearGradient>
	<rect x="9.373" y="6.083" fill="url(#SVGID_9_)" width="7.985" height="1.754"/>
	<linearGradient id="SVGID_10_" gradientUnits="userSpaceOnUse" x1="1.395" y1="11.8271" x2="90.7697" y2="11.8271">
		<stop  offset="0" style="stop-color:#E3007F"/>
		<stop  offset="0.2" style="stop-color:#E3007F"/>
		<stop  offset="1" style="stop-color:#5F1985"/>
	</linearGradient>
	<polygon fill="url(#SVGID_10_)" points="58.654,7.655 58.654,9.292 62.766,9.292 62.766,10.355 56.822,10.355 56.822,11.993 
		62.766,11.993 62.766,14.362 60.905,14.362 60.905,12.609 58.904,12.609 58.904,14.362 56.238,14.362 56.238,16 62.766,16 
		64.768,16 71.296,16 71.296,14.362 68.629,14.362 68.629,12.609 66.629,12.609 66.629,14.362 64.768,14.362 64.768,11.993 
		70.711,11.993 70.711,10.355 64.768,10.355 64.768,9.292 68.88,9.292 68.88,7.655 	"/>
	<linearGradient id="SVGID_11_" gradientUnits="userSpaceOnUse" x1="1.3911" y1="3.8008" x2="90.7716" y2="3.8008">
		<stop  offset="0" style="stop-color:#E3007F"/>
		<stop  offset="0.2" style="stop-color:#E3007F"/>
		<stop  offset="1" style="stop-color:#5F1985"/>
	</linearGradient>
	<polygon fill="url(#SVGID_11_)" points="64.328,0.501 64.328,2.11 65.775,2.11 63.767,3.195 61.757,2.11 63.206,2.11 63.206,0.501 
		60.271,0.501 57.129,2.169 57.883,3.59 59.452,2.758 62.008,4.145 59.557,5.468 56.267,5.468 56.267,7.101 60.082,7.101 
		63.767,5.1 67.451,7.101 71.268,7.101 71.268,5.468 67.977,5.468 65.526,4.145 68.082,2.757 69.652,3.59 70.404,2.169 
		67.264,0.501 	"/>
	<linearGradient id="SVGID_12_" gradientUnits="userSpaceOnUse" x1="1.3955" y1="3.2192" x2="90.7648" y2="3.2192">
		<stop  offset="0" style="stop-color:#E3007F"/>
		<stop  offset="0.2" style="stop-color:#E3007F"/>
		<stop  offset="1" style="stop-color:#5F1985"/>
	</linearGradient>
	<polygon fill="url(#SVGID_12_)" points="33.642,1.414 35.126,2.899 35.126,6.438 37.126,6.438 37.126,4.9 37.126,2.071 
		35.126,0.07 35.056,0 	"/>
</g>
</svg>
