<?xml version="1.0" encoding="utf-8"?>
<!-- Generator: Adobe Illustrator 16.0.0, SVG Export Plug-In . SVG Version: 6.00 Build 0)  -->
<!DOCTYPE svg PUBLIC "-//W3C//DTD SVG 1.1//EN" "http://www.w3.org/Graphics/SVG/1.1/DTD/svg11.dtd">
<svg version="1.1" id="_x3C_레이어_x3E_" xmlns="http://www.w3.org/2000/svg" xmlns:xlink="http://www.w3.org/1999/xlink"
	 x="0px" y="0px" width="564px" height="512px" viewBox="0 0 564 512" enable-background="new 0 0 564 512" xml:space="preserve">
<g>
	<path fill="#585858" d="M493.296,488.417h-426c-22.883,0-41.5-18.617-41.5-41.5v-336c0-22.883,18.617-41.5,41.5-41.5h426
		c22.883,0,41.5,18.617,41.5,41.5v336C534.796,469.8,516.179,488.417,493.296,488.417z M67.296,92.417
		c-10.201,0-18.5,8.299-18.5,18.5v336c0,10.201,8.299,18.5,18.5,18.5h426c10.201,0,18.5-8.299,18.5-18.5v-336
		c0-10.201-8.299-18.5-18.5-18.5H67.296z"/>
	<g>
		<path fill="#585858" d="M135.796,303.117c-6.351,0-11.5-5.149-11.5-11.5v-24.9c0-6.351,5.149-11.5,11.5-11.5s11.5,5.149,11.5,11.5
			v24.9C147.296,297.968,142.147,303.117,135.796,303.117z"/>
		<path fill="#585858" d="M231.496,303.117c-6.351,0-11.5-5.149-11.5-11.5v-24.9c0-6.351,5.149-11.5,11.5-11.5s11.5,5.149,11.5,11.5
			v24.9C242.996,297.968,237.847,303.117,231.496,303.117z"/>
		<path fill="#585858" d="M327.096,303.117c-6.351,0-11.5-5.149-11.5-11.5v-24.9c0-6.351,5.149-11.5,11.5-11.5s11.5,5.149,11.5,11.5
			v24.9C338.596,297.968,333.447,303.117,327.096,303.117z"/>
		<path fill="#585858" d="M422.796,303.117c-6.351,0-11.5-5.149-11.5-11.5v-24.9c0-6.351,5.149-11.5,11.5-11.5s11.5,5.149,11.5,11.5
			v24.9C434.296,297.968,429.147,303.117,422.796,303.117z"/>
	</g>
	<g>
		<path fill="#585858" d="M135.796,393.117c-6.351,0-11.5-5.149-11.5-11.5v-24.9c0-6.351,5.149-11.5,11.5-11.5s11.5,5.149,11.5,11.5
			v24.9C147.296,387.968,142.147,393.117,135.796,393.117z"/>
		<path fill="#585858" d="M231.496,393.117c-6.351,0-11.5-5.149-11.5-11.5v-24.9c0-6.351,5.149-11.5,11.5-11.5s11.5,5.149,11.5,11.5
			v24.9C242.996,387.968,237.847,393.117,231.496,393.117z"/>
		<path fill="#585858" d="M327.096,393.117c-6.351,0-11.5-5.149-11.5-11.5v-24.9c0-6.351,5.149-11.5,11.5-11.5s11.5,5.149,11.5,11.5
			v24.9C338.596,387.968,333.447,393.117,327.096,393.117z"/>
		<path fill="#585858" d="M422.796,393.117c-6.351,0-11.5-5.149-11.5-11.5v-24.9c0-6.351,5.149-11.5,11.5-11.5s11.5,5.149,11.5,11.5
			v24.9C434.296,387.968,429.147,393.117,422.796,393.117z"/>
	</g>
	<g>
		<path fill="#585858" d="M91.296,131.417c-6.351,0-11.5-5.149-11.5-11.5v-78c0-6.351,5.149-11.5,11.5-11.5s11.5,5.149,11.5,11.5v78
			C102.796,126.268,97.647,131.417,91.296,131.417z"/>
		<path fill="#585858" d="M186.296,131.417c-6.351,0-11.5-5.149-11.5-11.5v-78c0-6.351,5.149-11.5,11.5-11.5s11.5,5.149,11.5,11.5
			v78C197.796,126.268,192.647,131.417,186.296,131.417z"/>
		<path fill="#585858" d="M281.296,131.417c-6.351,0-11.5-5.149-11.5-11.5v-78c0-6.351,5.149-11.5,11.5-11.5s11.5,5.149,11.5,11.5
			v78C292.796,126.268,287.647,131.417,281.296,131.417z"/>
		<path fill="#585858" d="M376.296,131.417c-6.351,0-11.5-5.149-11.5-11.5v-78c0-6.351,5.149-11.5,11.5-11.5s11.5,5.149,11.5,11.5
			v78C387.796,126.268,382.647,131.417,376.296,131.417z"/>
		<path fill="#585858" d="M471.296,131.417c-6.351,0-11.5-5.149-11.5-11.5v-78c0-6.351,5.149-11.5,11.5-11.5s11.5,5.149,11.5,11.5
			v78C482.796,126.268,477.647,131.417,471.296,131.417z"/>
	</g>
	<path fill="#585858" d="M471.296,196.417h-380c-6.351,0-11.5-5.149-11.5-11.5s5.149-11.5,11.5-11.5h380
		c6.351,0,11.5,5.149,11.5,11.5S477.647,196.417,471.296,196.417z"/>
</g>
</svg>
