<?xml version="1.0" encoding="utf-8"?>
<!-- Generator: Adobe Illustrator 16.0.0, SVG Export Plug-In . SVG Version: 6.00 Build 0)  -->
<!DOCTYPE svg PUBLIC "-//W3C//DTD SVG 1.1//EN" "http://www.w3.org/Graphics/SVG/1.1/DTD/svg11.dtd">
<svg version="1.1" id="레이어_1" xmlns="http://www.w3.org/2000/svg" xmlns:xlink="http://www.w3.org/1999/xlink" x="0px"
	 y="0px" width="124px" height="142px" viewBox="0 0 124 142" enable-background="new 0 0 124 142" xml:space="preserve">
<g>
	<path fill="#222" d="M110.384,21.899c0-5.701-4.639-10.34-10.34-10.34H23.956c-5.701,0-10.34,4.639-10.34,10.34v98.2
		c0,5.702,4.639,10.341,10.34,10.341H34.91c2.209,0,4-1.791,4-4s-1.791-4-4-4H23.956c-1.29,0-2.34-1.05-2.34-2.341v-98.2
		c0-1.29,1.05-2.34,2.34-2.34h76.088c1.29,0,2.34,1.05,2.34,2.34v66.401H78.088c-5.428,0-9.843,4.415-9.843,9.843v24.297H56.822
		c-2.209,0-4,1.791-4,4s1.791,4,4,4h15.423c0.011,0,0.021-0.003,0.031-0.003c0.251-0.002,0.502-0.025,0.747-0.074
		c0.092-0.019,0.178-0.056,0.268-0.08c0.162-0.044,0.325-0.082,0.48-0.146c0.083-0.034,0.157-0.086,0.237-0.126
		c0.154-0.075,0.31-0.146,0.453-0.242c0.122-0.08,0.229-0.184,0.341-0.278c0.09-0.075,0.188-0.138,0.271-0.222l34.139-34.14
		c0.171-0.171,0.317-0.358,0.452-0.552c0.039-0.056,0.072-0.114,0.108-0.172c0.093-0.149,0.176-0.305,0.247-0.464
		c0.028-0.063,0.058-0.122,0.082-0.186c0.084-0.216,0.155-0.437,0.201-0.663c0.001-0.003,0.002-0.006,0.003-0.01
		c0.046-0.23,0.064-0.466,0.069-0.702c0.001-0.027,0.008-0.053,0.008-0.08V21.899z M78.088,96.301h18.639l-20.481,20.482v-18.64
		C76.245,97.128,77.072,96.301,78.088,96.301z"/>
	<circle fill="#222" cx="32.551" cy="34.25" r="4"/>
	<circle fill="#222" cx="32.551" cy="58.75" r="4"/>
	<circle fill="#222" cx="32.551" cy="83.25" r="4"/>
	<circle fill="#222" cx="32.551" cy="107.75" r="4"/>
</g>
</svg>
