<?xml version="1.0" encoding="utf-8"?>
<!-- Generator: Adobe Illustrator 16.0.0, SVG Export Plug-In . SVG Version: 6.00 Build 0)  -->
<!DOCTYPE svg PUBLIC "-//W3C//DTD SVG 1.1//EN" "http://www.w3.org/Graphics/SVG/1.1/DTD/svg11.dtd">
<svg version="1.1" id="레이어_1" xmlns="http://www.w3.org/2000/svg" xmlns:xlink="http://www.w3.org/1999/xlink" x="0px"
	 y="0px" width="42px" height="27px" viewBox="0 0 42 27" enable-background="new 0 0 42 27" xml:space="preserve">
<g>
	<path fill="#222" d="M42,27H0V0.01h42V27z M2.044,25.122h37.912V1.887H2.044V25.122z"/>
	<g>
		<polygon fill="#222" points="1.745,22.958 0.3,21.631 11.694,11.162 17.753,16.729 16.308,18.056 11.694,13.818 		"/>
		<polygon fill="#222" points="14.004,21.501 12.558,20.173 28.456,5.569 41.7,17.735 40.254,19.063 28.456,8.225 		"/>
	</g>
	<path fill="#222" d="M17.866,11.125c-2.066,0-3.747-1.544-3.747-3.442s1.681-3.442,3.747-3.442c2.067,0,3.748,1.544,3.748,3.442
		S19.933,11.125,17.866,11.125z M17.866,6.118c-0.939,0-1.703,0.702-1.703,1.565s0.764,1.565,1.703,1.565
		c0.94,0,1.704-0.702,1.704-1.565S18.806,6.118,17.866,6.118z"/>
</g>
</svg>
