<?xml version="1.0" encoding="utf-8"?>
<!-- Generator: Adobe Illustrator 16.0.0, SVG Export Plug-In . SVG Version: 6.00 Build 0)  -->
<!DOCTYPE svg PUBLIC "-//W3C//DTD SVG 1.1//EN" "http://www.w3.org/Graphics/SVG/1.1/DTD/svg11.dtd">
<svg version="1.1" id="레이어_1" xmlns="http://www.w3.org/2000/svg" xmlns:xlink="http://www.w3.org/1999/xlink" x="0px"
	 y="0px" width="110px" height="17px" viewBox="0 0 110 17" enable-background="new 0 0 110 17" xml:space="preserve">
<g>
	<linearGradient id="SVGID_1_" gradientUnits="userSpaceOnUse" x1="0.7773" y1="8.166" x2="108.8612" y2="8.166">
		<stop  offset="0" style="stop-color:#E3007F"/>
		<stop  offset="0.2" style="stop-color:#E3007F"/>
		<stop  offset="1" style="stop-color:#5F1985"/>
	</linearGradient>
	<path fill="url(#SVGID_1_)" d="M83.465,3.964l-1.671,1.688v5.028l1.671,1.688h4.657l1.688-1.688V5.651l-1.688-1.688H83.465z
		 M87.902,10.014l-0.674,0.676h-2.853l-0.675-0.676V6.322l0.675-0.675h2.853l0.674,0.675V10.014z"/>
	<linearGradient id="SVGID_2_" gradientUnits="userSpaceOnUse" x1="0.7891" y1="8.166" x2="108.8597" y2="8.166">
		<stop  offset="0" style="stop-color:#E3007F"/>
		<stop  offset="0.2" style="stop-color:#E3007F"/>
		<stop  offset="1" style="stop-color:#5F1985"/>
	</linearGradient>
	<path fill="url(#SVGID_2_)" d="M92.902,3.964l-1.67,1.688v5.028l1.67,1.688h4.658l1.688-1.688V5.651l-1.688-1.688H92.902z
		 M97.342,10.014l-0.676,0.676h-2.852l-0.676-0.676V6.322l0.676-0.675h2.852l0.676,0.675V10.014z"/>
	<linearGradient id="SVGID_3_" gradientUnits="userSpaceOnUse" x1="0.7837" y1="8.166" x2="108.8594" y2="8.166">
		<stop  offset="0" style="stop-color:#E3007F"/>
		<stop  offset="0.2" style="stop-color:#E3007F"/>
		<stop  offset="1" style="stop-color:#5F1985"/>
	</linearGradient>
	<polygon fill="url(#SVGID_3_)" points="47.145,3.964 42.626,3.964 40.955,5.651 40.955,12.368 42.862,12.368 42.862,6.32 
		43.537,5.645 46.251,5.645 46.926,6.32 46.926,12.368 48.833,12.368 48.833,5.651 	"/>
	<linearGradient id="SVGID_4_" gradientUnits="userSpaceOnUse" x1="0.7832" y1="8.166" x2="108.8645" y2="8.166">
		<stop  offset="0" style="stop-color:#E3007F"/>
		<stop  offset="0.2" style="stop-color:#E3007F"/>
		<stop  offset="1" style="stop-color:#5F1985"/>
	</linearGradient>
	<polygon fill="url(#SVGID_4_)" points="18.438,12.368 20.108,10.68 20.108,3.964 18.201,3.964 18.201,10.008 17.526,10.684 
		14.813,10.684 14.138,10.008 14.138,3.964 12.23,3.964 12.23,10.68 13.918,12.368 	"/>
	<linearGradient id="SVGID_5_" gradientUnits="userSpaceOnUse" x1="0.7993" y1="1.665" x2="108.8434" y2="1.665">
		<stop  offset="0" style="stop-color:#E3007F"/>
		<stop  offset="0.2" style="stop-color:#E3007F"/>
		<stop  offset="1" style="stop-color:#5F1985"/>
	</linearGradient>
	<polygon fill="url(#SVGID_5_)" points="54.819,0.5 54.127,1.175 54.127,2.154 54.819,2.83 55.85,2.83 56.541,2.154 56.541,1.175 
		55.85,0.5 	"/>
	<linearGradient id="SVGID_6_" gradientUnits="userSpaceOnUse" x1="0.7852" y1="8.1646" x2="108.8578" y2="8.1646">
		<stop  offset="0" style="stop-color:#E3007F"/>
		<stop  offset="0.2" style="stop-color:#E3007F"/>
		<stop  offset="1" style="stop-color:#5F1985"/>
	</linearGradient>
	<rect x="54.38" y="3.961" fill="url(#SVGID_6_)" width="1.908" height="8.407"/>
	<linearGradient id="SVGID_7_" gradientUnits="userSpaceOnUse" x1="0.793" y1="6.9902" x2="108.8588" y2="6.9902">
		<stop  offset="0" style="stop-color:#E3007F"/>
		<stop  offset="0.2" style="stop-color:#E3007F"/>
		<stop  offset="1" style="stop-color:#5F1985"/>
	</linearGradient>
	<path fill="url(#SVGID_7_)" d="M106.779,3.964h-4.439l-1.67,1.688v5.028l1.67,1.688h4.676l1.67-1.688V1.613h-1.906V3.964z
		 M106.779,10.014l-0.676,0.676h-2.852l-0.675-0.676V6.322l0.675-0.675h3.527V10.014z"/>
	<linearGradient id="SVGID_8_" gradientUnits="userSpaceOnUse" x1="0.7842" y1="6.4829" x2="108.8615" y2="6.4829">
		<stop  offset="0" style="stop-color:#E3007F"/>
		<stop  offset="0.2" style="stop-color:#E3007F"/>
		<stop  offset="1" style="stop-color:#5F1985"/>
	</linearGradient>
	<path fill="url(#SVGID_8_)" d="M10.03,5.51V2.253L8.375,0.598H1.314v11.771h7.454l1.791-1.792v-3.07L9.297,6.244L10.03,5.51z
		 M3.242,2.27h4.161l0.682,0.682v1.996L7.386,5.647H3.242V2.27z M8.614,9.877l-0.819,0.818H3.242V7.25h4.554l0.819,0.802V9.877z"/>
	<linearGradient id="SVGID_9_" gradientUnits="userSpaceOnUse" x1="0.7842" y1="8.166" x2="108.8596" y2="8.166">
		<stop  offset="0" style="stop-color:#E3007F"/>
		<stop  offset="0.2" style="stop-color:#E3007F"/>
		<stop  offset="1" style="stop-color:#5F1985"/>
	</linearGradient>
	<path fill="url(#SVGID_9_)" d="M33.094,3.964l-1.722,1.738v0.979h1.874V6.188l0.624-0.624h3.066l0.625,0.624v1.179h-4.753
		l-1.502,1.485v2.015l1.502,1.502h5.125l1.502-1.502V5.702l-1.721-1.738H33.094z M37.56,10.263l-0.506,0.507h-3.37l-0.506-0.507
		V9.488l0.54-0.523h3.842V10.263z"/>
	<linearGradient id="SVGID_10_" gradientUnits="userSpaceOnUse" x1="0.7842" y1="8.166" x2="108.8581" y2="8.166">
		<stop  offset="0" style="stop-color:#E3007F"/>
		<stop  offset="0.2" style="stop-color:#E3007F"/>
		<stop  offset="1" style="stop-color:#5F1985"/>
	</linearGradient>
	<polygon fill="url(#SVGID_10_)" points="28.22,12.368 29.722,10.866 29.722,8.854 28.22,7.37 24.074,7.37 23.534,6.846 
		23.534,6.193 24.158,5.569 27.146,5.569 27.77,6.193 27.77,6.681 29.643,6.681 29.643,5.702 27.873,3.964 23.382,3.964 
		21.661,5.702 21.661,7.478 23.163,8.962 27.309,8.962 27.849,9.486 27.849,10.263 27.342,10.77 24.038,10.77 23.532,10.263 
		23.532,9.652 21.659,9.652 21.659,10.866 23.095,12.368 	"/>
	<linearGradient id="SVGID_11_" gradientUnits="userSpaceOnUse" x1="0.7832" y1="8.166" x2="108.8604" y2="8.166">
		<stop  offset="0" style="stop-color:#E3007F"/>
		<stop  offset="0.2" style="stop-color:#E3007F"/>
		<stop  offset="1" style="stop-color:#5F1985"/>
	</linearGradient>
	<polygon fill="url(#SVGID_11_)" points="65.152,12.368 66.653,10.866 66.653,8.854 65.152,7.37 61.006,7.37 60.465,6.846 
		60.465,6.193 61.09,5.569 64.076,5.569 64.701,6.193 64.701,6.681 66.574,6.681 66.574,5.702 64.804,3.964 60.313,3.964 
		58.592,5.702 58.592,7.478 60.094,8.962 64.24,8.962 64.78,9.486 64.78,10.263 64.273,10.77 60.97,10.77 60.463,10.263 
		60.463,9.652 58.59,9.652 58.59,10.866 60.027,12.368 	"/>
	<linearGradient id="SVGID_12_" gradientUnits="userSpaceOnUse" x1="0.7866" y1="10.2324" x2="108.8581" y2="10.2324">
		<stop  offset="0" style="stop-color:#E3007F"/>
		<stop  offset="0.2" style="stop-color:#E3007F"/>
		<stop  offset="1" style="stop-color:#5F1985"/>
	</linearGradient>
	<path fill="url(#SVGID_12_)" d="M73.436,3.964l-1.671,1.688v5.028l1.671,1.688h4.875v1.854l-0.658,0.675h-3.475l-0.506-0.506
		v-0.609l-1.907,0.004v1.213l1.437,1.502h5.278l1.738-1.722V5.651l-1.671-1.688H73.436z M78.311,10.689h-3.965l-0.674-0.676V6.322
		l0.674-0.675h3.29l0.675,0.675V10.689z"/>
</g>
</svg>
