<?xml version="1.0" encoding="utf-8"?>
<!-- Generator: Adobe Illustrator 16.0.0, SVG Export Plug-In . SVG Version: 6.00 Build 0)  -->
<!DOCTYPE svg PUBLIC "-//W3C//DTD SVG 1.1//EN" "http://www.w3.org/Graphics/SVG/1.1/DTD/svg11.dtd">
<svg version="1.1" id="레이어_1" xmlns="http://www.w3.org/2000/svg" xmlns:xlink="http://www.w3.org/1999/xlink" x="0px"
	 y="0px" width="72px" height="36px" viewBox="0 0 72 36" enable-background="new 0 0 72 36" xml:space="preserve">
<g>
	<linearGradient id="SVGID_1_" gradientUnits="userSpaceOnUse" x1="2.7085" y1="17.8364" x2="69.9457" y2="17.8364">
		<stop  offset="0" style="stop-color:#E3007F"/>
		<stop  offset="0.2" style="stop-color:#E3007F"/>
		<stop  offset="1" style="stop-color:#5F1985"/>
	</linearGradient>
	<path fill="url(#SVGID_1_)" d="M1.111,9.854c0-1.161,0.199-2.273,0.599-3.339c0.399-1.063,1.028-2.007,1.887-2.83
		c0.858-0.822,1.972-1.475,3.338-1.96C8.301,1.242,9.953,1,11.888,1c1.91,0,3.55,0.242,4.917,0.725
		c1.366,0.485,2.479,1.138,3.338,1.96c0.858,0.822,1.488,1.766,1.887,2.83c0.399,1.065,0.599,2.178,0.599,3.339v2.577
		c0,1.112-0.2,2.189-0.599,3.229c-0.399,1.041-1.028,1.966-1.887,2.776c-0.859,0.811-1.972,1.457-3.338,1.941
		c-1.367,0.483-3.007,0.725-4.917,0.725c-1.936,0-3.587-0.241-4.954-0.725c-1.366-0.484-2.479-1.131-3.338-1.941
		C2.738,17.625,2.109,16.7,1.71,15.659c-0.399-1.04-0.599-2.117-0.599-3.229V9.854z M11.598,22.735v6.531h20.864v5.406H5.066V22.735
		H11.598z M16.315,10.071c0-1.185-0.357-2.123-1.07-2.812c-0.714-0.69-1.833-1.035-3.356-1.035c-1.597,0-2.74,0.352-3.429,1.052
		C7.77,7.979,7.425,8.91,7.425,10.071v2.141c0,1.186,0.363,2.123,1.088,2.813c0.726,0.689,1.851,1.034,3.375,1.034
		c1.548,0,2.672-0.351,3.375-1.053c0.701-0.701,1.052-1.632,1.052-2.793V10.071z M25.314,1.036h6.495v7.947h4.208v5.624h-4.208
		v10.668h-6.495V1.036z"/>
	<linearGradient id="SVGID_2_" gradientUnits="userSpaceOnUse" x1="2.709" y1="18.0181" x2="69.9466" y2="18.0181">
		<stop  offset="0" style="stop-color:#E3007F"/>
		<stop  offset="0.2" style="stop-color:#E3007F"/>
		<stop  offset="1" style="stop-color:#5F1985"/>
	</linearGradient>
	<path fill="url(#SVGID_2_)" d="M39.139,1.943h6.096v23.333c1.476-0.193,2.945-0.375,4.408-0.545
		c1.464-0.168,2.934-0.338,4.41-0.508v5.552l-14.914,1.778V1.943z M70.889,35h-6.06V18.345h-3.266V34.71H55.54V1.036h6.023V12.43
		h3.266V1.036h6.06V35z"/>
</g>
</svg>
