<?xml version="1.0" encoding="utf-8"?>
<!-- Generator: Adobe Illustrator 16.0.0, SVG Export Plug-In . SVG Version: 6.00 Build 0)  -->
<!DOCTYPE svg PUBLIC "-//W3C//DTD SVG 1.1//EN" "http://www.w3.org/Graphics/SVG/1.1/DTD/svg11.dtd">
<svg version="1.1" id="레이어_1" xmlns="http://www.w3.org/2000/svg" xmlns:xlink="http://www.w3.org/1999/xlink" x="0px"
	 y="0px" width="100px" height="100px" viewBox="0 0 100 100" enable-background="new 0 0 100 100" xml:space="preserve">
<g>
	<path fill="#662382" d="M0,48.299c3.54,2.215,7.254,3.813,10.884,4.746c2.895,0.746,7.813,0.604,7.813-4.913
		c0-1.302-0.254-4.229-3.594-6.236c0.766-0.443,2.606-1.898,2.606-5.127c0-2.044-0.585-3.616-1.86-4.999
		c-1.24-1.342-3.001-2.338-7.153-2.338H0V48.299z M6.254,34.734c0.987,0.165,1.977,0.238,2.965,0.365
		c0.717,0.093,2.074,0.361,2.074,2.12c0,1.729-1.356,1.621-2.074,1.488c-0.988-0.186-1.978-0.329-2.965-0.57V34.734z M6.254,43.032
		c1.274,0.423,2.55,0.786,3.828,1.084c0.699,0.161,2.247,0.572,2.247,2.161c0,1.612-1.494,1.503-2.199,1.344
		c-1.399-0.312-2.588-0.768-3.876-1.288V43.032z"/>
	<path fill="#662382" d="M27.035,29.403c-2.121,0.008-4.241,0-6.361,0v16.326c0,7.882,6.708,8.576,9.616,8.23
		c3.229-0.385,8.768-2.742,8.768-11.306v-13.25c-2.086,0.022-4.17-0.016-6.254,0c0,4.91,0,10.112,0,14.27
		c0,3.769-1.822,4.716-2.885,4.817c-0.955,0.087-2.884-0.189-2.884-3.055V29.403z"/>
	<path fill="#662382" d="M40.753,49.651c5.684,1.153,11.227-1.423,13.182-3.009c2.356-1.913,3.815-3.799,3.855-6.351
		c0.059-3.735-3.908-3.862-6.32-3.886c-1.651-0.018-2.902,0.024-3.546-0.246c-0.369-0.157-0.566-0.371-0.566-0.713
		c0-0.726,0.633-1.068,0.998-1.215c2.423-0.981,5.729,0.018,6.661,0.292l1.965-4.204C55.992,29.913,53.325,29,49.865,29
		c-5.382,0-7.147,2.641-7.805,3.846c-0.653,1.205-0.981,2.536-0.981,3.914c0,3.084,1.82,4.491,4.4,4.93
		c1.283,0.218,4.059-0.066,4.778,0c0.96,0.091,1.252,0.336,1.252,0.744c0,0.986-1.868,1.594-2.635,1.786
		c-1.275,0.318-3.757,0.564-6.051-0.121L40.753,49.651z"/>
	<path fill="#662382" d="M65.777,29.431c-2.749,3.65-5.401,9.538-8.15,16.536c2.158-0.626,4.313-1.213,6.47-1.727
		c0.419-1.163,0.843-2.286,1.264-3.364c2.391-0.508,4.785-0.919,7.178-1.197c0.417,0.907,0.843,1.854,1.262,2.862
		c2.192-0.22,4.386-0.311,6.577-0.238c-2.75-6.127-5.454-10.015-8.053-12.872H65.777z M67.118,36.663
		c0.61-1.358,1.222-2.602,1.832-3.721c0.606,1,1.216,2.06,1.824,3.197C69.557,36.288,68.338,36.466,67.118,36.663"/>
	<path fill="#662382" d="M81.4,42.351c2.068,0.117,4.132,0.387,6.2,0.838v-7.014c2.391,2.58,4.778,5.479,7.169,9.348
		c1.745,0.764,3.487,1.685,5.23,2.773V29.431h-6.2v6.875c-2.416-2.884-4.769-5.307-6.718-6.875H81.4V42.351z"/>
	<path fill="#00B4EC" d="M13.158,70.561c3.652,0,4.551-1.3,4.551-2.281c0-0.682-0.379-1.76-2.606-2.789
		c1.054-0.105,2.034-0.57,2.62-1.111c0.583-0.542,0.877-1.243,0.877-2.135c0-1.334-0.682-2.492-2.036-3.473
		c-1.356-0.993-3.339-1.699-5.943-2.393C7.079,55.424,3.54,53.916,0,51.701c0,6.289,0,12.566,0,18.859H13.158z M10.344,60.387
		c0.7,0.186,1.84,0.673,1.84,1.668c0,0.568-0.445,1.129-1.969,0.791c-1.28-0.287-2.687-0.689-3.96-1.113c0-0.856,0-1.73,0-2.63
		C7.528,59.578,9.068,60.052,10.344,60.387 M9.219,67.889c-0.988-0.133-1.978-0.274-2.965-0.439c0-0.716,0-1.451,0-2.205
		c0.987,0.242,1.977,0.463,2.965,0.645c0.79,0.145,2.074,0.447,2.074,1.318C11.293,67.723,10.828,68.102,9.219,67.889"/>
	<path fill="#00B4EC" d="M27.035,64.604c0-2.786,2.082-3.262,2.963-3.389c0.896-0.135,2.806-0.087,2.806,2.582v6.768h6.254V62.7
		c0-6.879-6.559-6.575-9.453-6.103c-2.891,0.463-8.931,2.136-8.931,8.578v5.389h6.361V64.604z"/>
	<path fill="#00B4EC" d="M72.068,70.568c2.747-9.626,5.559-18.41,8.309-24.859c-2.191-0.077-4.387,0.016-6.577,0.236
		c-0.419,1.183-0.845,2.427-1.266,3.713c-2.389,0.278-4.783,0.691-7.174,1.199c-0.421-1.113-0.845-2.185-1.264-3.213
		c-2.156,0.512-4.312,1.101-6.47,1.727c2.749,5.581,5.549,12.27,8.298,21.197H72.068z M70.774,55.285
		c-0.608,2.029-1.218,4.14-1.828,6.307c-0.604-2.048-1.216-3.973-1.824-5.785C68.342,55.609,69.557,55.432,70.774,55.285"/>
	<path fill="#00B4EC" d="M93.8,70.568h6.2V51.701c-1.743-1.09-3.485-2.009-5.229-2.775c-2.219,2-4.986,5.386-7.171,8.481V46.592
		c-2.068-0.452-4.132-0.72-6.2-0.838v24.815h5.115c2.229-4.299,4.884-8.357,7.284-11.258V70.568z"/>
	<path fill="#00B4EC" d="M42.826,59.733l-2.05-3.783c2.266-1.933,7.996-5.082,12.136-5.082c4.096,0,4.876,2.975,4.876,4.62
		c0,1.947-0.572,4.482-3.965,6.424c-2.41,1.377-4.047,1.645-5.532,2.425c-1,0.522-0.978,0.935-0.901,1.253
		c0.085,0.355,0.561,0.676,1.688,0.642c1.228-0.034,3.46-0.452,5.988-2.298l1.916,5.096C55.452,70.142,53.158,71,49.776,71
		c-3.634,0-8.703-1.291-8.703-4.971c0-2.436,1.777-3.848,3.332-4.865c2.075-1.362,5.218-2.491,6.381-3.332
		c0.807-0.582,0.816-1.19,0.614-1.479c-0.203-0.289-0.749-0.352-1.963-0.07C47.899,56.635,45.256,57.863,42.826,59.733"/>
</g>
<g>
	<path fill="#5B5B5B" d="M157.25,62.25c3.539,2.215,7.254,3.813,10.884,4.747c2.895,0.745,7.813,0.603,7.813-4.914
		c0-1.303-0.254-4.229-3.594-6.236c0.766-0.443,2.606-1.898,2.606-5.128c0-2.044-0.585-3.615-1.86-4.998
		c-1.24-1.343-3.001-2.338-7.153-2.338h-8.695V62.25z M163.504,48.686c0.988,0.165,1.978,0.237,2.965,0.364
		c0.718,0.093,2.074,0.361,2.074,2.121c0,1.729-1.356,1.62-2.074,1.487c-0.987-0.186-1.977-0.329-2.965-0.57V48.686z
		 M163.504,56.983c1.274,0.423,2.551,0.786,3.828,1.084c0.699,0.161,2.247,0.573,2.247,2.161c0,1.612-1.493,1.504-2.198,1.345
		c-1.399-0.313-2.589-0.769-3.877-1.288V56.983z"/>
	<path fill="#5B5B5B" d="M184.285,43.354c-2.121,0.008-4.241,0-6.361,0v16.326c0,7.883,6.708,8.576,9.616,8.229
		c3.229-0.386,8.768-2.741,8.768-11.306v-13.25c-2.086,0.021-4.17-0.017-6.254,0c0,4.909,0,10.111,0,14.27
		c0,3.77-1.822,4.717-2.885,4.817c-0.955,0.087-2.884-0.189-2.884-3.056V43.354z"/>
	<path fill="#5B5B5B" d="M198.003,63.603c5.684,1.153,11.227-1.423,13.182-3.009c2.356-1.913,3.815-3.8,3.855-6.352
		c0.059-3.734-3.908-3.861-6.32-3.886c-1.651-0.019-2.902,0.024-3.546-0.246c-0.369-0.157-0.566-0.371-0.566-0.714
		c0-0.726,0.633-1.068,0.998-1.215c2.423-0.981,5.729,0.018,6.661,0.292l1.965-4.204c-0.989-0.405-3.656-1.318-7.116-1.318
		c-5.382,0-7.147,2.641-7.805,3.846c-0.653,1.205-0.981,2.535-0.981,3.914c0,3.084,1.82,4.49,4.4,4.93
		c1.283,0.218,4.059-0.066,4.778,0c0.96,0.091,1.252,0.337,1.252,0.744c0,0.985-1.868,1.595-2.635,1.786
		c-1.275,0.318-3.757,0.564-6.051-0.121L198.003,63.603z"/>
	<path fill="#5B5B5B" d="M223.027,43.383c-2.749,3.649-5.401,9.537-8.15,16.535c2.158-0.627,4.313-1.213,6.47-1.728
		c0.419-1.163,0.843-2.285,1.264-3.363c2.391-0.509,4.785-0.92,7.178-1.197c0.417,0.906,0.843,1.854,1.262,2.861
		c2.192-0.22,4.386-0.31,6.577-0.237c-2.75-6.128-5.454-10.016-8.053-12.871H223.027z M224.368,50.614
		c0.61-1.358,1.222-2.603,1.832-3.721c0.606,1,1.216,2.06,1.824,3.196C226.807,50.239,225.588,50.417,224.368,50.614"/>
	<path fill="#5B5B5B" d="M238.65,56.302c2.068,0.117,4.132,0.388,6.2,0.839v-7.015c2.391,2.58,4.778,5.479,7.169,9.349
		c1.745,0.764,3.487,1.685,5.23,2.773V43.383h-6.2v6.875c-2.416-2.885-4.769-5.308-6.718-6.875h-5.682V56.302z"/>
	<path fill="#C6C6C6" d="M170.408,84.512c3.651,0,4.551-1.3,4.551-2.281c0-0.682-0.379-1.76-2.606-2.79
		c1.054-0.104,2.034-0.57,2.62-1.11c0.583-0.542,0.877-1.243,0.877-2.135c0-1.334-0.682-2.493-2.036-3.473
		c-1.356-0.993-3.339-1.699-5.943-2.393c-3.542-0.955-7.081-2.463-10.62-4.678c0,6.288,0,12.567,0,18.859H170.408z M167.594,74.337
		c0.699,0.186,1.84,0.674,1.84,1.669c0,0.568-0.445,1.129-1.969,0.79c-1.279-0.286-2.687-0.688-3.961-1.112c0-0.856,0-1.731,0-2.63
		C164.778,73.529,166.318,74.003,167.594,74.337 M166.469,81.839c-0.987-0.133-1.977-0.273-2.965-0.439c0-0.715,0-1.451,0-2.204
		c0.988,0.241,1.978,0.463,2.965,0.645c0.791,0.146,2.074,0.447,2.074,1.318C168.543,81.674,168.078,82.053,166.469,81.839"/>
	<path fill="#C6C6C6" d="M184.285,78.554c0-2.785,2.082-3.261,2.963-3.388c0.896-0.136,2.806-0.087,2.806,2.582v6.768h6.254v-7.864
		c0-6.879-6.559-6.575-9.453-6.104c-2.891,0.464-8.931,2.137-8.931,8.578v5.39h6.361V78.554z"/>
	<path fill="#C6C6C6" d="M229.318,84.52c2.747-9.626,5.559-18.41,8.309-24.859c-2.191-0.077-4.387,0.016-6.577,0.235
		c-0.419,1.184-0.845,2.427-1.266,3.713c-2.389,0.278-4.783,0.691-7.174,1.199c-0.421-1.112-0.845-2.185-1.264-3.213
		c-2.156,0.513-4.312,1.101-6.47,1.728c2.749,5.581,5.549,12.269,8.298,21.197H229.318z M228.024,69.236
		c-0.608,2.029-1.218,4.14-1.828,6.307c-0.604-2.048-1.216-3.973-1.824-5.785C225.592,69.561,226.807,69.383,228.024,69.236"/>
	<path fill="#C6C6C6" d="M251.05,84.52h6.2V65.652c-1.743-1.091-3.485-2.01-5.229-2.775c-2.219,1.999-4.986,5.386-7.171,8.481
		V60.543c-2.068-0.451-4.132-0.72-6.2-0.839V84.52h5.115c2.229-4.299,4.884-8.358,7.284-11.259V84.52z"/>
	<path fill="#C6C6C6" d="M200.076,73.685l-2.05-3.783c2.266-1.934,7.996-5.081,12.136-5.081c4.096,0,4.876,2.975,4.876,4.619
		c0,1.947-0.572,4.482-3.965,6.424c-2.41,1.377-4.047,1.645-5.532,2.425c-1,0.521-0.978,0.935-0.901,1.254
		c0.085,0.354,0.561,0.675,1.688,0.641c1.228-0.034,3.46-0.451,5.988-2.298l1.916,5.096c-1.529,1.112-3.823,1.971-7.205,1.971
		c-3.634,0-8.703-1.292-8.703-4.971c0-2.437,1.777-3.848,3.332-4.865c2.075-1.362,5.218-2.491,6.381-3.332
		c0.807-0.582,0.816-1.19,0.614-1.479c-0.203-0.289-0.749-0.352-1.963-0.071C205.149,70.586,202.506,71.813,200.076,73.685"/>
</g>
</svg>
