<?xml version="1.0" encoding="utf-8"?>
<!-- Generator: Adobe Illustrator 16.0.0, SVG Export Plug-In . SVG Version: 6.00 Build 0)  -->
<!DOCTYPE svg PUBLIC "-//W3C//DTD SVG 1.1//EN" "http://www.w3.org/Graphics/SVG/1.1/DTD/svg11.dtd">
<svg version="1.1" id="격리_모드" xmlns="http://www.w3.org/2000/svg" xmlns:xlink="http://www.w3.org/1999/xlink" x="0px"
	 y="0px" width="150.792px" height="249.451px" viewBox="0 0 150.792 249.451" enable-background="new 0 0 150.792 249.451"
	 xml:space="preserve">
<path fill="#222" d="M121.239,57.424l0.599-33.973c0,0-13.724,0-31.521,0S62,33.783,62,33.783
	c-10.516,7.912-11.958,21.204-12.313,28.485c-0.354,7.275,0,31.183,0,31.183H29.193l-0.239,32H52v101h38v-101h27.646l4.192-32
	H90.614c0,0-0.13-15.949,0.063-21.074c0.068-1.828,0.553-6.744,1.381-8.377c0.958-1.888,3.713-3.705,5.182-4.174
	C102.875,58.04,121.239,57.424,121.239,57.424z"/>
</svg>
