<?xml version="1.0" encoding="utf-8"?>
<!-- Generator: Adobe Illustrator 16.0.0, SVG Export Plug-In . SVG Version: 6.00 Build 0)  -->
<!DOCTYPE svg PUBLIC "-//W3C//DTD SVG 1.1//EN" "http://www.w3.org/Graphics/SVG/1.1/DTD/svg11.dtd">
<svg version="1.1" id="레이어_1" xmlns="http://www.w3.org/2000/svg" xmlns:xlink="http://www.w3.org/1999/xlink" x="0px"
	 y="0px" width="83px" height="17px" viewBox="0 0 83 17" enable-background="new 0 0 83 17" xml:space="preserve">
<g>
	<linearGradient id="SVGID_1_" gradientUnits="userSpaceOnUse" x1="0.8052" y1="10.2676" x2="80.98" y2="10.2676">
		<stop  offset="0" style="stop-color:#E3007F"/>
		<stop  offset="0.2" style="stop-color:#E3007F"/>
		<stop  offset="1" style="stop-color:#5F1985"/>
	</linearGradient>
	<polygon fill="url(#SVGID_1_)" points="67.877,3.74 67.877,14.914 78.808,14.914 78.808,16.795 66.941,16.795 65.727,15.581 
		65.727,3.74 	"/>
	<linearGradient id="SVGID_2_" gradientUnits="userSpaceOnUse" x1="0.7944" y1="8.1538" x2="80.9819" y2="8.1538">
		<stop  offset="0" style="stop-color:#E3007F"/>
		<stop  offset="0.2" style="stop-color:#E3007F"/>
		<stop  offset="1" style="stop-color:#5F1985"/>
	</linearGradient>
	<rect x="71.813" fill="url(#SVGID_2_)" width="2.145" height="16.308"/>
	<linearGradient id="SVGID_3_" gradientUnits="userSpaceOnUse" x1="0.8047" y1="3.083" x2="80.9862" y2="3.083">
		<stop  offset="0" style="stop-color:#E3007F"/>
		<stop  offset="0.2" style="stop-color:#E3007F"/>
		<stop  offset="1" style="stop-color:#5F1985"/>
	</linearGradient>
	<rect x="36.75" y="1.596" fill="url(#SVGID_3_)" width="2.145" height="2.974"/>
	<linearGradient id="SVGID_4_" gradientUnits="userSpaceOnUse" x1="0.8096" y1="8.5" x2="80.9811" y2="8.5">
		<stop  offset="0" style="stop-color:#E3007F"/>
		<stop  offset="0.2" style="stop-color:#E3007F"/>
		<stop  offset="1" style="stop-color:#5F1985"/>
	</linearGradient>
	<polygon fill="url(#SVGID_4_)" points="25.879,10.152 25.879,0 23.735,0 23.735,8.855 23.735,11.113 25.016,12.256 30.332,17 
		31.76,15.4 	"/>
	<linearGradient id="SVGID_5_" gradientUnits="userSpaceOnUse" x1="0.8101" y1="10.1758" x2="80.98" y2="10.1758">
		<stop  offset="0" style="stop-color:#E3007F"/>
		<stop  offset="0.2" style="stop-color:#E3007F"/>
		<stop  offset="1" style="stop-color:#5F1985"/>
	</linearGradient>
	<polygon fill="url(#SVGID_5_)" points="28.479,10.152 28.479,3.351 30.624,3.351 30.624,8.855 30.624,11.113 29.343,12.256 
		24.026,17 22.599,15.4 	"/>
	<linearGradient id="SVGID_6_" gradientUnits="userSpaceOnUse" x1="0.8442" y1="10.2686" x2="80.9791" y2="10.2686">
		<stop  offset="0" style="stop-color:#E3007F"/>
		<stop  offset="0.2" style="stop-color:#E3007F"/>
		<stop  offset="1" style="stop-color:#5F1985"/>
	</linearGradient>
	<rect x="77.897" y="3.742" fill="url(#SVGID_6_)" width="2.144" height="13.053"/>
	<linearGradient id="SVGID_7_" gradientUnits="userSpaceOnUse" x1="0.8096" y1="12.3848" x2="80.9809" y2="12.3848">
		<stop  offset="0" style="stop-color:#E3007F"/>
		<stop  offset="0.2" style="stop-color:#E3007F"/>
		<stop  offset="1" style="stop-color:#5F1985"/>
	</linearGradient>
	<rect x="51.494" y="7.974" fill="url(#SVGID_7_)" width="2.145" height="8.821"/>
	<linearGradient id="SVGID_8_" gradientUnits="userSpaceOnUse" x1="0.8086" y1="5.1631" x2="80.9901" y2="5.1631">
		<stop  offset="0" style="stop-color:#E3007F"/>
		<stop  offset="0.2" style="stop-color:#E3007F"/>
		<stop  offset="1" style="stop-color:#5F1985"/>
	</linearGradient>
	<rect x="9.393" y="1.969" fill="url(#SVGID_8_)" width="2.145" height="6.389"/>
	<linearGradient id="SVGID_9_" gradientUnits="userSpaceOnUse" x1="0.8086" y1="11.6445" x2="80.9901" y2="11.6445">
		<stop  offset="0" style="stop-color:#E3007F"/>
		<stop  offset="0.2" style="stop-color:#E3007F"/>
		<stop  offset="1" style="stop-color:#5F1985"/>
	</linearGradient>
	<rect x="9.393" y="9.733" fill="url(#SVGID_9_)" width="2.145" height="3.822"/>
	<linearGradient id="SVGID_10_" gradientUnits="userSpaceOnUse" x1="0.8086" y1="1.1006" x2="80.9901" y2="1.1006">
		<stop  offset="0" style="stop-color:#E3007F"/>
		<stop  offset="0.2" style="stop-color:#E3007F"/>
		<stop  offset="1" style="stop-color:#5F1985"/>
	</linearGradient>
	<rect x="6.133" fill="url(#SVGID_10_)" width="2.145" height="2.201"/>
	<linearGradient id="SVGID_11_" gradientUnits="userSpaceOnUse" x1="0.8081" y1="1.1006" x2="80.9896" y2="1.1006">
		<stop  offset="0" style="stop-color:#E3007F"/>
		<stop  offset="0.2" style="stop-color:#E3007F"/>
		<stop  offset="1" style="stop-color:#5F1985"/>
	</linearGradient>
	<rect x="13.053" fill="url(#SVGID_11_)" width="2.145" height="2.201"/>
	<linearGradient id="SVGID_12_" gradientUnits="userSpaceOnUse" x1="0.8091" y1="14.585" x2="80.9804" y2="14.585">
		<stop  offset="0" style="stop-color:#E3007F"/>
		<stop  offset="0.2" style="stop-color:#E3007F"/>
		<stop  offset="1" style="stop-color:#5F1985"/>
	</linearGradient>
	<rect x="47.354" y="13.16" fill="url(#SVGID_12_)" width="2.145" height="2.85"/>
	<linearGradient id="SVGID_13_" gradientUnits="userSpaceOnUse" x1="0.7842" y1="14.585" x2="80.9921" y2="14.585">
		<stop  offset="0" style="stop-color:#E3007F"/>
		<stop  offset="0.2" style="stop-color:#E3007F"/>
		<stop  offset="1" style="stop-color:#5F1985"/>
	</linearGradient>
	<rect x="55.634" y="13.16" fill="url(#SVGID_13_)" width="2.146" height="2.85"/>
	<linearGradient id="SVGID_14_" gradientUnits="userSpaceOnUse" x1="0.8076" y1="8.7275" x2="80.9817" y2="8.7275">
		<stop  offset="0" style="stop-color:#E3007F"/>
		<stop  offset="0.2" style="stop-color:#E3007F"/>
		<stop  offset="1" style="stop-color:#5F1985"/>
	</linearGradient>
	<rect x="47.086" y="7.85" fill="url(#SVGID_14_)" width="10.961" height="1.756"/>
	<linearGradient id="SVGID_15_" gradientUnits="userSpaceOnUse" x1="0.8096" y1="15.918" x2="80.9802" y2="15.918">
		<stop  offset="0" style="stop-color:#E3007F"/>
		<stop  offset="0.2" style="stop-color:#E3007F"/>
		<stop  offset="1" style="stop-color:#5F1985"/>
	</linearGradient>
	<rect x="44.496" y="15.04" fill="url(#SVGID_15_)" width="16.141" height="1.755"/>
	<linearGradient id="SVGID_16_" gradientUnits="userSpaceOnUse" x1="0.8076" y1="11.6221" x2="80.9807" y2="11.6221">
		<stop  offset="0" style="stop-color:#E3007F"/>
		<stop  offset="0.2" style="stop-color:#E3007F"/>
		<stop  offset="1" style="stop-color:#5F1985"/>
	</linearGradient>
	<rect x="45.122" y="10.744" fill="url(#SVGID_16_)" width="14.888" height="1.756"/>
	<linearGradient id="SVGID_17_" gradientUnits="userSpaceOnUse" x1="0.8096" y1="11.459" x2="80.979" y2="11.459">
		<stop  offset="0" style="stop-color:#E3007F"/>
		<stop  offset="0.2" style="stop-color:#E3007F"/>
		<stop  offset="1" style="stop-color:#5F1985"/>
	</linearGradient>
	<rect x="2.958" y="10.582" fill="url(#SVGID_17_)" width="15.012" height="1.754"/>
	<linearGradient id="SVGID_18_" gradientUnits="userSpaceOnUse" x1="0.8096" y1="8.4502" x2="80.9801" y2="8.4502">
		<stop  offset="0" style="stop-color:#E3007F"/>
		<stop  offset="0.2" style="stop-color:#E3007F"/>
		<stop  offset="1" style="stop-color:#5F1985"/>
	</linearGradient>
	<rect x="3.426" y="7.572" fill="url(#SVGID_18_)" width="14.078" height="1.756"/>
	<linearGradient id="SVGID_19_" gradientUnits="userSpaceOnUse" x1="0.8101" y1="5.4404" x2="80.9794" y2="5.4404">
		<stop  offset="0" style="stop-color:#E3007F"/>
		<stop  offset="0.2" style="stop-color:#E3007F"/>
		<stop  offset="1" style="stop-color:#5F1985"/>
	</linearGradient>
	<rect x="4.411" y="4.563" fill="url(#SVGID_19_)" width="12.107" height="1.755"/>
	<linearGradient id="SVGID_20_" gradientUnits="userSpaceOnUse" x1="0.8096" y1="2.4316" x2="80.9801" y2="2.4316">
		<stop  offset="0" style="stop-color:#E3007F"/>
		<stop  offset="0.2" style="stop-color:#E3007F"/>
		<stop  offset="1" style="stop-color:#5F1985"/>
	</linearGradient>
	<rect x="3.426" y="1.554" fill="url(#SVGID_20_)" width="14.078" height="1.755"/>
	<linearGradient id="SVGID_21_" gradientUnits="userSpaceOnUse" x1="0.8086" y1="4.1548" x2="80.9807" y2="4.1548">
		<stop  offset="0" style="stop-color:#E3007F"/>
		<stop  offset="0.2" style="stop-color:#E3007F"/>
		<stop  offset="1" style="stop-color:#5F1985"/>
	</linearGradient>
	<polygon fill="url(#SVGID_21_)" points="60.605,7.256 56.516,7.256 47.883,2.569 48.831,1.054 57.078,5.506 60.605,5.506 	"/>
	<linearGradient id="SVGID_22_" gradientUnits="userSpaceOnUse" x1="0.8076" y1="4.1548" x2="80.9824" y2="4.1548">
		<stop  offset="0" style="stop-color:#E3007F"/>
		<stop  offset="0.2" style="stop-color:#E3007F"/>
		<stop  offset="1" style="stop-color:#5F1985"/>
	</linearGradient>
	<polygon fill="url(#SVGID_22_)" points="48.617,7.256 44.527,7.256 44.527,5.506 48.054,5.506 56.301,1.054 57.25,2.569 	"/>
	<linearGradient id="SVGID_23_" gradientUnits="userSpaceOnUse" x1="0.811" y1="1.8379" x2="80.9794" y2="1.8379">
		<stop  offset="0" style="stop-color:#E3007F"/>
		<stop  offset="0.2" style="stop-color:#E3007F"/>
		<stop  offset="1" style="stop-color:#5F1985"/>
	</linearGradient>
	<polygon fill="url(#SVGID_23_)" points="46.26,3.494 45.451,1.97 48.82,0.183 51.965,0.183 51.965,1.907 49.249,1.907 	"/>
	<linearGradient id="SVGID_24_" gradientUnits="userSpaceOnUse" x1="0.8066" y1="1.8379" x2="80.9818" y2="1.8379">
		<stop  offset="0" style="stop-color:#E3007F"/>
		<stop  offset="0.2" style="stop-color:#E3007F"/>
		<stop  offset="1" style="stop-color:#5F1985"/>
	</linearGradient>
	<polygon fill="url(#SVGID_24_)" points="46.26,3.494 45.45,1.97 48.82,0.183 51.965,0.183 51.965,1.907 49.249,1.907 	"/>
	<linearGradient id="SVGID_25_" gradientUnits="userSpaceOnUse" x1="0.811" y1="1.8379" x2="80.9794" y2="1.8379">
		<stop  offset="0" style="stop-color:#E3007F"/>
		<stop  offset="0.2" style="stop-color:#E3007F"/>
		<stop  offset="1" style="stop-color:#5F1985"/>
	</linearGradient>
	<polygon fill="url(#SVGID_25_)" points="58.873,3.494 55.885,1.907 53.168,1.907 53.168,0.183 56.313,0.183 59.682,1.97 	"/>
	<linearGradient id="SVGID_26_" gradientUnits="userSpaceOnUse" x1="0.8101" y1="14.8145" x2="80.9792" y2="14.8145">
		<stop  offset="0" style="stop-color:#E3007F"/>
		<stop  offset="0.2" style="stop-color:#E3007F"/>
		<stop  offset="1" style="stop-color:#5F1985"/>
	</linearGradient>
	<polyline fill="url(#SVGID_26_)" points="11.37,12.688 17.506,15.119 16.786,16.94 10.465,14.436 4.144,16.94 3.424,15.119 
		9.56,12.688 	"/>
	<linearGradient id="SVGID_27_" gradientUnits="userSpaceOnUse" x1="0.8086" y1="8.8374" x2="80.9817" y2="8.8374">
		<stop  offset="0" style="stop-color:#E3007F"/>
		<stop  offset="0.2" style="stop-color:#E3007F"/>
		<stop  offset="1" style="stop-color:#5F1985"/>
	</linearGradient>
	<rect x="31.631" y="7.897" fill="url(#SVGID_27_)" width="8.304" height="1.88"/>
	<linearGradient id="SVGID_28_" gradientUnits="userSpaceOnUse" x1="0.8086" y1="9.9277" x2="80.9817" y2="9.9277">
		<stop  offset="0" style="stop-color:#E3007F"/>
		<stop  offset="0.2" style="stop-color:#E3007F"/>
		<stop  offset="1" style="stop-color:#5F1985"/>
	</linearGradient>
	<polygon fill="url(#SVGID_28_)" points="37.374,3.06 35.874,4.68 34.507,6.155 34.507,8.37 34.507,14.914 33.339,14.914 
		33.339,16.795 35.443,16.795 36.657,15.581 36.657,6.989 38.896,4.57 	"/>
	<linearGradient id="SVGID_29_" gradientUnits="userSpaceOnUse" x1="0.8086" y1="2.7686" x2="80.9823" y2="2.7686">
		<stop  offset="0" style="stop-color:#E3007F"/>
		<stop  offset="0.2" style="stop-color:#E3007F"/>
		<stop  offset="1" style="stop-color:#5F1985"/>
	</linearGradient>
	<polygon fill="url(#SVGID_29_)" points="30.624,3.042 29.409,1.829 21.881,1.829 21.881,3.709 30.624,3.709 	"/>
	<linearGradient id="SVGID_30_" gradientUnits="userSpaceOnUse" x1="0.8101" y1="1.1226" x2="80.9798" y2="1.1226">
		<stop  offset="0" style="stop-color:#E3007F"/>
		<stop  offset="0.2" style="stop-color:#E3007F"/>
		<stop  offset="1" style="stop-color:#5F1985"/>
	</linearGradient>
	<polygon fill="url(#SVGID_30_)" points="38.896,1.396 37.682,0.183 31.732,0.183 31.732,2.063 38.896,2.063 	"/>
</g>
</svg>
