<?xml version="1.0" encoding="utf-8"?>
<!-- Generator: Adobe Illustrator 16.0.0, SVG Export Plug-In . SVG Version: 6.00 Build 0)  -->
<!DOCTYPE svg PUBLIC "-//W3C//DTD SVG 1.1//EN" "http://www.w3.org/Graphics/SVG/1.1/DTD/svg11.dtd">
<svg version="1.1" id="레이어_1" xmlns="http://www.w3.org/2000/svg" xmlns:xlink="http://www.w3.org/1999/xlink" x="0px"
	 y="0px" width="65px" height="20px" viewBox="0 0 65 20" enable-background="new 0 0 65 20" xml:space="preserve">
<g>
	<path fill="#FFFFFF" d="M0.032,1.858h8.577v2.689H3.285v2.508H7.81v2.726H3.285v2.872H8.81v2.726H0.032V1.858z"/>
	<path fill="#FFFFFF" d="M11.228,5.038h2.635l0.218,1.291h0.073c0.854-0.837,1.908-1.545,3.308-1.545
		c2.253,0,3.216,1.617,3.216,4.198v6.396h-3.234V9.382c0-1.418-0.382-1.836-1.199-1.836c-0.728,0-1.163,0.327-1.8,0.927v6.906
		h-3.216V5.038z"/>
	<path fill="#FFFFFF" d="M22.55,17.123c0-0.854,0.509-1.544,1.473-2.035v-0.091c-0.546-0.363-0.945-0.908-0.945-1.781
		c0-0.727,0.473-1.453,1.145-1.926v-0.073c-0.727-0.509-1.399-1.472-1.399-2.671c0-2.526,2.091-3.762,4.325-3.762
		c0.601,0,1.163,0.091,1.636,0.254h3.799v2.345h-1.6c0.164,0.291,0.291,0.763,0.291,1.254c0,2.417-1.836,3.471-4.126,3.471
		c-0.345,0-0.763-0.055-1.217-0.182c-0.236,0.219-0.327,0.382-0.327,0.728c0,0.472,0.418,0.69,1.526,0.69h1.636
		c2.544,0,3.979,0.781,3.979,2.653c0,2.181-2.253,3.726-5.852,3.726C24.513,19.723,22.55,18.978,22.55,17.123z M29.656,16.561
		c0-0.618-0.546-0.745-1.509-0.745h-0.981c-0.745,0-1.145-0.037-1.472-0.128c-0.327,0.291-0.491,0.582-0.491,0.927
		c0,0.728,0.873,1.091,2.199,1.091S29.656,17.215,29.656,16.561z M28.456,8.546c0-1.054-0.545-1.6-1.309-1.6
		c-0.745,0-1.308,0.546-1.308,1.6c0,1.072,0.563,1.617,1.308,1.617C27.911,10.163,28.456,9.618,28.456,8.546z"/>
	<path fill="#FFFFFF" d="M34.382,12.017V0.858h3.217v11.286c0,0.672,0.326,0.872,0.581,0.872c0.109,0,0.183,0,0.364-0.036
		l0.381,2.38c-0.346,0.146-0.891,0.273-1.6,0.273C35.108,15.634,34.382,14.18,34.382,12.017z"/>
	<path fill="#FFFFFF" d="M40.179,1.949c0-0.981,0.764-1.672,1.854-1.672c1.072,0,1.836,0.69,1.836,1.672
		c0,0.963-0.764,1.653-1.836,1.653C40.942,3.603,40.179,2.912,40.179,1.949z M40.415,5.038h3.217v10.341h-3.217V5.038z"/>
	<path fill="#FFFFFF" d="M45.358,14.18l1.436-2.018c0.945,0.728,1.8,1.091,2.617,1.091c0.854,0,1.218-0.31,1.218-0.818
		c0-0.617-0.999-0.908-2.054-1.326c-1.235-0.491-2.689-1.327-2.689-3.035c0-1.963,1.6-3.289,3.998-3.289
		c1.636,0,2.799,0.654,3.707,1.326l-1.453,1.927c-0.727-0.509-1.454-0.872-2.145-0.872c-0.727,0-1.09,0.254-1.09,0.745
		c0,0.617,0.944,0.854,2.017,1.235c1.29,0.49,2.726,1.235,2.726,3.107c0,1.908-1.49,3.381-4.307,3.381
		C47.994,15.634,46.396,15.052,45.358,14.18z"/>
	<path fill="#FFFFFF" d="M55.519,0.858h3.217v3.489L58.59,6.184c0.745-0.691,1.763-1.399,3.162-1.399
		c2.253,0,3.216,1.617,3.216,4.198v6.396h-3.234V9.382c0-1.418-0.381-1.836-1.199-1.836c-0.727,0-1.163,0.327-1.799,0.927v6.906
		h-3.217V0.858z"/>
</g>
</svg>
